<svg class="marks" width="1247" height="256" viewBox="0 0 1247 256" version="1.1" xmlns="http://www.w3.org/2000/svg" xmlns:xlink="http://www.w3.org/1999/xlink"><rect width="1247" height="256" style="fill: white;"></rect><g transform="translate(42,10)"><g class="mark-group role-frame root"><g transform="translate(0,0)"><path class="background" d="M0.5,0.5h1200v200h-1200Z" style="fill: none; stroke: #ddd;"></path><g><g class="mark-group role-axis"><g transform="translate(0.5,0.5)"><path class="background" d="M0,0h0v0h0Z" style="pointer-events: none; fill: none;"></path><g><g class="mark-rule role-axis-grid" style="pointer-events: none;"><line transform="translate(0,200)" x2="1200" y2="0" style="fill: none; stroke: #ddd; stroke-width: 1; opacity: 1;"></line><line transform="translate(0,160)" x2="1200" y2="0" style="fill: none; stroke: #ddd; stroke-width: 1; opacity: 1;"></line><line transform="translate(0,120)" x2="1200" y2="0" style="fill: none; stroke: #ddd; stroke-width: 1; opacity: 1;"></line><line transform="translate(0,80)" x2="1200" y2="0" style="fill: none; stroke: #ddd; stroke-width: 1; opacity: 1;"></line><line transform="translate(0,40)" x2="1200" y2="0" style="fill: none; stroke: #ddd; stroke-width: 1; opacity: 1;"></line><line transform="translate(0,0)" x2="1200" y2="0" style="fill: none; stroke: #ddd; stroke-width: 1; opacity: 1;"></line></g></g><path class="foreground" d="" style="pointer-events: none; display: none; fill: none;"></path></g></g><g class="mark-group role-axis"><g transform="translate(0.5,200.5)"><path class="background" d="M0,0h0v0h0Z" style="pointer-events: none; fill: none;"></path><g><g class="mark-rule role-axis-tick" style="pointer-events: none;"><line transform="translate(10,0)" x2="0" y2="5" style="fill: none; stroke: #888; stroke-width: 1; opacity: 1;"></line><line transform="translate(30,0)" x2="0" y2="5" style="fill: none; stroke: #888; stroke-width: 1; opacity: 1;"></line><line transform="translate(50,0)" x2="0" y2="5" style="fill: none; stroke: #888; stroke-width: 1; opacity: 1;"></line><line transform="translate(70,0)" x2="0" y2="5" style="fill: none; stroke: #888; stroke-width: 1; opacity: 1;"></line><line transform="translate(90,0)" x2="0" y2="5" style="fill: none; stroke: #888; stroke-width: 1; opacity: 1;"></line><line transform="translate(110,0)" x2="0" y2="5" style="fill: none; stroke: #888; stroke-width: 1; opacity: 1;"></line><line transform="translate(130,0)" x2="0" y2="5" style="fill: none; stroke: #888; stroke-width: 1; opacity: 1;"></line><line transform="translate(150,0)" x2="0" y2="5" style="fill: none; stroke: #888; stroke-width: 1; opacity: 1;"></line><line transform="translate(170,0)" x2="0" y2="5" style="fill: none; stroke: #888; stroke-width: 1; opacity: 1;"></line><line transform="translate(190,0)" x2="0" y2="5" style="fill: none; stroke: #888; stroke-width: 1; opacity: 1;"></line><line transform="translate(210,0)" x2="0" y2="5" style="fill: none; stroke: #888; stroke-width: 1; opacity: 1;"></line><line transform="translate(230,0)" x2="0" y2="5" style="fill: none; stroke: #888; stroke-width: 1; opacity: 1;"></line><line transform="translate(250,0)" x2="0" y2="5" style="fill: none; stroke: #888; stroke-width: 1; opacity: 1;"></line><line transform="translate(270,0)" x2="0" y2="5" style="fill: none; stroke: #888; stroke-width: 1; opacity: 1;"></line><line transform="translate(290,0)" x2="0" y2="5" style="fill: none; stroke: #888; stroke-width: 1; opacity: 1;"></line><line transform="translate(310,0)" x2="0" y2="5" style="fill: none; stroke: #888; stroke-width: 1; opacity: 1;"></line><line transform="translate(330,0)" x2="0" y2="5" style="fill: none; stroke: #888; stroke-width: 1; opacity: 1;"></line><line transform="translate(350,0)" x2="0" y2="5" style="fill: none; stroke: #888; stroke-width: 1; opacity: 1;"></line><line transform="translate(370,0)" x2="0" y2="5" style="fill: none; stroke: #888; stroke-width: 1; opacity: 1;"></line><line transform="translate(390,0)" x2="0" y2="5" style="fill: none; stroke: #888; stroke-width: 1; opacity: 1;"></line><line transform="translate(410,0)" x2="0" y2="5" style="fill: none; stroke: #888; stroke-width: 1; opacity: 1;"></line><line transform="translate(430,0)" x2="0" y2="5" style="fill: none; stroke: #888; stroke-width: 1; opacity: 1;"></line><line transform="translate(450,0)" x2="0" y2="5" style="fill: none; stroke: #888; stroke-width: 1; opacity: 1;"></line><line transform="translate(470,0)" x2="0" y2="5" style="fill: none; stroke: #888; stroke-width: 1; opacity: 1;"></line><line transform="translate(490,0)" x2="0" y2="5" style="fill: none; stroke: #888; stroke-width: 1; opacity: 1;"></line><line transform="translate(510,0)" x2="0" y2="5" style="fill: none; stroke: #888; stroke-width: 1; opacity: 1;"></line><line transform="translate(530,0)" x2="0" y2="5" style="fill: none; stroke: #888; stroke-width: 1; opacity: 1;"></line><line transform="translate(550,0)" x2="0" y2="5" style="fill: none; stroke: #888; stroke-width: 1; opacity: 1;"></line><line transform="translate(570,0)" x2="0" y2="5" style="fill: none; stroke: #888; stroke-width: 1; opacity: 1;"></line><line transform="translate(590,0)" x2="0" y2="5" style="fill: none; stroke: #888; stroke-width: 1; opacity: 1;"></line><line transform="translate(610,0)" x2="0" y2="5" style="fill: none; stroke: #888; stroke-width: 1; opacity: 1;"></line><line transform="translate(630,0)" x2="0" y2="5" style="fill: none; stroke: #888; stroke-width: 1; opacity: 1;"></line><line transform="translate(650,0)" x2="0" y2="5" style="fill: none; stroke: #888; stroke-width: 1; opacity: 1;"></line><line transform="translate(670,0)" x2="0" y2="5" style="fill: none; stroke: #888; stroke-width: 1; opacity: 1;"></line><line transform="translate(690,0)" x2="0" y2="5" style="fill: none; stroke: #888; stroke-width: 1; opacity: 1;"></line><line transform="translate(710,0)" x2="0" y2="5" style="fill: none; stroke: #888; stroke-width: 1; opacity: 1;"></line><line transform="translate(730,0)" x2="0" y2="5" style="fill: none; stroke: #888; stroke-width: 1; opacity: 1;"></line><line transform="translate(750,0)" x2="0" y2="5" style="fill: none; stroke: #888; stroke-width: 1; opacity: 1;"></line><line transform="translate(770,0)" x2="0" y2="5" style="fill: none; stroke: #888; stroke-width: 1; opacity: 1;"></line><line transform="translate(790,0)" x2="0" y2="5" style="fill: none; stroke: #888; stroke-width: 1; opacity: 1;"></line><line transform="translate(810,0)" x2="0" y2="5" style="fill: none; stroke: #888; stroke-width: 1; opacity: 1;"></line><line transform="translate(830,0)" x2="0" y2="5" style="fill: none; stroke: #888; stroke-width: 1; opacity: 1;"></line><line transform="translate(850,0)" x2="0" y2="5" style="fill: none; stroke: #888; stroke-width: 1; opacity: 1;"></line><line transform="translate(870,0)" x2="0" y2="5" style="fill: none; stroke: #888; stroke-width: 1; opacity: 1;"></line><line transform="translate(890,0)" x2="0" y2="5" style="fill: none; stroke: #888; stroke-width: 1; opacity: 1;"></line><line transform="translate(910,0)" x2="0" y2="5" style="fill: none; stroke: #888; stroke-width: 1; opacity: 1;"></line><line transform="translate(930,0)" x2="0" y2="5" style="fill: none; stroke: #888; stroke-width: 1; opacity: 1;"></line><line transform="translate(950,0)" x2="0" y2="5" style="fill: none; stroke: #888; stroke-width: 1; opacity: 1;"></line><line transform="translate(970,0)" x2="0" y2="5" style="fill: none; stroke: #888; stroke-width: 1; opacity: 1;"></line><line transform="translate(990,0)" x2="0" y2="5" style="fill: none; stroke: #888; stroke-width: 1; opacity: 1;"></line><line transform="translate(1010,0)" x2="0" y2="5" style="fill: none; stroke: #888; stroke-width: 1; opacity: 1;"></line><line transform="translate(1030,0)" x2="0" y2="5" style="fill: none; stroke: #888; stroke-width: 1; opacity: 1;"></line><line transform="translate(1050,0)" x2="0" y2="5" style="fill: none; stroke: #888; stroke-width: 1; opacity: 1;"></line><line transform="translate(1070,0)" x2="0" y2="5" style="fill: none; stroke: #888; stroke-width: 1; opacity: 1;"></line><line transform="translate(1090,0)" x2="0" y2="5" style="fill: none; stroke: #888; stroke-width: 1; opacity: 1;"></line><line transform="translate(1110,0)" x2="0" y2="5" style="fill: none; stroke: #888; stroke-width: 1; opacity: 1;"></line><line transform="translate(1130,0)" x2="0" y2="5" style="fill: none; stroke: #888; stroke-width: 1; opacity: 1;"></line><line transform="translate(1150,0)" x2="0" y2="5" style="fill: none; stroke: #888; stroke-width: 1; opacity: 1;"></line><line transform="translate(1170,0)" x2="0" y2="5" style="fill: none; stroke: #888; stroke-width: 1; opacity: 1;"></line><line transform="translate(1190,0)" x2="0" y2="5" style="fill: none; stroke: #888; stroke-width: 1; opacity: 1;"></line></g><g class="mark-text role-axis-label" style="pointer-events: none;"><text text-anchor="end" transform="translate(9.5,7) rotate(270) translate(0,3)" style="font-family: sans-serif; font-size: 10px; fill: #000; opacity: 1;">a1</text><text text-anchor="end" transform="translate(29.5,7) rotate(270) translate(0,3)" style="font-family: sans-serif; font-size: 10px; fill: #000; opacity: 1;">a2</text><text text-anchor="end" transform="translate(49.5,7) rotate(270) translate(0,3)" style="font-family: sans-serif; font-size: 10px; fill: #000; opacity: 1;">a3</text><text text-anchor="end" transform="translate(69.5,7) rotate(270) translate(0,3)" style="font-family: sans-serif; font-size: 10px; fill: #000; opacity: 1;">a4</text><text text-anchor="end" transform="translate(89.5,7) rotate(270) translate(0,3)" style="font-family: sans-serif; font-size: 10px; fill: #000; opacity: 1;">a5</text><text text-anchor="end" transform="translate(109.5,7) rotate(270) translate(0,3)" style="font-family: sans-serif; font-size: 10px; fill: #000; opacity: 1;">a6</text><text text-anchor="end" transform="translate(129.5,7) rotate(270) translate(0,3)" style="font-family: sans-serif; font-size: 10px; fill: #000; opacity: 1;">a7</text><text text-anchor="end" transform="translate(149.5,7) rotate(270) translate(0,3)" style="font-family: sans-serif; font-size: 10px; fill: #000; opacity: 1;">a8</text><text text-anchor="end" transform="translate(169.5,7) rotate(270) translate(0,3)" style="font-family: sans-serif; font-size: 10px; fill: #000; opacity: 1;">a9</text><text text-anchor="end" transform="translate(189.5,7) rotate(270) translate(0,3)" style="font-family: sans-serif; font-size: 10px; fill: #000; opacity: 1;">a10</text><text text-anchor="end" transform="translate(209.5,7) rotate(270) translate(0,3)" style="font-family: sans-serif; font-size: 10px; fill: #000; opacity: 1;">a11</text><text text-anchor="end" transform="translate(229.5,7) rotate(270) translate(0,3)" style="font-family: sans-serif; font-size: 10px; fill: #000; opacity: 1;">a12</text><text text-anchor="end" transform="translate(249.5,7) rotate(270) translate(0,3)" style="font-family: sans-serif; font-size: 10px; fill: #000; opacity: 1;">b1</text><text text-anchor="end" transform="translate(269.5,7) rotate(270) translate(0,3)" style="font-family: sans-serif; font-size: 10px; fill: #000; opacity: 1;">b2</text><text text-anchor="end" transform="translate(289.5,7) rotate(270) translate(0,3)" style="font-family: sans-serif; font-size: 10px; fill: #000; opacity: 1;">b3</text><text text-anchor="end" transform="translate(309.5,7) rotate(270) translate(0,3)" style="font-family: sans-serif; font-size: 10px; fill: #000; opacity: 1;">b4</text><text text-anchor="end" transform="translate(329.5,7) rotate(270) translate(0,3)" style="font-family: sans-serif; font-size: 10px; fill: #000; opacity: 1;">b5</text><text text-anchor="end" transform="translate(349.5,7) rotate(270) translate(0,3)" style="font-family: sans-serif; font-size: 10px; fill: #000; opacity: 1;">b6</text><text text-anchor="end" transform="translate(369.5,7) rotate(270) translate(0,3)" style="font-family: sans-serif; font-size: 10px; fill: #000; opacity: 1;">b7</text><text text-anchor="end" transform="translate(389.5,7) rotate(270) translate(0,3)" style="font-family: sans-serif; font-size: 10px; fill: #000; opacity: 1;">b8</text><text text-anchor="end" transform="translate(409.5,7) rotate(270) translate(0,3)" style="font-family: sans-serif; font-size: 10px; fill: #000; opacity: 1;">b9</text><text text-anchor="end" transform="translate(429.5,7) rotate(270) translate(0,3)" style="font-family: sans-serif; font-size: 10px; fill: #000; opacity: 1;">b10</text><text text-anchor="end" transform="translate(449.5,7) rotate(270) translate(0,3)" style="font-family: sans-serif; font-size: 10px; fill: #000; opacity: 1;">b11</text><text text-anchor="end" transform="translate(469.5,7) rotate(270) translate(0,3)" style="font-family: sans-serif; font-size: 10px; fill: #000; opacity: 1;">b12</text><text text-anchor="end" transform="translate(489.5,7) rotate(270) translate(0,3)" style="font-family: sans-serif; font-size: 10px; fill: #000; opacity: 1;">c1</text><text text-anchor="end" transform="translate(509.5,7) rotate(270) translate(0,3)" style="font-family: sans-serif; font-size: 10px; fill: #000; opacity: 1;">c2</text><text text-anchor="end" transform="translate(529.5,7) rotate(270) translate(0,3)" style="font-family: sans-serif; font-size: 10px; fill: #000; opacity: 1;">c3</text><text text-anchor="end" transform="translate(549.5,7) rotate(270) translate(0,3)" style="font-family: sans-serif; font-size: 10px; fill: #000; opacity: 1;">c4</text><text text-anchor="end" transform="translate(569.5,7) rotate(270) translate(0,3)" style="font-family: sans-serif; font-size: 10px; fill: #000; opacity: 1;">c5</text><text text-anchor="end" transform="translate(589.5,7) rotate(270) translate(0,3)" style="font-family: sans-serif; font-size: 10px; fill: #000; opacity: 1;">c6</text><text text-anchor="end" transform="translate(609.5,7) rotate(270) translate(0,3)" style="font-family: sans-serif; font-size: 10px; fill: #000; opacity: 1;">c7</text><text text-anchor="end" transform="translate(629.5,7) rotate(270) translate(0,3)" style="font-family: sans-serif; font-size: 10px; fill: #000; opacity: 1;">c8</text><text text-anchor="end" transform="translate(649.5,7) rotate(270) translate(0,3)" style="font-family: sans-serif; font-size: 10px; fill: #000; opacity: 1;">c9</text><text text-anchor="end" transform="translate(669.5,7) rotate(270) translate(0,3)" style="font-family: sans-serif; font-size: 10px; fill: #000; opacity: 1;">c10</text><text text-anchor="end" transform="translate(689.5,7) rotate(270) translate(0,3)" style="font-family: sans-serif; font-size: 10px; fill: #000; opacity: 1;">c11</text><text text-anchor="end" transform="translate(709.5,7) rotate(270) translate(0,3)" style="font-family: sans-serif; font-size: 10px; fill: #000; opacity: 1;">c12</text><text text-anchor="end" transform="translate(729.5,7) rotate(270) translate(0,3)" style="font-family: sans-serif; font-size: 10px; fill: #000; opacity: 1;">d1</text><text text-anchor="end" transform="translate(749.5,7) rotate(270) translate(0,3)" style="font-family: sans-serif; font-size: 10px; fill: #000; opacity: 1;">d2</text><text text-anchor="end" transform="translate(769.5,7) rotate(270) translate(0,3)" style="font-family: sans-serif; font-size: 10px; fill: #000; opacity: 1;">d3</text><text text-anchor="end" transform="translate(789.5,7) rotate(270) translate(0,3)" style="font-family: sans-serif; font-size: 10px; fill: #000; opacity: 1;">d4</text><text text-anchor="end" transform="translate(809.5,7) rotate(270) translate(0,3)" style="font-family: sans-serif; font-size: 10px; fill: #000; opacity: 1;">d5</text><text text-anchor="end" transform="translate(829.5,7) rotate(270) translate(0,3)" style="font-family: sans-serif; font-size: 10px; fill: #000; opacity: 1;">d6</text><text text-anchor="end" transform="translate(849.5,7) rotate(270) translate(0,3)" style="font-family: sans-serif; font-size: 10px; fill: #000; opacity: 1;">d7</text><text text-anchor="end" transform="translate(869.5,7) rotate(270) translate(0,3)" style="font-family: sans-serif; font-size: 10px; fill: #000; opacity: 1;">d8</text><text text-anchor="end" transform="translate(889.5,7) rotate(270) translate(0,3)" style="font-family: sans-serif; font-size: 10px; fill: #000; opacity: 1;">d9</text><text text-anchor="end" transform="translate(909.5,7) rotate(270) translate(0,3)" style="font-family: sans-serif; font-size: 10px; fill: #000; opacity: 1;">d10</text><text text-anchor="end" transform="translate(929.5,7) rotate(270) translate(0,3)" style="font-family: sans-serif; font-size: 10px; fill: #000; opacity: 1;">d11</text><text text-anchor="end" transform="translate(949.5,7) rotate(270) translate(0,3)" style="font-family: sans-serif; font-size: 10px; fill: #000; opacity: 1;">d12</text><text text-anchor="end" transform="translate(969.5,7) rotate(270) translate(0,3)" style="font-family: sans-serif; font-size: 10px; fill: #000; opacity: 1;">e1</text><text text-anchor="end" transform="translate(989.5,7) rotate(270) translate(0,3)" style="font-family: sans-serif; font-size: 10px; fill: #000; opacity: 1;">e2</text><text text-anchor="end" transform="translate(1009.5,7) rotate(270) translate(0,3)" style="font-family: sans-serif; font-size: 10px; fill: #000; opacity: 1;">e3</text><text text-anchor="end" transform="translate(1029.5,7) rotate(270) translate(0,3)" style="font-family: sans-serif; font-size: 10px; fill: #000; opacity: 1;">e4</text><text text-anchor="end" transform="translate(1049.5,7) rotate(270) translate(0,3)" style="font-family: sans-serif; font-size: 10px; fill: #000; opacity: 1;">e5</text><text text-anchor="end" transform="translate(1069.5,7) rotate(270) translate(0,3)" style="font-family: sans-serif; font-size: 10px; fill: #000; opacity: 1;">e6</text><text text-anchor="end" transform="translate(1089.5,7) rotate(270) translate(0,3)" style="font-family: sans-serif; font-size: 10px; fill: #000; opacity: 1;">e7</text><text text-anchor="end" transform="translate(1109.5,7) rotate(270) translate(0,3)" style="font-family: sans-serif; font-size: 10px; fill: #000; opacity: 1;">e8</text><text text-anchor="end" transform="translate(1129.5,7) rotate(270) translate(0,3)" style="font-family: sans-serif; font-size: 10px; fill: #000; opacity: 1;">e9</text><text text-anchor="end" transform="translate(1149.5,7) rotate(270) translate(0,3)" style="font-family: sans-serif; font-size: 10px; fill: #000; opacity: 1;">e10</text><text text-anchor="end" transform="translate(1169.5,7) rotate(270) translate(0,3)" style="font-family: sans-serif; font-size: 10px; fill: #000; opacity: 1;">e11</text><text text-anchor="end" transform="translate(1189.5,7) rotate(270) translate(0,3)" style="font-family: sans-serif; font-size: 10px; fill: #000; opacity: 1;">e12</text></g><g class="mark-rule role-axis-domain" style="pointer-events: none;"><line transform="translate(0,0)" x2="1200" y2="0" style="fill: none; stroke: #888; stroke-width: 1; opacity: 1;"></line></g><g class="mark-text role-axis-title" style="pointer-events: none;"><text text-anchor="middle" transform="translate(600,38.125)" style="font-family: sans-serif; font-size: 11px; font-weight: bold; fill: #000; opacity: 1;">Problems</text></g></g><path class="foreground" d="" style="pointer-events: none; display: none; fill: none;"></path></g></g><g class="mark-group role-axis"><g transform="translate(0.5,0.5)"><path class="background" d="M0,0h0v0h0Z" style="pointer-events: none; fill: none;"></path><g><g class="mark-rule role-axis-tick" style="pointer-events: none;"><line transform="translate(0,200)" x2="-5" y2="0" style="fill: none; stroke: #888; stroke-width: 1; opacity: 1;"></line><line transform="translate(0,160)" x2="-5" y2="0" style="fill: none; stroke: #888; stroke-width: 1; opacity: 1;"></line><line transform="translate(0,120)" x2="-5" y2="0" style="fill: none; stroke: #888; stroke-width: 1; opacity: 1;"></line><line transform="translate(0,80)" x2="-5" y2="0" style="fill: none; stroke: #888; stroke-width: 1; opacity: 1;"></line><line transform="translate(0,40)" x2="-5" y2="0" style="fill: none; stroke: #888; stroke-width: 1; opacity: 1;"></line><line transform="translate(0,0)" x2="-5" y2="0" style="fill: none; stroke: #888; stroke-width: 1; opacity: 1;"></line></g><g class="mark-text role-axis-label" style="pointer-events: none;"><text text-anchor="end" transform="translate(-7,203)" style="font-family: sans-serif; font-size: 10px; fill: #000; opacity: 1;">0.0</text><text text-anchor="end" transform="translate(-7,163)" style="font-family: sans-serif; font-size: 10px; fill: #000; opacity: 1;">0.2</text><text text-anchor="end" transform="translate(-7,123)" style="font-family: sans-serif; font-size: 10px; fill: #000; opacity: 1;">0.4</text><text text-anchor="end" transform="translate(-7,83)" style="font-family: sans-serif; font-size: 10px; fill: #000; opacity: 1;">0.6</text><text text-anchor="end" transform="translate(-7,42.99999999999999)" style="font-family: sans-serif; font-size: 10px; fill: #000; opacity: 1;">0.8</text><text text-anchor="end" transform="translate(-7,3)" style="font-family: sans-serif; font-size: 10px; fill: #000; opacity: 1;">1.0</text></g><g class="mark-rule role-axis-domain" style="pointer-events: none;"><line transform="translate(0,200)" x2="0" y2="-200" style="fill: none; stroke: #888; stroke-width: 1; opacity: 1;"></line></g><g class="mark-text role-axis-title" style="pointer-events: none;"><text text-anchor="middle" transform="translate(-25.1357421875,100) rotate(-90) translate(0,-2)" style="font-family: sans-serif; font-size: 11px; font-weight: bold; fill: #000; opacity: 1;">pat_score, optn_score</text></g></g><path class="foreground" d="" style="pointer-events: none; display: none; fill: none;"></path></g></g><g class="mark-line role-mark layer_0_layer_0_marks"><path d="M10,22.0873786407767L30,49.79919678714859L50,13.003824654310092L70,17.74675972083748L90,16.65098777046097L110,8.176614881439082L130,8.083777328679043L150,7.831325301204828L170,0L190,0L210,58.38795394154119L230,56.99544764795144L250,2.259446825087652L270,8.261731658955718L290,2.6726057906458767L310,11.998016856717907L330,25.19001085776329L350,11.120957022596368L370,1.860825741422767L390,7.499999999999996L410,3.5683942225998244L430,16.510903426791266L450,11.829944547134929L470,8.603351955307259L490,20.46865085065688L510,12.36971363890127L530,3.018460658228239L550,17.469876323663414L570,4.8421381915499495L590,2.5062391825197095L610,12.654761333844888L630,23.18155393066965L650,42.4273613326245L670,22.98910642592704L690,5.975968396108677L710,24.67978990245141L730,8.945048931719501L750,4.526375695465656L770,8.585606975409288L790,5.687332640123377L810,15.414149124520549L830,32.29395582736287L850,21.42365308816039L870,18.571667998291662L890,17.457764973936452L910,24.438407894765767L930,32.4324204937241L950,53.74183166848005L970,23.092263966180226L990,17.584370403242854L1010,12.288401621102452L1030,24.518390526277912L1050,45.4909936810548L1070,33.37552669303807L1090,47.24927871481681L1110,34.3676266509157L1130,19.669223365174492L1150,54.05755680265483L1170,36.30128464265419L1190,52.65727061721339" style="fill: none; stroke: red; stroke-width: 2;"></path></g><g class="mark-symbol role-mark layer_0_layer_1_marks"><path transform="translate(30,49.79919678714859)" d="M2.7386127875258306,0A2.7386127875258306,2.7386127875258306,0,1,1,-2.7386127875258306,0A2.7386127875258306,2.7386127875258306,0,1,1,2.7386127875258306,0" style="fill: white; stroke: red; stroke-width: 2; opacity: 1;"></path><path transform="translate(50,13.003824654310092)" d="M2.7386127875258306,0A2.7386127875258306,2.7386127875258306,0,1,1,-2.7386127875258306,0A2.7386127875258306,2.7386127875258306,0,1,1,2.7386127875258306,0" style="fill: white; stroke: red; stroke-width: 2; opacity: 1;"></path><path transform="translate(10,22.0873786407767)" d="M2.7386127875258306,0A2.7386127875258306,2.7386127875258306,0,1,1,-2.7386127875258306,0A2.7386127875258306,2.7386127875258306,0,1,1,2.7386127875258306,0" style="fill: white; stroke: red; stroke-width: 2; opacity: 1;"></path><path transform="translate(70,17.74675972083748)" d="M2.7386127875258306,0A2.7386127875258306,2.7386127875258306,0,1,1,-2.7386127875258306,0A2.7386127875258306,2.7386127875258306,0,1,1,2.7386127875258306,0" style="fill: white; stroke: red; stroke-width: 2; opacity: 1;"></path><path transform="translate(110,8.176614881439082)" d="M2.7386127875258306,0A2.7386127875258306,2.7386127875258306,0,1,1,-2.7386127875258306,0A2.7386127875258306,2.7386127875258306,0,1,1,2.7386127875258306,0" style="fill: white; stroke: red; stroke-width: 2; opacity: 1;"></path><path transform="translate(90,16.65098777046097)" d="M2.7386127875258306,0A2.7386127875258306,2.7386127875258306,0,1,1,-2.7386127875258306,0A2.7386127875258306,2.7386127875258306,0,1,1,2.7386127875258306,0" style="fill: white; stroke: red; stroke-width: 2; opacity: 1;"></path><path transform="translate(130,8.083777328679043)" d="M2.7386127875258306,0A2.7386127875258306,2.7386127875258306,0,1,1,-2.7386127875258306,0A2.7386127875258306,2.7386127875258306,0,1,1,2.7386127875258306,0" style="fill: white; stroke: red; stroke-width: 2; opacity: 1;"></path><path transform="translate(150,7.831325301204828)" d="M2.7386127875258306,0A2.7386127875258306,2.7386127875258306,0,1,1,-2.7386127875258306,0A2.7386127875258306,2.7386127875258306,0,1,1,2.7386127875258306,0" style="fill: white; stroke: red; stroke-width: 2; opacity: 1;"></path><path transform="translate(170,0)" d="M2.7386127875258306,0A2.7386127875258306,2.7386127875258306,0,1,1,-2.7386127875258306,0A2.7386127875258306,2.7386127875258306,0,1,1,2.7386127875258306,0" style="fill: white; stroke: red; stroke-width: 2; opacity: 1;"></path><path transform="translate(190,0)" d="M2.7386127875258306,0A2.7386127875258306,2.7386127875258306,0,1,1,-2.7386127875258306,0A2.7386127875258306,2.7386127875258306,0,1,1,2.7386127875258306,0" style="fill: white; stroke: red; stroke-width: 2; opacity: 1;"></path><path transform="translate(230,56.99544764795144)" d="M2.7386127875258306,0A2.7386127875258306,2.7386127875258306,0,1,1,-2.7386127875258306,0A2.7386127875258306,2.7386127875258306,0,1,1,2.7386127875258306,0" style="fill: white; stroke: red; stroke-width: 2; opacity: 1;"></path><path transform="translate(210,58.38795394154119)" d="M2.7386127875258306,0A2.7386127875258306,2.7386127875258306,0,1,1,-2.7386127875258306,0A2.7386127875258306,2.7386127875258306,0,1,1,2.7386127875258306,0" style="fill: white; stroke: red; stroke-width: 2; opacity: 1;"></path><path transform="translate(250,2.259446825087652)" d="M2.7386127875258306,0A2.7386127875258306,2.7386127875258306,0,1,1,-2.7386127875258306,0A2.7386127875258306,2.7386127875258306,0,1,1,2.7386127875258306,0" style="fill: white; stroke: red; stroke-width: 2; opacity: 1;"></path><path transform="translate(290,2.6726057906458767)" d="M2.7386127875258306,0A2.7386127875258306,2.7386127875258306,0,1,1,-2.7386127875258306,0A2.7386127875258306,2.7386127875258306,0,1,1,2.7386127875258306,0" style="fill: white; stroke: red; stroke-width: 2; opacity: 1;"></path><path transform="translate(310,11.998016856717907)" d="M2.7386127875258306,0A2.7386127875258306,2.7386127875258306,0,1,1,-2.7386127875258306,0A2.7386127875258306,2.7386127875258306,0,1,1,2.7386127875258306,0" style="fill: white; stroke: red; stroke-width: 2; opacity: 1;"></path><path transform="translate(330,25.19001085776329)" d="M2.7386127875258306,0A2.7386127875258306,2.7386127875258306,0,1,1,-2.7386127875258306,0A2.7386127875258306,2.7386127875258306,0,1,1,2.7386127875258306,0" style="fill: white; stroke: red; stroke-width: 2; opacity: 1;"></path><path transform="translate(270,8.261731658955718)" d="M2.7386127875258306,0A2.7386127875258306,2.7386127875258306,0,1,1,-2.7386127875258306,0A2.7386127875258306,2.7386127875258306,0,1,1,2.7386127875258306,0" style="fill: white; stroke: red; stroke-width: 2; opacity: 1;"></path><path transform="translate(350,11.120957022596368)" d="M2.7386127875258306,0A2.7386127875258306,2.7386127875258306,0,1,1,-2.7386127875258306,0A2.7386127875258306,2.7386127875258306,0,1,1,2.7386127875258306,0" style="fill: white; stroke: red; stroke-width: 2; opacity: 1;"></path><path transform="translate(430,16.510903426791266)" d="M2.7386127875258306,0A2.7386127875258306,2.7386127875258306,0,1,1,-2.7386127875258306,0A2.7386127875258306,2.7386127875258306,0,1,1,2.7386127875258306,0" style="fill: white; stroke: red; stroke-width: 2; opacity: 1;"></path><path transform="translate(370,1.860825741422767)" d="M2.7386127875258306,0A2.7386127875258306,2.7386127875258306,0,1,1,-2.7386127875258306,0A2.7386127875258306,2.7386127875258306,0,1,1,2.7386127875258306,0" style="fill: white; stroke: red; stroke-width: 2; opacity: 1;"></path><path transform="translate(450,11.829944547134929)" d="M2.7386127875258306,0A2.7386127875258306,2.7386127875258306,0,1,1,-2.7386127875258306,0A2.7386127875258306,2.7386127875258306,0,1,1,2.7386127875258306,0" style="fill: white; stroke: red; stroke-width: 2; opacity: 1;"></path><path transform="translate(470,8.603351955307259)" d="M2.7386127875258306,0A2.7386127875258306,2.7386127875258306,0,1,1,-2.7386127875258306,0A2.7386127875258306,2.7386127875258306,0,1,1,2.7386127875258306,0" style="fill: white; stroke: red; stroke-width: 2; opacity: 1;"></path><path transform="translate(410,3.5683942225998244)" d="M2.7386127875258306,0A2.7386127875258306,2.7386127875258306,0,1,1,-2.7386127875258306,0A2.7386127875258306,2.7386127875258306,0,1,1,2.7386127875258306,0" style="fill: white; stroke: red; stroke-width: 2; opacity: 1;"></path><path transform="translate(390,7.499999999999996)" d="M2.7386127875258306,0A2.7386127875258306,2.7386127875258306,0,1,1,-2.7386127875258306,0A2.7386127875258306,2.7386127875258306,0,1,1,2.7386127875258306,0" style="fill: white; stroke: red; stroke-width: 2; opacity: 1;"></path><path transform="translate(570,4.8421381915499495)" d="M2.7386127875258306,0A2.7386127875258306,2.7386127875258306,0,1,1,-2.7386127875258306,0A2.7386127875258306,2.7386127875258306,0,1,1,2.7386127875258306,0" style="fill: white; stroke: red; stroke-width: 2; opacity: 1;"></path><path transform="translate(510,12.36971363890127)" d="M2.7386127875258306,0A2.7386127875258306,2.7386127875258306,0,1,1,-2.7386127875258306,0A2.7386127875258306,2.7386127875258306,0,1,1,2.7386127875258306,0" style="fill: white; stroke: red; stroke-width: 2; opacity: 1;"></path><path transform="translate(550,17.469876323663414)" d="M2.7386127875258306,0A2.7386127875258306,2.7386127875258306,0,1,1,-2.7386127875258306,0A2.7386127875258306,2.7386127875258306,0,1,1,2.7386127875258306,0" style="fill: white; stroke: red; stroke-width: 2; opacity: 1;"></path><path transform="translate(590,2.5062391825197095)" d="M2.7386127875258306,0A2.7386127875258306,2.7386127875258306,0,1,1,-2.7386127875258306,0A2.7386127875258306,2.7386127875258306,0,1,1,2.7386127875258306,0" style="fill: white; stroke: red; stroke-width: 2; opacity: 1;"></path><path transform="translate(530,3.018460658228239)" d="M2.7386127875258306,0A2.7386127875258306,2.7386127875258306,0,1,1,-2.7386127875258306,0A2.7386127875258306,2.7386127875258306,0,1,1,2.7386127875258306,0" style="fill: white; stroke: red; stroke-width: 2; opacity: 1;"></path><path transform="translate(490,20.46865085065688)" d="M2.7386127875258306,0A2.7386127875258306,2.7386127875258306,0,1,1,-2.7386127875258306,0A2.7386127875258306,2.7386127875258306,0,1,1,2.7386127875258306,0" style="fill: white; stroke: red; stroke-width: 2; opacity: 1;"></path><path transform="translate(610,12.654761333844888)" d="M2.7386127875258306,0A2.7386127875258306,2.7386127875258306,0,1,1,-2.7386127875258306,0A2.7386127875258306,2.7386127875258306,0,1,1,2.7386127875258306,0" style="fill: white; stroke: red; stroke-width: 2; opacity: 1;"></path><path transform="translate(690,5.975968396108677)" d="M2.7386127875258306,0A2.7386127875258306,2.7386127875258306,0,1,1,-2.7386127875258306,0A2.7386127875258306,2.7386127875258306,0,1,1,2.7386127875258306,0" style="fill: white; stroke: red; stroke-width: 2; opacity: 1;"></path><path transform="translate(670,22.98910642592704)" d="M2.7386127875258306,0A2.7386127875258306,2.7386127875258306,0,1,1,-2.7386127875258306,0A2.7386127875258306,2.7386127875258306,0,1,1,2.7386127875258306,0" style="fill: white; stroke: red; stroke-width: 2; opacity: 1;"></path><path transform="translate(630,23.18155393066965)" d="M2.7386127875258306,0A2.7386127875258306,2.7386127875258306,0,1,1,-2.7386127875258306,0A2.7386127875258306,2.7386127875258306,0,1,1,2.7386127875258306,0" style="fill: white; stroke: red; stroke-width: 2; opacity: 1;"></path><path transform="translate(710,24.67978990245141)" d="M2.7386127875258306,0A2.7386127875258306,2.7386127875258306,0,1,1,-2.7386127875258306,0A2.7386127875258306,2.7386127875258306,0,1,1,2.7386127875258306,0" style="fill: white; stroke: red; stroke-width: 2; opacity: 1;"></path><path transform="translate(650,42.4273613326245)" d="M2.7386127875258306,0A2.7386127875258306,2.7386127875258306,0,1,1,-2.7386127875258306,0A2.7386127875258306,2.7386127875258306,0,1,1,2.7386127875258306,0" style="fill: white; stroke: red; stroke-width: 2; opacity: 1;"></path><path transform="translate(730,8.945048931719501)" d="M2.7386127875258306,0A2.7386127875258306,2.7386127875258306,0,1,1,-2.7386127875258306,0A2.7386127875258306,2.7386127875258306,0,1,1,2.7386127875258306,0" style="fill: white; stroke: red; stroke-width: 2; opacity: 1;"></path><path transform="translate(750,4.526375695465656)" d="M2.7386127875258306,0A2.7386127875258306,2.7386127875258306,0,1,1,-2.7386127875258306,0A2.7386127875258306,2.7386127875258306,0,1,1,2.7386127875258306,0" style="fill: white; stroke: red; stroke-width: 2; opacity: 1;"></path><path transform="translate(790,5.687332640123377)" d="M2.7386127875258306,0A2.7386127875258306,2.7386127875258306,0,1,1,-2.7386127875258306,0A2.7386127875258306,2.7386127875258306,0,1,1,2.7386127875258306,0" style="fill: white; stroke: red; stroke-width: 2; opacity: 1;"></path><path transform="translate(770,8.585606975409288)" d="M2.7386127875258306,0A2.7386127875258306,2.7386127875258306,0,1,1,-2.7386127875258306,0A2.7386127875258306,2.7386127875258306,0,1,1,2.7386127875258306,0" style="fill: white; stroke: red; stroke-width: 2; opacity: 1;"></path><path transform="translate(810,15.414149124520549)" d="M2.7386127875258306,0A2.7386127875258306,2.7386127875258306,0,1,1,-2.7386127875258306,0A2.7386127875258306,2.7386127875258306,0,1,1,2.7386127875258306,0" style="fill: white; stroke: red; stroke-width: 2; opacity: 1;"></path><path transform="translate(830,32.29395582736287)" d="M2.7386127875258306,0A2.7386127875258306,2.7386127875258306,0,1,1,-2.7386127875258306,0A2.7386127875258306,2.7386127875258306,0,1,1,2.7386127875258306,0" style="fill: white; stroke: red; stroke-width: 2; opacity: 1;"></path><path transform="translate(850,21.42365308816039)" d="M2.7386127875258306,0A2.7386127875258306,2.7386127875258306,0,1,1,-2.7386127875258306,0A2.7386127875258306,2.7386127875258306,0,1,1,2.7386127875258306,0" style="fill: white; stroke: red; stroke-width: 2; opacity: 1;"></path><path transform="translate(870,18.571667998291662)" d="M2.7386127875258306,0A2.7386127875258306,2.7386127875258306,0,1,1,-2.7386127875258306,0A2.7386127875258306,2.7386127875258306,0,1,1,2.7386127875258306,0" style="fill: white; stroke: red; stroke-width: 2; opacity: 1;"></path><path transform="translate(890,17.457764973936452)" d="M2.7386127875258306,0A2.7386127875258306,2.7386127875258306,0,1,1,-2.7386127875258306,0A2.7386127875258306,2.7386127875258306,0,1,1,2.7386127875258306,0" style="fill: white; stroke: red; stroke-width: 2; opacity: 1;"></path><path transform="translate(910,24.438407894765767)" d="M2.7386127875258306,0A2.7386127875258306,2.7386127875258306,0,1,1,-2.7386127875258306,0A2.7386127875258306,2.7386127875258306,0,1,1,2.7386127875258306,0" style="fill: white; stroke: red; stroke-width: 2; opacity: 1;"></path><path transform="translate(930,32.4324204937241)" d="M2.7386127875258306,0A2.7386127875258306,2.7386127875258306,0,1,1,-2.7386127875258306,0A2.7386127875258306,2.7386127875258306,0,1,1,2.7386127875258306,0" style="fill: white; stroke: red; stroke-width: 2; opacity: 1;"></path><path transform="translate(990,17.584370403242854)" d="M2.7386127875258306,0A2.7386127875258306,2.7386127875258306,0,1,1,-2.7386127875258306,0A2.7386127875258306,2.7386127875258306,0,1,1,2.7386127875258306,0" style="fill: white; stroke: red; stroke-width: 2; opacity: 1;"></path><path transform="translate(970,23.092263966180226)" d="M2.7386127875258306,0A2.7386127875258306,2.7386127875258306,0,1,1,-2.7386127875258306,0A2.7386127875258306,2.7386127875258306,0,1,1,2.7386127875258306,0" style="fill: white; stroke: red; stroke-width: 2; opacity: 1;"></path><path transform="translate(950,53.74183166848005)" d="M2.7386127875258306,0A2.7386127875258306,2.7386127875258306,0,1,1,-2.7386127875258306,0A2.7386127875258306,2.7386127875258306,0,1,1,2.7386127875258306,0" style="fill: white; stroke: red; stroke-width: 2; opacity: 1;"></path><path transform="translate(1010,12.288401621102452)" d="M2.7386127875258306,0A2.7386127875258306,2.7386127875258306,0,1,1,-2.7386127875258306,0A2.7386127875258306,2.7386127875258306,0,1,1,2.7386127875258306,0" style="fill: white; stroke: red; stroke-width: 2; opacity: 1;"></path><path transform="translate(1030,24.518390526277912)" d="M2.7386127875258306,0A2.7386127875258306,2.7386127875258306,0,1,1,-2.7386127875258306,0A2.7386127875258306,2.7386127875258306,0,1,1,2.7386127875258306,0" style="fill: white; stroke: red; stroke-width: 2; opacity: 1;"></path><path transform="translate(1070,33.37552669303807)" d="M2.7386127875258306,0A2.7386127875258306,2.7386127875258306,0,1,1,-2.7386127875258306,0A2.7386127875258306,2.7386127875258306,0,1,1,2.7386127875258306,0" style="fill: white; stroke: red; stroke-width: 2; opacity: 1;"></path><path transform="translate(1050,45.4909936810548)" d="M2.7386127875258306,0A2.7386127875258306,2.7386127875258306,0,1,1,-2.7386127875258306,0A2.7386127875258306,2.7386127875258306,0,1,1,2.7386127875258306,0" style="fill: white; stroke: red; stroke-width: 2; opacity: 1;"></path><path transform="translate(1090,47.24927871481681)" d="M2.7386127875258306,0A2.7386127875258306,2.7386127875258306,0,1,1,-2.7386127875258306,0A2.7386127875258306,2.7386127875258306,0,1,1,2.7386127875258306,0" style="fill: white; stroke: red; stroke-width: 2; opacity: 1;"></path><path transform="translate(1130,19.669223365174492)" d="M2.7386127875258306,0A2.7386127875258306,2.7386127875258306,0,1,1,-2.7386127875258306,0A2.7386127875258306,2.7386127875258306,0,1,1,2.7386127875258306,0" style="fill: white; stroke: red; stroke-width: 2; opacity: 1;"></path><path transform="translate(1150,54.05755680265483)" d="M2.7386127875258306,0A2.7386127875258306,2.7386127875258306,0,1,1,-2.7386127875258306,0A2.7386127875258306,2.7386127875258306,0,1,1,2.7386127875258306,0" style="fill: white; stroke: red; stroke-width: 2; opacity: 1;"></path><path transform="translate(1170,36.30128464265419)" d="M2.7386127875258306,0A2.7386127875258306,2.7386127875258306,0,1,1,-2.7386127875258306,0A2.7386127875258306,2.7386127875258306,0,1,1,2.7386127875258306,0" style="fill: white; stroke: red; stroke-width: 2; opacity: 1;"></path><path transform="translate(1110,34.3676266509157)" d="M2.7386127875258306,0A2.7386127875258306,2.7386127875258306,0,1,1,-2.7386127875258306,0A2.7386127875258306,2.7386127875258306,0,1,1,2.7386127875258306,0" style="fill: white; stroke: red; stroke-width: 2; opacity: 1;"></path><path transform="translate(1190,52.65727061721339)" d="M2.7386127875258306,0A2.7386127875258306,2.7386127875258306,0,1,1,-2.7386127875258306,0A2.7386127875258306,2.7386127875258306,0,1,1,2.7386127875258306,0" style="fill: white; stroke: red; stroke-width: 2; opacity: 1;"></path></g><g class="mark-line role-mark layer_1_layer_0_marks"><path d="M10,97.1182512724252L30,62.86985539488321L50,37.91923340177961L70,28.67063492063493L90,80.59753312550852L110,15.483611502111394L130,8.172280508006624L150,34.963613142540176L170,11.99898232420784L190,28.159069304577745L210,72.67205733333364L230,80.65671364544171L250,1.8670254648929685L270,15.158444952629857L290,5.833333333333335L310,19.460784313725487L330,19.880088355948256L350,32.67108167770418L370,14.01483924154987L390,28.504315246628153L410,67.7203258484363L430,35.8012117041975L450,46.652973923355766L470,27.64273448750505L490,46.878057345827706L510,13.793103448275868L530,12.58123212893163L550,51.73422337896021L570,11.777578748838579L590,3.666891932727867L610,4.145077720207246L630,52.63082736726634L650,84.70066518847005L670,78.2442748091603L690,49.06788355650269L710,48.58455899114149L730,9.236403400181569L750,7.617444100052295L770,15.340622371740942L790,38.52373998654901L810,23.69794495787414L830,30.369086305447524L850,21.474272202052692L870,58.69058582155957L890,52.09221806483211L910,24.22135968007526L930,33.61753958587088L950,56.15644297920566L970,26.119402985074625L990,27.868091035764042L1010,15.174129353233834L1030,79.76989453499522L1050,20.960698689956338L1070,38.40503672612803L1090,63.73328423409645L1110,28.9210233592881L1130,18.361222250006936L1150,66.40746500777605L1170,68.40922930554763L1190,48.849524419431845" style="fill: none; stroke: #4c78a8; stroke-width: 2;"></path></g><g class="mark-symbol role-mark layer_1_layer_1_marks"><path transform="translate(30,62.86985539488321)" d="M2.7386127875258306,0A2.7386127875258306,2.7386127875258306,0,1,1,-2.7386127875258306,0A2.7386127875258306,2.7386127875258306,0,1,1,2.7386127875258306,0" style="fill: white; stroke: #4c78a8; stroke-width: 2; opacity: 1;"></path><path transform="translate(50,37.91923340177961)" d="M2.7386127875258306,0A2.7386127875258306,2.7386127875258306,0,1,1,-2.7386127875258306,0A2.7386127875258306,2.7386127875258306,0,1,1,2.7386127875258306,0" style="fill: white; stroke: #4c78a8; stroke-width: 2; opacity: 1;"></path><path transform="translate(10,97.1182512724252)" d="M2.7386127875258306,0A2.7386127875258306,2.7386127875258306,0,1,1,-2.7386127875258306,0A2.7386127875258306,2.7386127875258306,0,1,1,2.7386127875258306,0" style="fill: white; stroke: #4c78a8; stroke-width: 2; opacity: 1;"></path><path transform="translate(70,28.67063492063493)" d="M2.7386127875258306,0A2.7386127875258306,2.7386127875258306,0,1,1,-2.7386127875258306,0A2.7386127875258306,2.7386127875258306,0,1,1,2.7386127875258306,0" style="fill: white; stroke: #4c78a8; stroke-width: 2; opacity: 1;"></path><path transform="translate(110,15.483611502111394)" d="M2.7386127875258306,0A2.7386127875258306,2.7386127875258306,0,1,1,-2.7386127875258306,0A2.7386127875258306,2.7386127875258306,0,1,1,2.7386127875258306,0" style="fill: white; stroke: #4c78a8; stroke-width: 2; opacity: 1;"></path><path transform="translate(90,80.59753312550852)" d="M2.7386127875258306,0A2.7386127875258306,2.7386127875258306,0,1,1,-2.7386127875258306,0A2.7386127875258306,2.7386127875258306,0,1,1,2.7386127875258306,0" style="fill: white; stroke: #4c78a8; stroke-width: 2; opacity: 1;"></path><path transform="translate(130,8.172280508006624)" d="M2.7386127875258306,0A2.7386127875258306,2.7386127875258306,0,1,1,-2.7386127875258306,0A2.7386127875258306,2.7386127875258306,0,1,1,2.7386127875258306,0" style="fill: white; stroke: #4c78a8; stroke-width: 2; opacity: 1;"></path><path transform="translate(150,34.963613142540176)" d="M2.7386127875258306,0A2.7386127875258306,2.7386127875258306,0,1,1,-2.7386127875258306,0A2.7386127875258306,2.7386127875258306,0,1,1,2.7386127875258306,0" style="fill: white; stroke: #4c78a8; stroke-width: 2; opacity: 1;"></path><path transform="translate(170,11.99898232420784)" d="M2.7386127875258306,0A2.7386127875258306,2.7386127875258306,0,1,1,-2.7386127875258306,0A2.7386127875258306,2.7386127875258306,0,1,1,2.7386127875258306,0" style="fill: white; stroke: #4c78a8; stroke-width: 2; opacity: 1;"></path><path transform="translate(190,28.159069304577745)" d="M2.7386127875258306,0A2.7386127875258306,2.7386127875258306,0,1,1,-2.7386127875258306,0A2.7386127875258306,2.7386127875258306,0,1,1,2.7386127875258306,0" style="fill: white; stroke: #4c78a8; stroke-width: 2; opacity: 1;"></path><path transform="translate(230,80.65671364544171)" d="M2.7386127875258306,0A2.7386127875258306,2.7386127875258306,0,1,1,-2.7386127875258306,0A2.7386127875258306,2.7386127875258306,0,1,1,2.7386127875258306,0" style="fill: white; stroke: #4c78a8; stroke-width: 2; opacity: 1;"></path><path transform="translate(210,72.67205733333364)" d="M2.7386127875258306,0A2.7386127875258306,2.7386127875258306,0,1,1,-2.7386127875258306,0A2.7386127875258306,2.7386127875258306,0,1,1,2.7386127875258306,0" style="fill: white; stroke: #4c78a8; stroke-width: 2; opacity: 1;"></path><path transform="translate(250,1.8670254648929685)" d="M2.7386127875258306,0A2.7386127875258306,2.7386127875258306,0,1,1,-2.7386127875258306,0A2.7386127875258306,2.7386127875258306,0,1,1,2.7386127875258306,0" style="fill: white; stroke: #4c78a8; stroke-width: 2; opacity: 1;"></path><path transform="translate(290,5.833333333333335)" d="M2.7386127875258306,0A2.7386127875258306,2.7386127875258306,0,1,1,-2.7386127875258306,0A2.7386127875258306,2.7386127875258306,0,1,1,2.7386127875258306,0" style="fill: white; stroke: #4c78a8; stroke-width: 2; opacity: 1;"></path><path transform="translate(310,19.460784313725487)" d="M2.7386127875258306,0A2.7386127875258306,2.7386127875258306,0,1,1,-2.7386127875258306,0A2.7386127875258306,2.7386127875258306,0,1,1,2.7386127875258306,0" style="fill: white; stroke: #4c78a8; stroke-width: 2; opacity: 1;"></path><path transform="translate(330,19.880088355948256)" d="M2.7386127875258306,0A2.7386127875258306,2.7386127875258306,0,1,1,-2.7386127875258306,0A2.7386127875258306,2.7386127875258306,0,1,1,2.7386127875258306,0" style="fill: white; stroke: #4c78a8; stroke-width: 2; opacity: 1;"></path><path transform="translate(270,15.158444952629857)" d="M2.7386127875258306,0A2.7386127875258306,2.7386127875258306,0,1,1,-2.7386127875258306,0A2.7386127875258306,2.7386127875258306,0,1,1,2.7386127875258306,0" style="fill: white; stroke: #4c78a8; stroke-width: 2; opacity: 1;"></path><path transform="translate(350,32.67108167770418)" d="M2.7386127875258306,0A2.7386127875258306,2.7386127875258306,0,1,1,-2.7386127875258306,0A2.7386127875258306,2.7386127875258306,0,1,1,2.7386127875258306,0" style="fill: white; stroke: #4c78a8; stroke-width: 2; opacity: 1;"></path><path transform="translate(430,35.8012117041975)" d="M2.7386127875258306,0A2.7386127875258306,2.7386127875258306,0,1,1,-2.7386127875258306,0A2.7386127875258306,2.7386127875258306,0,1,1,2.7386127875258306,0" style="fill: white; stroke: #4c78a8; stroke-width: 2; opacity: 1;"></path><path transform="translate(370,14.01483924154987)" d="M2.7386127875258306,0A2.7386127875258306,2.7386127875258306,0,1,1,-2.7386127875258306,0A2.7386127875258306,2.7386127875258306,0,1,1,2.7386127875258306,0" style="fill: white; stroke: #4c78a8; stroke-width: 2; opacity: 1;"></path><path transform="translate(450,46.652973923355766)" d="M2.7386127875258306,0A2.7386127875258306,2.7386127875258306,0,1,1,-2.7386127875258306,0A2.7386127875258306,2.7386127875258306,0,1,1,2.7386127875258306,0" style="fill: white; stroke: #4c78a8; stroke-width: 2; opacity: 1;"></path><path transform="translate(470,27.64273448750505)" d="M2.7386127875258306,0A2.7386127875258306,2.7386127875258306,0,1,1,-2.7386127875258306,0A2.7386127875258306,2.7386127875258306,0,1,1,2.7386127875258306,0" style="fill: white; stroke: #4c78a8; stroke-width: 2; opacity: 1;"></path><path transform="translate(410,67.7203258484363)" d="M2.7386127875258306,0A2.7386127875258306,2.7386127875258306,0,1,1,-2.7386127875258306,0A2.7386127875258306,2.7386127875258306,0,1,1,2.7386127875258306,0" style="fill: white; stroke: #4c78a8; stroke-width: 2; opacity: 1;"></path><path transform="translate(390,28.504315246628153)" d="M2.7386127875258306,0A2.7386127875258306,2.7386127875258306,0,1,1,-2.7386127875258306,0A2.7386127875258306,2.7386127875258306,0,1,1,2.7386127875258306,0" style="fill: white; stroke: #4c78a8; stroke-width: 2; opacity: 1;"></path><path transform="translate(570,11.777578748838579)" d="M2.7386127875258306,0A2.7386127875258306,2.7386127875258306,0,1,1,-2.7386127875258306,0A2.7386127875258306,2.7386127875258306,0,1,1,2.7386127875258306,0" style="fill: white; stroke: #4c78a8; stroke-width: 2; opacity: 1;"></path><path transform="translate(510,13.793103448275868)" d="M2.7386127875258306,0A2.7386127875258306,2.7386127875258306,0,1,1,-2.7386127875258306,0A2.7386127875258306,2.7386127875258306,0,1,1,2.7386127875258306,0" style="fill: white; stroke: #4c78a8; stroke-width: 2; opacity: 1;"></path><path transform="translate(550,51.73422337896021)" d="M2.7386127875258306,0A2.7386127875258306,2.7386127875258306,0,1,1,-2.7386127875258306,0A2.7386127875258306,2.7386127875258306,0,1,1,2.7386127875258306,0" style="fill: white; stroke: #4c78a8; stroke-width: 2; opacity: 1;"></path><path transform="translate(590,3.666891932727867)" d="M2.7386127875258306,0A2.7386127875258306,2.7386127875258306,0,1,1,-2.7386127875258306,0A2.7386127875258306,2.7386127875258306,0,1,1,2.7386127875258306,0" style="fill: white; stroke: #4c78a8; stroke-width: 2; opacity: 1;"></path><path transform="translate(530,12.58123212893163)" d="M2.7386127875258306,0A2.7386127875258306,2.7386127875258306,0,1,1,-2.7386127875258306,0A2.7386127875258306,2.7386127875258306,0,1,1,2.7386127875258306,0" style="fill: white; stroke: #4c78a8; stroke-width: 2; opacity: 1;"></path><path transform="translate(490,46.878057345827706)" d="M2.7386127875258306,0A2.7386127875258306,2.7386127875258306,0,1,1,-2.7386127875258306,0A2.7386127875258306,2.7386127875258306,0,1,1,2.7386127875258306,0" style="fill: white; stroke: #4c78a8; stroke-width: 2; opacity: 1;"></path><path transform="translate(610,4.145077720207246)" d="M2.7386127875258306,0A2.7386127875258306,2.7386127875258306,0,1,1,-2.7386127875258306,0A2.7386127875258306,2.7386127875258306,0,1,1,2.7386127875258306,0" style="fill: white; stroke: #4c78a8; stroke-width: 2; opacity: 1;"></path><path transform="translate(690,49.06788355650269)" d="M2.7386127875258306,0A2.7386127875258306,2.7386127875258306,0,1,1,-2.7386127875258306,0A2.7386127875258306,2.7386127875258306,0,1,1,2.7386127875258306,0" style="fill: white; stroke: #4c78a8; stroke-width: 2; opacity: 1;"></path><path transform="translate(670,78.2442748091603)" d="M2.7386127875258306,0A2.7386127875258306,2.7386127875258306,0,1,1,-2.7386127875258306,0A2.7386127875258306,2.7386127875258306,0,1,1,2.7386127875258306,0" style="fill: white; stroke: #4c78a8; stroke-width: 2; opacity: 1;"></path><path transform="translate(630,52.63082736726634)" d="M2.7386127875258306,0A2.7386127875258306,2.7386127875258306,0,1,1,-2.7386127875258306,0A2.7386127875258306,2.7386127875258306,0,1,1,2.7386127875258306,0" style="fill: white; stroke: #4c78a8; stroke-width: 2; opacity: 1;"></path><path transform="translate(710,48.58455899114149)" d="M2.7386127875258306,0A2.7386127875258306,2.7386127875258306,0,1,1,-2.7386127875258306,0A2.7386127875258306,2.7386127875258306,0,1,1,2.7386127875258306,0" style="fill: white; stroke: #4c78a8; stroke-width: 2; opacity: 1;"></path><path transform="translate(650,84.70066518847005)" d="M2.7386127875258306,0A2.7386127875258306,2.7386127875258306,0,1,1,-2.7386127875258306,0A2.7386127875258306,2.7386127875258306,0,1,1,2.7386127875258306,0" style="fill: white; stroke: #4c78a8; stroke-width: 2; opacity: 1;"></path><path transform="translate(730,9.236403400181569)" d="M2.7386127875258306,0A2.7386127875258306,2.7386127875258306,0,1,1,-2.7386127875258306,0A2.7386127875258306,2.7386127875258306,0,1,1,2.7386127875258306,0" style="fill: white; stroke: #4c78a8; stroke-width: 2; opacity: 1;"></path><path transform="translate(750,7.617444100052295)" d="M2.7386127875258306,0A2.7386127875258306,2.7386127875258306,0,1,1,-2.7386127875258306,0A2.7386127875258306,2.7386127875258306,0,1,1,2.7386127875258306,0" style="fill: white; stroke: #4c78a8; stroke-width: 2; opacity: 1;"></path><path transform="translate(790,38.52373998654901)" d="M2.7386127875258306,0A2.7386127875258306,2.7386127875258306,0,1,1,-2.7386127875258306,0A2.7386127875258306,2.7386127875258306,0,1,1,2.7386127875258306,0" style="fill: white; stroke: #4c78a8; stroke-width: 2; opacity: 1;"></path><path transform="translate(770,15.340622371740942)" d="M2.7386127875258306,0A2.7386127875258306,2.7386127875258306,0,1,1,-2.7386127875258306,0A2.7386127875258306,2.7386127875258306,0,1,1,2.7386127875258306,0" style="fill: white; stroke: #4c78a8; stroke-width: 2; opacity: 1;"></path><path transform="translate(810,23.69794495787414)" d="M2.7386127875258306,0A2.7386127875258306,2.7386127875258306,0,1,1,-2.7386127875258306,0A2.7386127875258306,2.7386127875258306,0,1,1,2.7386127875258306,0" style="fill: white; stroke: #4c78a8; stroke-width: 2; opacity: 1;"></path><path transform="translate(830,30.369086305447524)" d="M2.7386127875258306,0A2.7386127875258306,2.7386127875258306,0,1,1,-2.7386127875258306,0A2.7386127875258306,2.7386127875258306,0,1,1,2.7386127875258306,0" style="fill: white; stroke: #4c78a8; stroke-width: 2; opacity: 1;"></path><path transform="translate(850,21.474272202052692)" d="M2.7386127875258306,0A2.7386127875258306,2.7386127875258306,0,1,1,-2.7386127875258306,0A2.7386127875258306,2.7386127875258306,0,1,1,2.7386127875258306,0" style="fill: white; stroke: #4c78a8; stroke-width: 2; opacity: 1;"></path><path transform="translate(870,58.69058582155957)" d="M2.7386127875258306,0A2.7386127875258306,2.7386127875258306,0,1,1,-2.7386127875258306,0A2.7386127875258306,2.7386127875258306,0,1,1,2.7386127875258306,0" style="fill: white; stroke: #4c78a8; stroke-width: 2; opacity: 1;"></path><path transform="translate(890,52.09221806483211)" d="M2.7386127875258306,0A2.7386127875258306,2.7386127875258306,0,1,1,-2.7386127875258306,0A2.7386127875258306,2.7386127875258306,0,1,1,2.7386127875258306,0" style="fill: white; stroke: #4c78a8; stroke-width: 2; opacity: 1;"></path><path transform="translate(910,24.22135968007526)" d="M2.7386127875258306,0A2.7386127875258306,2.7386127875258306,0,1,1,-2.7386127875258306,0A2.7386127875258306,2.7386127875258306,0,1,1,2.7386127875258306,0" style="fill: white; stroke: #4c78a8; stroke-width: 2; opacity: 1;"></path><path transform="translate(930,33.61753958587088)" d="M2.7386127875258306,0A2.7386127875258306,2.7386127875258306,0,1,1,-2.7386127875258306,0A2.7386127875258306,2.7386127875258306,0,1,1,2.7386127875258306,0" style="fill: white; stroke: #4c78a8; stroke-width: 2; opacity: 1;"></path><path transform="translate(990,27.868091035764042)" d="M2.7386127875258306,0A2.7386127875258306,2.7386127875258306,0,1,1,-2.7386127875258306,0A2.7386127875258306,2.7386127875258306,0,1,1,2.7386127875258306,0" style="fill: white; stroke: #4c78a8; stroke-width: 2; opacity: 1;"></path><path transform="translate(970,26.119402985074625)" d="M2.7386127875258306,0A2.7386127875258306,2.7386127875258306,0,1,1,-2.7386127875258306,0A2.7386127875258306,2.7386127875258306,0,1,1,2.7386127875258306,0" style="fill: white; stroke: #4c78a8; stroke-width: 2; opacity: 1;"></path><path transform="translate(950,56.15644297920566)" d="M2.7386127875258306,0A2.7386127875258306,2.7386127875258306,0,1,1,-2.7386127875258306,0A2.7386127875258306,2.7386127875258306,0,1,1,2.7386127875258306,0" style="fill: white; stroke: #4c78a8; stroke-width: 2; opacity: 1;"></path><path transform="translate(1010,15.174129353233834)" d="M2.7386127875258306,0A2.7386127875258306,2.7386127875258306,0,1,1,-2.7386127875258306,0A2.7386127875258306,2.7386127875258306,0,1,1,2.7386127875258306,0" style="fill: white; stroke: #4c78a8; stroke-width: 2; opacity: 1;"></path><path transform="translate(1030,79.76989453499522)" d="M2.7386127875258306,0A2.7386127875258306,2.7386127875258306,0,1,1,-2.7386127875258306,0A2.7386127875258306,2.7386127875258306,0,1,1,2.7386127875258306,0" style="fill: white; stroke: #4c78a8; stroke-width: 2; opacity: 1;"></path><path transform="translate(1070,38.40503672612803)" d="M2.7386127875258306,0A2.7386127875258306,2.7386127875258306,0,1,1,-2.7386127875258306,0A2.7386127875258306,2.7386127875258306,0,1,1,2.7386127875258306,0" style="fill: white; stroke: #4c78a8; stroke-width: 2; opacity: 1;"></path><path transform="translate(1050,20.960698689956338)" d="M2.7386127875258306,0A2.7386127875258306,2.7386127875258306,0,1,1,-2.7386127875258306,0A2.7386127875258306,2.7386127875258306,0,1,1,2.7386127875258306,0" style="fill: white; stroke: #4c78a8; stroke-width: 2; opacity: 1;"></path><path transform="translate(1090,63.73328423409645)" d="M2.7386127875258306,0A2.7386127875258306,2.7386127875258306,0,1,1,-2.7386127875258306,0A2.7386127875258306,2.7386127875258306,0,1,1,2.7386127875258306,0" style="fill: white; stroke: #4c78a8; stroke-width: 2; opacity: 1;"></path><path transform="translate(1130,18.361222250006936)" d="M2.7386127875258306,0A2.7386127875258306,2.7386127875258306,0,1,1,-2.7386127875258306,0A2.7386127875258306,2.7386127875258306,0,1,1,2.7386127875258306,0" style="fill: white; stroke: #4c78a8; stroke-width: 2; opacity: 1;"></path><path transform="translate(1150,66.40746500777605)" d="M2.7386127875258306,0A2.7386127875258306,2.7386127875258306,0,1,1,-2.7386127875258306,0A2.7386127875258306,2.7386127875258306,0,1,1,2.7386127875258306,0" style="fill: white; stroke: #4c78a8; stroke-width: 2; opacity: 1;"></path><path transform="translate(1170,68.40922930554763)" d="M2.7386127875258306,0A2.7386127875258306,2.7386127875258306,0,1,1,-2.7386127875258306,0A2.7386127875258306,2.7386127875258306,0,1,1,2.7386127875258306,0" style="fill: white; stroke: #4c78a8; stroke-width: 2; opacity: 1;"></path><path transform="translate(1110,28.9210233592881)" d="M2.7386127875258306,0A2.7386127875258306,2.7386127875258306,0,1,1,-2.7386127875258306,0A2.7386127875258306,2.7386127875258306,0,1,1,2.7386127875258306,0" style="fill: white; stroke: #4c78a8; stroke-width: 2; opacity: 1;"></path><path transform="translate(1190,48.849524419431845)" d="M2.7386127875258306,0A2.7386127875258306,2.7386127875258306,0,1,1,-2.7386127875258306,0A2.7386127875258306,2.7386127875258306,0,1,1,2.7386127875258306,0" style="fill: white; stroke: #4c78a8; stroke-width: 2; opacity: 1;"></path></g><g class="mark-rule role-mark layer_2_marks"><line transform="translate(30,200)" x2="0" y2="-200" style="fill: none;"></line><line transform="translate(50,200)" x2="0" y2="-200" style="fill: none;"></line><line transform="translate(10,200)" x2="0" y2="-200" style="fill: none;"></line><line transform="translate(70,200)" x2="0" y2="-200" style="fill: none;"></line><line transform="translate(110,200)" x2="0" y2="-200" style="fill: none;"></line><line transform="translate(90,200)" x2="0" y2="-200" style="fill: none;"></line><line transform="translate(130,200)" x2="0" y2="-200" style="fill: none;"></line><line transform="translate(150,200)" x2="0" y2="-200" style="fill: none;"></line><line transform="translate(170,200)" x2="0" y2="-200" style="fill: none;"></line><line transform="translate(190,200)" x2="0" y2="-200" style="fill: none;"></line><line transform="translate(230,200)" x2="0" y2="-200" style="fill: none;"></line><line transform="translate(210,200)" x2="0" y2="-200" style="fill: none;"></line><line transform="translate(250,200)" x2="0" y2="-200" style="fill: none;"></line><line transform="translate(290,200)" x2="0" y2="-200" style="fill: none;"></line><line transform="translate(310,200)" x2="0" y2="-200" style="fill: none;"></line><line transform="translate(330,200)" x2="0" y2="-200" style="fill: none;"></line><line transform="translate(270,200)" x2="0" y2="-200" style="fill: none;"></line><line transform="translate(350,200)" x2="0" y2="-200" style="fill: none;"></line><line transform="translate(430,200)" x2="0" y2="-200" style="fill: none;"></line><line transform="translate(370,200)" x2="0" y2="-200" style="fill: none;"></line><line transform="translate(450,200)" x2="0" y2="-200" style="fill: none;"></line><line transform="translate(470,200)" x2="0" y2="-200" style="fill: none;"></line><line transform="translate(410,200)" x2="0" y2="-200" style="fill: none;"></line><line transform="translate(390,200)" x2="0" y2="-200" style="fill: none;"></line><line transform="translate(570,200)" x2="0" y2="-200" style="fill: none;"></line><line transform="translate(510,200)" x2="0" y2="-200" style="fill: none; stroke: #ff0000;"></line><line transform="translate(550,200)" x2="0" y2="-200" style="fill: none;"></line><line transform="translate(590,200)" x2="0" y2="-200" style="fill: none;"></line><line transform="translate(530,200)" x2="0" y2="-200" style="fill: none;"></line><line transform="translate(490,200)" x2="0" y2="-200" style="fill: none;"></line><line transform="translate(610,200)" x2="0" y2="-200" style="fill: none;"></line><line transform="translate(690,200)" x2="0" y2="-200" style="fill: none;"></line><line transform="translate(670,200)" x2="0" y2="-200" style="fill: none;"></line><line transform="translate(630,200)" x2="0" y2="-200" style="fill: none;"></line><line transform="translate(710,200)" x2="0" y2="-200" style="fill: none;"></line><line transform="translate(650,200)" x2="0" y2="-200" style="fill: none;"></line><line transform="translate(730,200)" x2="0" y2="-200" style="fill: none;"></line><line transform="translate(750,200)" x2="0" y2="-200" style="fill: none;"></line><line transform="translate(790,200)" x2="0" y2="-200" style="fill: none;"></line><line transform="translate(770,200)" x2="0" y2="-200" style="fill: none;"></line><line transform="translate(810,200)" x2="0" y2="-200" style="fill: none;"></line><line transform="translate(830,200)" x2="0" y2="-200" style="fill: none;"></line><line transform="translate(850,200)" x2="0" y2="-200" style="fill: none;"></line><line transform="translate(870,200)" x2="0" y2="-200" style="fill: none;"></line><line transform="translate(890,200)" x2="0" y2="-200" style="fill: none;"></line><line transform="translate(910,200)" x2="0" y2="-200" style="fill: none;"></line><line transform="translate(930,200)" x2="0" y2="-200" style="fill: none;"></line><line transform="translate(990,200)" x2="0" y2="-200" style="fill: none;"></line><line transform="translate(970,200)" x2="0" y2="-200" style="fill: none;"></line><line transform="translate(950,200)" x2="0" y2="-200" style="fill: none; stroke: #ff0000;"></line><line transform="translate(1010,200)" x2="0" y2="-200" style="fill: none;"></line><line transform="translate(1030,200)" x2="0" y2="-200" style="fill: none;"></line><line transform="translate(1070,200)" x2="0" y2="-200" style="fill: none;"></line><line transform="translate(1050,200)" x2="0" y2="-200" style="fill: none;"></line><line transform="translate(1090,200)" x2="0" y2="-200" style="fill: none;"></line><line transform="translate(1130,200)" x2="0" y2="-200" style="fill: none;"></line><line transform="translate(1150,200)" x2="0" y2="-200" style="fill: none;"></line><line transform="translate(1170,200)" x2="0" y2="-200" style="fill: none;"></line><line transform="translate(1110,200)" x2="0" y2="-200" style="fill: none;"></line><line transform="translate(1190,200)" x2="0" y2="-200" style="fill: none; stroke: #ff0000;"></line></g></g><path class="foreground" d="" style="display: none; fill: none;"></path></g></g></g></svg>