<svg class="marks" width="427" height="347" viewBox="0 0 427 347" version="1.1" xmlns="http://www.w3.org/2000/svg" xmlns:xlink="http://www.w3.org/1999/xlink"><rect width="427" height="347" style="fill: white;"></rect><g transform="translate(42,10)"><g class="mark-group role-frame root"><g transform="translate(0,0)"><path class="background" d="M0.5,0.5h300v300h-300Z" style="fill: none; stroke: none;"></path><g><g class="mark-group role-axis"><g transform="translate(0.5,300.5)"><path class="background" d="M0,0h0v0h0Z" style="pointer-events: none; fill: none;"></path><g><g class="mark-rule role-axis-grid" style="pointer-events: none;"><line transform="translate(0,-300)" x2="0" y2="300" style="fill: none; stroke: #ddd; stroke-width: 1; opacity: 1;"></line><line transform="translate(30,-300)" x2="0" y2="300" style="fill: none; stroke: #ddd; stroke-width: 1; opacity: 1;"></line><line transform="translate(60,-300)" x2="0" y2="300" style="fill: none; stroke: #ddd; stroke-width: 1; opacity: 1;"></line><line transform="translate(90,-300)" x2="0" y2="300" style="fill: none; stroke: #ddd; stroke-width: 1; opacity: 1;"></line><line transform="translate(120,-300)" x2="0" y2="300" style="fill: none; stroke: #ddd; stroke-width: 1; opacity: 1;"></line><line transform="translate(150,-300)" x2="0" y2="300" style="fill: none; stroke: #ddd; stroke-width: 1; opacity: 1;"></line><line transform="translate(180,-300)" x2="0" y2="300" style="fill: none; stroke: #ddd; stroke-width: 1; opacity: 1;"></line><line transform="translate(210,-300)" x2="0" y2="300" style="fill: none; stroke: #ddd; stroke-width: 1; opacity: 1;"></line><line transform="translate(240,-300)" x2="0" y2="300" style="fill: none; stroke: #ddd; stroke-width: 1; opacity: 1;"></line><line transform="translate(270,-300)" x2="0" y2="300" style="fill: none; stroke: #ddd; stroke-width: 1; opacity: 1;"></line><line transform="translate(300,-300)" x2="0" y2="300" style="fill: none; stroke: #ddd; stroke-width: 1; opacity: 1;"></line></g></g><path class="foreground" d="" style="pointer-events: none; display: none; fill: none;"></path></g></g><g class="mark-group role-axis"><g transform="translate(0.5,0.5)"><path class="background" d="M0,0h0v0h0Z" style="pointer-events: none; fill: none;"></path><g><g class="mark-rule role-axis-grid" style="pointer-events: none;"><line transform="translate(0,300)" x2="300" y2="0" style="fill: none; stroke: #ddd; stroke-width: 1; opacity: 1;"></line><line transform="translate(0,270)" x2="300" y2="0" style="fill: none; stroke: #ddd; stroke-width: 1; opacity: 1;"></line><line transform="translate(0,240)" x2="300" y2="0" style="fill: none; stroke: #ddd; stroke-width: 1; opacity: 1;"></line><line transform="translate(0,210)" x2="300" y2="0" style="fill: none; stroke: #ddd; stroke-width: 1; opacity: 1;"></line><line transform="translate(0,180)" x2="300" y2="0" style="fill: none; stroke: #ddd; stroke-width: 1; opacity: 1;"></line><line transform="translate(0,150)" x2="300" y2="0" style="fill: none; stroke: #ddd; stroke-width: 1; opacity: 1;"></line><line transform="translate(0,120)" x2="300" y2="0" style="fill: none; stroke: #ddd; stroke-width: 1; opacity: 1;"></line><line transform="translate(0,90)" x2="300" y2="0" style="fill: none; stroke: #ddd; stroke-width: 1; opacity: 1;"></line><line transform="translate(0,60)" x2="300" y2="0" style="fill: none; stroke: #ddd; stroke-width: 1; opacity: 1;"></line><line transform="translate(0,30)" x2="300" y2="0" style="fill: none; stroke: #ddd; stroke-width: 1; opacity: 1;"></line><line transform="translate(0,0)" x2="300" y2="0" style="fill: none; stroke: #ddd; stroke-width: 1; opacity: 1;"></line></g></g><path class="foreground" d="" style="pointer-events: none; display: none; fill: none;"></path></g></g><g class="mark-group role-axis"><g transform="translate(0.5,300.5)"><path class="background" d="M0,0h0v0h0Z" style="pointer-events: none; fill: none;"></path><g><g class="mark-rule role-axis-tick" style="pointer-events: none;"><line transform="translate(0,0)" x2="0" y2="5" style="fill: none; stroke: #888; stroke-width: 1; opacity: 1;"></line><line transform="translate(30,0)" x2="0" y2="5" style="fill: none; stroke: #888; stroke-width: 1; opacity: 1;"></line><line transform="translate(60,0)" x2="0" y2="5" style="fill: none; stroke: #888; stroke-width: 1; opacity: 1;"></line><line transform="translate(90,0)" x2="0" y2="5" style="fill: none; stroke: #888; stroke-width: 1; opacity: 1;"></line><line transform="translate(120,0)" x2="0" y2="5" style="fill: none; stroke: #888; stroke-width: 1; opacity: 1;"></line><line transform="translate(150,0)" x2="0" y2="5" style="fill: none; stroke: #888; stroke-width: 1; opacity: 1;"></line><line transform="translate(180,0)" x2="0" y2="5" style="fill: none; stroke: #888; stroke-width: 1; opacity: 1;"></line><line transform="translate(210,0)" x2="0" y2="5" style="fill: none; stroke: #888; stroke-width: 1; opacity: 1;"></line><line transform="translate(240,0)" x2="0" y2="5" style="fill: none; stroke: #888; stroke-width: 1; opacity: 1;"></line><line transform="translate(270,0)" x2="0" y2="5" style="fill: none; stroke: #888; stroke-width: 1; opacity: 1;"></line><line transform="translate(300,0)" x2="0" y2="5" style="fill: none; stroke: #888; stroke-width: 1; opacity: 1;"></line></g><g class="mark-text role-axis-label" style="pointer-events: none;"><text text-anchor="start" transform="translate(0,15)" style="font-family: sans-serif; font-size: 10px; fill: #000; opacity: 1;">0.0</text><text text-anchor="middle" transform="translate(30,15)" style="font-family: sans-serif; font-size: 10px; fill: #000; opacity: 1;">0.1</text><text text-anchor="middle" transform="translate(60,15)" style="font-family: sans-serif; font-size: 10px; fill: #000; opacity: 1;">0.2</text><text text-anchor="middle" transform="translate(90,15)" style="font-family: sans-serif; font-size: 10px; fill: #000; opacity: 1;">0.3</text><text text-anchor="middle" transform="translate(120,15)" style="font-family: sans-serif; font-size: 10px; fill: #000; opacity: 1;">0.4</text><text text-anchor="middle" transform="translate(150,15)" style="font-family: sans-serif; font-size: 10px; fill: #000; opacity: 1;">0.5</text><text text-anchor="middle" transform="translate(180,15)" style="font-family: sans-serif; font-size: 10px; fill: #000; opacity: 1;">0.6</text><text text-anchor="middle" transform="translate(210,15)" style="font-family: sans-serif; font-size: 10px; fill: #000; opacity: 1;">0.7</text><text text-anchor="middle" transform="translate(240,15)" style="font-family: sans-serif; font-size: 10px; fill: #000; opacity: 1;">0.8</text><text text-anchor="middle" transform="translate(270,15)" style="font-family: sans-serif; font-size: 10px; fill: #000; opacity: 1;">0.9</text><text text-anchor="end" transform="translate(300,15)" style="font-family: sans-serif; font-size: 10px; fill: #000; opacity: 1;">1.0</text></g><g class="mark-rule role-axis-domain" style="pointer-events: none;"><line transform="translate(0,0)" x2="300" y2="0" style="fill: none; stroke: #888; stroke-width: 1; opacity: 1;"></line></g><g class="mark-text role-axis-title" style="pointer-events: none;"><text text-anchor="middle" transform="translate(150,30)" style="font-family: sans-serif; font-size: 11px; font-weight: bold; fill: #000; opacity: 1;">PAT score</text></g></g><path class="foreground" d="" style="pointer-events: none; display: none; fill: none;"></path></g></g><g class="mark-group role-axis"><g transform="translate(0.5,0.5)"><path class="background" d="M0,0h0v0h0Z" style="pointer-events: none; fill: none;"></path><g><g class="mark-rule role-axis-tick" style="pointer-events: none;"><line transform="translate(0,300)" x2="-5" y2="0" style="fill: none; stroke: #888; stroke-width: 1; opacity: 1;"></line><line transform="translate(0,270)" x2="-5" y2="0" style="fill: none; stroke: #888; stroke-width: 1; opacity: 1;"></line><line transform="translate(0,240)" x2="-5" y2="0" style="fill: none; stroke: #888; stroke-width: 1; opacity: 1;"></line><line transform="translate(0,210)" x2="-5" y2="0" style="fill: none; stroke: #888; stroke-width: 1; opacity: 1;"></line><line transform="translate(0,180)" x2="-5" y2="0" style="fill: none; stroke: #888; stroke-width: 1; opacity: 1;"></line><line transform="translate(0,150)" x2="-5" y2="0" style="fill: none; stroke: #888; stroke-width: 1; opacity: 1;"></line><line transform="translate(0,120)" x2="-5" y2="0" style="fill: none; stroke: #888; stroke-width: 1; opacity: 1;"></line><line transform="translate(0,90)" x2="-5" y2="0" style="fill: none; stroke: #888; stroke-width: 1; opacity: 1;"></line><line transform="translate(0,60)" x2="-5" y2="0" style="fill: none; stroke: #888; stroke-width: 1; opacity: 1;"></line><line transform="translate(0,30)" x2="-5" y2="0" style="fill: none; stroke: #888; stroke-width: 1; opacity: 1;"></line><line transform="translate(0,0)" x2="-5" y2="0" style="fill: none; stroke: #888; stroke-width: 1; opacity: 1;"></line></g><g class="mark-text role-axis-label" style="pointer-events: none;"><text text-anchor="end" transform="translate(-7,303)" style="font-family: sans-serif; font-size: 10px; fill: #000; opacity: 1;">0.0</text><text text-anchor="end" transform="translate(-7,273)" style="font-family: sans-serif; font-size: 10px; fill: #000; opacity: 1;">0.1</text><text text-anchor="end" transform="translate(-7,243)" style="font-family: sans-serif; font-size: 10px; fill: #000; opacity: 1;">0.2</text><text text-anchor="end" transform="translate(-7,213)" style="font-family: sans-serif; font-size: 10px; fill: #000; opacity: 1;">0.3</text><text text-anchor="end" transform="translate(-7,183)" style="font-family: sans-serif; font-size: 10px; fill: #000; opacity: 1;">0.4</text><text text-anchor="end" transform="translate(-7,153)" style="font-family: sans-serif; font-size: 10px; fill: #000; opacity: 1;">0.5</text><text text-anchor="end" transform="translate(-7,123)" style="font-family: sans-serif; font-size: 10px; fill: #000; opacity: 1;">0.6</text><text text-anchor="end" transform="translate(-7,93.00000000000001)" style="font-family: sans-serif; font-size: 10px; fill: #000; opacity: 1;">0.7</text><text text-anchor="end" transform="translate(-7,62.999999999999986)" style="font-family: sans-serif; font-size: 10px; fill: #000; opacity: 1;">0.8</text><text text-anchor="end" transform="translate(-7,32.99999999999999)" style="font-family: sans-serif; font-size: 10px; fill: #000; opacity: 1;">0.9</text><text text-anchor="end" transform="translate(-7,3)" style="font-family: sans-serif; font-size: 10px; fill: #000; opacity: 1;">1.0</text></g><g class="mark-rule role-axis-domain" style="pointer-events: none;"><line transform="translate(0,300)" x2="0" y2="-300" style="fill: none; stroke: #888; stroke-width: 1; opacity: 1;"></line></g><g class="mark-text role-axis-title" style="pointer-events: none;"><text text-anchor="middle" transform="translate(-25.1357421875,150) rotate(-90) translate(0,-2)" style="font-family: sans-serif; font-size: 11px; font-weight: bold; fill: #000; opacity: 1;">O score</text></g></g><path class="foreground" d="" style="pointer-events: none; display: none; fill: none;"></path></g></g><g class="mark-symbol role-mark marks"><path transform="translate(266.86893203883494,145.6773769086378)" d="M5,0A5,5,0,1,1,-5,0A5,5,0,1,1,5,0" style="fill: none; stroke: #ff0000; stroke-width: 2; opacity: 0.7;"></path><path transform="translate(250.02712967986977,155.37802330152957)" d="M5,0A5,5,0,1,1,-5,0A5,5,0,1,1,5,0" style="fill: none; stroke: #ff0000; stroke-width: 2; opacity: 0.7;"></path><path transform="translate(294.7596228165095,118.54851042039324)" d="M5,0A5,5,0,1,1,-5,0A5,5,0,1,1,5,0" style="fill: none; stroke: #ff0000; stroke-width: 2; opacity: 0.7;"></path><path transform="translate(275.02351834430857,120.89629968826279)" d="M5,0A5,5,0,1,1,-5,0A5,5,0,1,1,5,0" style="fill: none; stroke: #ff0000; stroke-width: 2; opacity: 0.7;"></path><path transform="translate(288.176563321072,114.42564852389332)" d="M5,0A5,5,0,1,1,-5,0A5,5,0,1,1,5,0" style="fill: none; stroke: #ff0000; stroke-width: 2; opacity: 0.7;"></path><path transform="translate(293.6060279870829,67.68296503007561)" d="M5,0A5,5,0,1,1,-5,0A5,5,0,1,1,5,0" style="fill: none; stroke: #ff0000; stroke-width: 2; opacity: 0.7;"></path><path transform="translate(289.80206540447506,58.045154026955196)" d="M5,0A5,5,0,1,1,-5,0A5,5,0,1,1,5,0" style="fill: none; stroke: #ff0000; stroke-width: 2; opacity: 0.7;"></path><path transform="translate(295.36082474226805,87.44916341861133)" d="M5,0A5,5,0,1,1,-5,0A5,5,0,1,1,5,0" style="fill: none; stroke: #ff0000; stroke-width: 2; opacity: 0.7;"></path><path transform="translate(300,18.12934074365432)" d="M5,0A5,5,0,1,1,-5,0A5,5,0,1,1,5,0" style="fill: none; stroke: #ff0000; stroke-width: 2; opacity: 0.7;"></path><path transform="translate(300,42.66163889136442)" d="M5,0A5,5,0,1,1,-5,0A5,5,0,1,1,5,0" style="fill: none; stroke: #ff0000; stroke-width: 2; opacity: 0.7;"></path><path transform="translate(250.9003984063745,149.04795169043996)" d="M5,0A5,5,0,1,1,-5,0A5,5,0,1,1,5,0" style="fill: none; stroke: #ff0000; stroke-width: 2; opacity: 0.7;"></path><path transform="translate(214.50682852807284,120.98507046816258)" d="M5,0A5,5,0,1,1,-5,0A5,5,0,1,1,5,0" style="fill: none; stroke: #ff0000; stroke-width: 2; opacity: 0.7;"></path><path transform="translate(298.47118776950214,102.80053819733939)" d="M5,0A5,5,0,1,1,-5,0A5,5,0,1,1,5,0" style="fill: none; stroke: #ff0000; stroke-width: 2; opacity: 0.7;"></path><path transform="translate(294.8170731707317,78.6015085623279)" d="M5,0A5,5,0,1,1,-5,0A5,5,0,1,1,5,0" style="fill: none; stroke: #ff0000; stroke-width: 2; opacity: 0.7;"></path><path transform="translate(298.71244635193136,100.65680493736521)" d="M5,0A5,5,0,1,1,-5,0A5,5,0,1,1,5,0" style="fill: none; stroke: #ff0000; stroke-width: 2; opacity: 0.7;"></path><path transform="translate(283.31856446610544,49.00662251655628)" d="M5,0A5,5,0,1,1,-5,0A5,5,0,1,1,5,0" style="fill: none; stroke: #ff0000; stroke-width: 2; opacity: 0.7;"></path><path transform="translate(282.00297471492314,29.191176470588232)" d="M5,0A5,5,0,1,1,-5,0A5,5,0,1,1,5,0" style="fill: none; stroke: #ff0000; stroke-width: 2; opacity: 0.7;"></path><path transform="translate(262.2149837133551,29.820132533922383)" d="M5,0A5,5,0,1,1,-5,0A5,5,0,1,1,5,0" style="fill: none; stroke: #ff0000; stroke-width: 2; opacity: 0.7;"></path><path transform="translate(297.2087613878659,21.022258862324804)" d="M5,0A5,5,0,1,1,-5,0A5,5,0,1,1,5,0" style="fill: none; stroke: #ff0000; stroke-width: 2; opacity: 0.7;"></path><path transform="translate(294.64740866610026,101.58048877265445)" d="M5,0A5,5,0,1,1,-5,0A5,5,0,1,1,5,0" style="fill: none; stroke: #ff0000; stroke-width: 2; opacity: 0.7;"></path><path transform="translate(275.2336448598131,53.70181755629625)" d="M5,0A5,5,0,1,1,-5,0A5,5,0,1,1,5,0" style="fill: none; stroke: #ff0000; stroke-width: 2; opacity: 0.7;"></path><path transform="translate(288.75,42.75647286994223)" d="M5,0A5,5,0,1,1,-5,0A5,5,0,1,1,5,0" style="fill: none; stroke: #ff0000; stroke-width: 2; opacity: 0.7;"></path><path transform="translate(282.2550831792976,69.97946088503365)" d="M5,0A5,5,0,1,1,-5,0A5,5,0,1,1,5,0" style="fill: none; stroke: #ff0000; stroke-width: 2; opacity: 0.7;"></path><path transform="translate(287.39162427969103,139.0236943104906)" d="M5,0A5,5,0,1,1,-5,0A5,5,0,1,1,5,0" style="fill: none; stroke: #ff0000; stroke-width: 2; opacity: 0.7;"></path><path transform="translate(288.64577173270254,50.381757793977755)" d="M5,0A5,5,0,1,1,-5,0A5,5,0,1,1,5,0" style="fill: none; stroke: #ff0000; stroke-width: 2; opacity: 0.7;"></path><path transform="translate(281.4454295416481,20.6896551724138)" d="M5,0A5,5,0,1,1,-5,0A5,5,0,1,1,5,0" style="fill: none; stroke: #ff0000; stroke-width: 2; opacity: 0.7;"></path><path transform="translate(295.47230901265766,18.871848193397444)" d="M5,0A5,5,0,1,1,-5,0A5,5,0,1,1,5,0" style="fill: none; stroke: #ff0000; stroke-width: 2; opacity: 0.7;"></path><path transform="translate(295.26746479481625,68.34780926491116)" d="M5,0A5,5,0,1,1,-5,0A5,5,0,1,1,5,0" style="fill: none; stroke: #ff0000; stroke-width: 2; opacity: 0.7;"></path><path transform="translate(296.53713237188254,19.660780499766418)" d="M5,0A5,5,0,1,1,-5,0A5,5,0,1,1,5,0" style="fill: none; stroke: #ff0000; stroke-width: 2; opacity: 0.7;"></path><path transform="translate(276.3197302850048,99.50856122642566)" d="M5,0A5,5,0,1,1,-5,0A5,5,0,1,1,5,0" style="fill: none; stroke: #ff0000; stroke-width: 2; opacity: 0.7;"></path><path transform="translate(281.01785799923266,6.217616580310869)" d="M5,0A5,5,0,1,1,-5,0A5,5,0,1,1,5,0" style="fill: none; stroke: #ff0000; stroke-width: 2; opacity: 0.7;"></path><path transform="translate(265.22766910399554,78.94624105089952)" d="M5,0A5,5,0,1,1,-5,0A5,5,0,1,1,5,0" style="fill: none; stroke: #ff0000; stroke-width: 2; opacity: 0.7;"></path><path transform="translate(265.5163403611094,117.36641221374045)" d="M5,0A5,5,0,1,1,-5,0A5,5,0,1,1,5,0" style="fill: none; stroke: #ff0000; stroke-width: 2; opacity: 0.7;"></path><path transform="translate(262.9803151463229,72.87683848671223)" d="M5,0A5,5,0,1,1,-5,0A5,5,0,1,1,5,0" style="fill: none; stroke: #ff0000; stroke-width: 2; opacity: 0.7;"></path><path transform="translate(291.036047405837,73.60182533475404)" d="M5,0A5,5,0,1,1,-5,0A5,5,0,1,1,5,0" style="fill: none; stroke: #ff0000; stroke-width: 2; opacity: 0.7;"></path><path transform="translate(236.35895800106326,127.05099778270508)" d="M5,0A5,5,0,1,1,-5,0A5,5,0,1,1,5,0" style="fill: none; stroke: #ff0000; stroke-width: 2; opacity: 0.7;"></path><path transform="translate(294.16863804934997,154.87812272617026)" d="M5,0A5,5,0,1,1,-5,0A5,5,0,1,1,5,0" style="fill: none; stroke: #ff0000; stroke-width: 2; opacity: 0.7;"></path><path transform="translate(291.5238854931509,62.397138728734035)" d="M5,0A5,5,0,1,1,-5,0A5,5,0,1,1,5,0" style="fill: none; stroke: #ff0000; stroke-width: 2; opacity: 0.7;"></path><path transform="translate(293.5301354726307,111.43244392811117)" d="M5,0A5,5,0,1,1,-5,0A5,5,0,1,1,5,0" style="fill: none; stroke: #ff0000; stroke-width: 2; opacity: 0.7;"></path><path transform="translate(256.10162589761745,64.45526308006073)" d="M5,0A5,5,0,1,1,-5,0A5,5,0,1,1,5,0" style="fill: none; stroke: #ff0000; stroke-width: 2; opacity: 0.7;"></path><path transform="translate(289.1222418088312,119.32658395038453)" d="M5,0A5,5,0,1,1,-5,0A5,5,0,1,1,5,0" style="fill: none; stroke: #ff0000; stroke-width: 2; opacity: 0.7;"></path><path transform="translate(270.9328204233512,65.54403581930023)" d="M5,0A5,5,0,1,1,-5,0A5,5,0,1,1,5,0" style="fill: none; stroke: #ff0000; stroke-width: 2; opacity: 0.7;"></path><path transform="translate(278.0273003816177,50.016063670886524)" d="M5,0A5,5,0,1,1,-5,0A5,5,0,1,1,5,0" style="fill: none; stroke: #ff0000; stroke-width: 2; opacity: 0.7;"></path><path transform="translate(272.1424980025625,88.03587873233936)" d="M5,0A5,5,0,1,1,-5,0A5,5,0,1,1,5,0" style="fill: none; stroke: #ff0000; stroke-width: 2; opacity: 0.7;"></path><path transform="translate(253.15322236547235,73.65829185838749)" d="M5,0A5,5,0,1,1,-5,0A5,5,0,1,1,5,0" style="fill: none; stroke: #ff0000; stroke-width: 2; opacity: 0.7;"></path><path transform="translate(273.8133525390953,78.13832709724817)" d="M5,0A5,5,0,1,1,-5,0A5,5,0,1,1,5,0" style="fill: none; stroke: #ff0000; stroke-width: 2; opacity: 0.7;"></path><path transform="translate(224.6299839540137,158.5443835505388)" d="M5,0A5,5,0,1,1,-5,0A5,5,0,1,1,5,0" style="fill: none; stroke: #ff0000; stroke-width: 2; opacity: 0.7;"></path><path transform="translate(263.2224142105831,119.65484180249281)" d="M5,0A5,5,0,1,1,-5,0A5,5,0,1,1,5,0" style="fill: none; stroke: #ff0000; stroke-width: 2; opacity: 0.7;"></path><path transform="translate(263.34238815785136,36.33203952011289)" d="M5,0A5,5,0,1,1,-5,0A5,5,0,1,1,5,0" style="fill: none; stroke: #ff0000; stroke-width: 2; opacity: 0.7;"></path><path transform="translate(265.3616040507297,39.179104477611936)" d="M5,0A5,5,0,1,1,-5,0A5,5,0,1,1,5,0" style="fill: none; stroke: #ff0000; stroke-width: 2; opacity: 0.7;"></path><path transform="translate(273.6234443951357,41.802136553646065)" d="M5,0A5,5,0,1,1,-5,0A5,5,0,1,1,5,0" style="fill: none; stroke: #ff0000; stroke-width: 2; opacity: 0.7;"></path><path transform="translate(237.01028845068038,169.92580774595868)" d="M5,0A5,5,0,1,1,-5,0A5,5,0,1,1,5,0" style="fill: none; stroke: #ff0000; stroke-width: 2; opacity: 0.7;"></path><path transform="translate(281.56739756834634,22.76119402985075)" d="M5,0A5,5,0,1,1,-5,0A5,5,0,1,1,5,0" style="fill: none; stroke: #ff0000; stroke-width: 2; opacity: 0.7;"></path><path transform="translate(248.44856002362644,43.38153503893215)" d="M5,0A5,5,0,1,1,-5,0A5,5,0,1,1,5,0" style="fill: none; stroke: #ff0000; stroke-width: 2; opacity: 0.7;"></path><path transform="translate(229.12608192777478,95.59992635114469)" d="M5,0A5,5,0,1,1,-5,0A5,5,0,1,1,5,0" style="fill: none; stroke: #ff0000; stroke-width: 2; opacity: 0.7;"></path><path transform="translate(265.3501195077477,137.62742996241465)" d="M5,0A5,5,0,1,1,-5,0A5,5,0,1,1,5,0" style="fill: none; stroke: #ff0000; stroke-width: 2; opacity: 0.7;"></path><path transform="translate(270.49616495223825,27.541833375010405)" d="M5,0A5,5,0,1,1,-5,0A5,5,0,1,1,5,0" style="fill: none; stroke: #ff0000; stroke-width: 2; opacity: 0.7;"></path><path transform="translate(236.61622597980633,168.7938724155415)" d="M5,0A5,5,0,1,1,-5,0A5,5,0,1,1,5,0" style="fill: none; stroke: #ff0000; stroke-width: 2; opacity: 0.7;"></path><path transform="translate(221.01409407417992,73.27428662914777)" d="M5,0A5,5,0,1,1,-5,0A5,5,0,1,1,5,0" style="fill: none; stroke: #ff0000; stroke-width: 2; opacity: 0.7;"></path><path transform="translate(245.54807303601874,102.61384395832144)" d="M5,0A5,5,0,1,1,-5,0A5,5,0,1,1,5,0" style="fill: none; stroke: #ff0000; stroke-width: 2; opacity: 0.7;"></path><path transform="translate(225.3012048192771,94.30478309232481)" d="M0,-5.773502691896256L-5,2.8867513459481287L5,2.8867513459481287Z" style="fill: none; stroke: green; stroke-width: 2; opacity: 0.7;"></path><path transform="translate(280.49426301853487,56.87885010266941)" d="M0,-5.773502691896256L-5,2.8867513459481287L5,2.8867513459481287Z" style="fill: none; stroke: green; stroke-width: 2; opacity: 0.7;"></path><path transform="translate(287.8743340069814,12.258420762009937)" d="M0,-5.773502691896256L-5,2.8867513459481287L5,2.8867513459481287Z" style="fill: none; stroke: green; stroke-width: 2; opacity: 0.7;"></path><path transform="translate(275.02351834430857,120.89629968826279)" d="M0,-5.773502691896256L-5,2.8867513459481287L5,2.8867513459481287Z" style="fill: none; stroke: green; stroke-width: 2; opacity: 0.7;"></path><path transform="translate(266.86893203883494,145.6773769086378)" d="M0,-5.773502691896256L-5,2.8867513459481287L5,2.8867513459481287Z" style="fill: none; stroke: green; stroke-width: 2; opacity: 0.7;"></path><path transform="translate(273.37986041874376,43.005952380952394)" d="M0,-5.773502691896256L-5,2.8867513459481287L5,2.8867513459481287Z" style="fill: none; stroke: green; stroke-width: 2; opacity: 0.7;"></path><path transform="translate(287.7350776778414,23.22541725316709)" d="M0,-5.773502691896256L-5,2.8867513459481287L5,2.8867513459481287Z" style="fill: none; stroke: green; stroke-width: 2; opacity: 0.7;"></path><path transform="translate(300,42.23860395686662)" d="M0,-5.773502691896256L-5,2.8867513459481287L5,2.8867513459481287Z" style="fill: none; stroke: green; stroke-width: 2; opacity: 0.7;"></path><path transform="translate(300,17.99847348631176)" d="M0,-5.773502691896256L-5,2.8867513459481287L5,2.8867513459481287Z" style="fill: none; stroke: green; stroke-width: 2; opacity: 0.7;"></path><path transform="translate(212.41806908768822,109.00808600000046)" d="M0,-5.773502691896256L-5,2.8867513459481287L5,2.8867513459481287Z" style="fill: none; stroke: green; stroke-width: 2; opacity: 0.7;"></path><path transform="translate(288.2530120481928,52.44541971381026)" d="M0,-5.773502691896256L-5,2.8867513459481287L5,2.8867513459481287Z" style="fill: none; stroke: green; stroke-width: 2; opacity: 0.7;"></path><path transform="translate(214.50682852807284,120.98507046816258)" d="M0,-5.773502691896256L-5,2.8867513459481287L5,2.8867513459481287Z" style="fill: none; stroke: green; stroke-width: 2; opacity: 0.7;"></path><path transform="translate(296.6108297623685,2.8005381973394528)" d="M0,-5.773502691896256L-5,2.8867513459481287L5,2.8867513459481287Z" style="fill: none; stroke: green; stroke-width: 2; opacity: 0.7;"></path><path transform="translate(295.99109131403117,8.750000000000002)" d="M0,-5.773502691896256L-5,2.8867513459481287L5,2.8867513459481287Z" style="fill: none; stroke: green; stroke-width: 2; opacity: 0.7;"></path><path transform="translate(282.00297471492314,29.191176470588232)" d="M0,-5.773502691896256L-5,2.8867513459481287L5,2.8867513459481287Z" style="fill: none; stroke: green; stroke-width: 2; opacity: 0.7;"></path><path transform="translate(287.6074025115664,22.737667428944786)" d="M0,-5.773502691896256L-5,2.8867513459481287L5,2.8867513459481287Z" style="fill: none; stroke: green; stroke-width: 2; opacity: 0.7;"></path><path transform="translate(297.2087613878659,21.022258862324804)" d="M0,-5.773502691896256L-5,2.8867513459481287L5,2.8867513459481287Z" style="fill: none; stroke: green; stroke-width: 2; opacity: 0.7;"></path><path transform="translate(283.31856446610544,49.00662251655628)" d="M0,-5.773502691896256L-5,2.8867513459481287L5,2.8867513459481287Z" style="fill: none; stroke: green; stroke-width: 2; opacity: 0.7;"></path><path transform="translate(262.2149837133551,29.820132533922383)" d="M0,-5.773502691896256L-5,2.8867513459481287L5,2.8867513459481287Z" style="fill: none; stroke: green; stroke-width: 2; opacity: 0.7;"></path><path transform="translate(288.75,42.75647286994223)" d="M0,-5.773502691896256L-5,2.8867513459481287L5,2.8867513459481287Z" style="fill: none; stroke: green; stroke-width: 2; opacity: 0.7;"></path><path transform="translate(294.64740866610026,101.58048877265445)" d="M0,-5.773502691896256L-5,2.8867513459481287L5,2.8867513459481287Z" style="fill: none; stroke: green; stroke-width: 2; opacity: 0.7;"></path><path transform="translate(275.2336448598131,53.70181755629625)" d="M0,-5.773502691896256L-5,2.8867513459481287L5,2.8867513459481287Z" style="fill: none; stroke: green; stroke-width: 2; opacity: 0.7;"></path><path transform="translate(282.2550831792976,69.97946088503365)" d="M0,-5.773502691896256L-5,2.8867513459481287L5,2.8867513459481287Z" style="fill: none; stroke: green; stroke-width: 2; opacity: 0.7;"></path><path transform="translate(287.0949720670391,41.46410173125757)" d="M0,-5.773502691896256L-5,2.8867513459481287L5,2.8867513459481287Z" style="fill: none; stroke: green; stroke-width: 2; opacity: 0.7;"></path><path transform="translate(281.4454295416481,20.6896551724138)" d="M0,-5.773502691896256L-5,2.8867513459481287L5,2.8867513459481287Z" style="fill: none; stroke: green; stroke-width: 2; opacity: 0.7;"></path><path transform="translate(295.47230901265766,18.871848193397444)" d="M0,-5.773502691896256L-5,2.8867513459481287L5,2.8867513459481287Z" style="fill: none; stroke: green; stroke-width: 2; opacity: 0.7;"></path><path transform="translate(269.2970237240147,70.31708601874156)" d="M0,-5.773502691896256L-5,2.8867513459481287L5,2.8867513459481287Z" style="fill: none; stroke: green; stroke-width: 2; opacity: 0.7;"></path><path transform="translate(296.2406412262204,5.5003378990918)" d="M0,-5.773502691896256L-5,2.8867513459481287L5,2.8867513459481287Z" style="fill: none; stroke: green; stroke-width: 2; opacity: 0.7;"></path><path transform="translate(292.7367927126751,17.666368123257868)" d="M0,-5.773502691896256L-5,2.8867513459481287L5,2.8867513459481287Z" style="fill: none; stroke: green; stroke-width: 2; opacity: 0.7;"></path><path transform="translate(273.79518551450485,77.6013350684403)" d="M0,-5.773502691896256L-5,2.8867513459481287L5,2.8867513459481287Z" style="fill: none; stroke: green; stroke-width: 2; opacity: 0.7;"></path><path transform="translate(281.01785799923266,6.217616580310869)" d="M0,-5.773502691896256L-5,2.8867513459481287L5,2.8867513459481287Z" style="fill: none; stroke: green; stroke-width: 2; opacity: 0.7;"></path><path transform="translate(291.036047405837,73.60182533475404)" d="M0,-5.773502691896256L-5,2.8867513459481287L5,2.8867513459481287Z" style="fill: none; stroke: green; stroke-width: 2; opacity: 0.7;"></path><path transform="translate(265.22766910399554,78.94624105089952)" d="M0,-5.773502691896256L-5,2.8867513459481287L5,2.8867513459481287Z" style="fill: none; stroke: green; stroke-width: 2; opacity: 0.7;"></path><path transform="translate(286.58242660242075,13.854605100272355)" d="M0,-5.773502691896256L-5,2.8867513459481287L5,2.8867513459481287Z" style="fill: none; stroke: green; stroke-width: 2; opacity: 0.7;"></path><path transform="translate(265.5163403611094,117.36641221374045)" d="M0,-5.773502691896256L-5,2.8867513459481287L5,2.8867513459481287Z" style="fill: none; stroke: green; stroke-width: 2; opacity: 0.7;"></path><path transform="translate(262.9803151463229,72.87683848671223)" d="M0,-5.773502691896256L-5,2.8867513459481287L5,2.8867513459481287Z" style="fill: none; stroke: green; stroke-width: 2; opacity: 0.7;"></path><path transform="translate(293.2104364568015,11.426166150078442)" d="M0,-5.773502691896256L-5,2.8867513459481287L5,2.8867513459481287Z" style="fill: none; stroke: green; stroke-width: 2; opacity: 0.7;"></path><path transform="translate(287.12158953688606,23.010933557611413)" d="M0,-5.773502691896256L-5,2.8867513459481287L5,2.8867513459481287Z" style="fill: none; stroke: green; stroke-width: 2; opacity: 0.7;"></path><path transform="translate(291.46900103981494,57.78560997982352)" d="M0,-5.773502691896256L-5,2.8867513459481287L5,2.8867513459481287Z" style="fill: none; stroke: green; stroke-width: 2; opacity: 0.7;"></path><path transform="translate(236.35895800106326,127.05099778270508)" d="M0,-5.773502691896256L-5,2.8867513459481287L5,2.8867513459481287Z" style="fill: none; stroke: green; stroke-width: 2; opacity: 0.7;"></path><path transform="translate(251.55906625895568,45.55362945817129)" d="M0,-5.773502691896256L-5,2.8867513459481287L5,2.8867513459481287Z" style="fill: none; stroke: green; stroke-width: 2; opacity: 0.7;"></path><path transform="translate(276.8787763132192,35.546917436811206)" d="M0,-5.773502691896256L-5,2.8867513459481287L5,2.8867513459481287Z" style="fill: none; stroke: green; stroke-width: 2; opacity: 0.7;"></path><path transform="translate(273.8133525390953,78.13832709724817)" d="M0,-5.773502691896256L-5,2.8867513459481287L5,2.8867513459481287Z" style="fill: none; stroke: green; stroke-width: 2; opacity: 0.7;"></path><path transform="translate(272.1424980025625,88.03587873233936)" d="M0,-5.773502691896256L-5,2.8867513459481287L5,2.8867513459481287Z" style="fill: none; stroke: green; stroke-width: 2; opacity: 0.7;"></path><path transform="translate(267.86452036775944,32.21140830307904)" d="M0,-5.773502691896256L-5,2.8867513459481287L5,2.8867513459481287Z" style="fill: none; stroke: green; stroke-width: 2; opacity: 0.7;"></path><path transform="translate(251.35136925941384,50.42630937880632)" d="M0,-5.773502691896256L-5,2.8867513459481287L5,2.8867513459481287Z" style="fill: none; stroke: green; stroke-width: 2; opacity: 0.7;"></path><path transform="translate(265.3616040507297,39.179104477611936)" d="M0,-5.773502691896256L-5,2.8867513459481287L5,2.8867513459481287Z" style="fill: none; stroke: green; stroke-width: 2; opacity: 0.7;"></path><path transform="translate(263.2224142105831,119.65484180249281)" d="M0,-5.773502691896256L-5,2.8867513459481287L5,2.8867513459481287Z" style="fill: none; stroke: green; stroke-width: 2; opacity: 0.7;"></path><path transform="translate(273.6234443951357,41.802136553646065)" d="M0,-5.773502691896256L-5,2.8867513459481287L5,2.8867513459481287Z" style="fill: none; stroke: green; stroke-width: 2; opacity: 0.7;"></path><path transform="translate(219.38725249727992,84.23466446880849)" d="M0,-5.773502691896256L-5,2.8867513459481287L5,2.8867513459481287Z" style="fill: none; stroke: green; stroke-width: 2; opacity: 0.7;"></path><path transform="translate(231.7635094784178,31.441048034934504)" d="M0,-5.773502691896256L-5,2.8867513459481287L5,2.8867513459481287Z" style="fill: none; stroke: green; stroke-width: 2; opacity: 0.7;"></path><path transform="translate(263.34238815785136,36.33203952011289)" d="M0,-5.773502691896256L-5,2.8867513459481287L5,2.8867513459481287Z" style="fill: none; stroke: green; stroke-width: 2; opacity: 0.7;"></path><path transform="translate(281.56739756834634,22.76119402985075)" d="M0,-5.773502691896256L-5,2.8867513459481287L5,2.8867513459481287Z" style="fill: none; stroke: green; stroke-width: 2; opacity: 0.7;"></path><path transform="translate(249.9367099604429,57.60755508919204)" d="M0,-5.773502691896256L-5,2.8867513459481287L5,2.8867513459481287Z" style="fill: none; stroke: green; stroke-width: 2; opacity: 0.7;"></path><path transform="translate(229.12608192777478,95.59992635114469)" d="M0,-5.773502691896256L-5,2.8867513459481287L5,2.8867513459481287Z" style="fill: none; stroke: green; stroke-width: 2; opacity: 0.7;"></path><path transform="translate(270.49616495223825,27.541833375010405)" d="M0,-5.773502691896256L-5,2.8867513459481287L5,2.8867513459481287Z" style="fill: none; stroke: green; stroke-width: 2; opacity: 0.7;"></path><path transform="translate(248.44856002362644,43.38153503893215)" d="M0,-5.773502691896256L-5,2.8867513459481287L5,2.8867513459481287Z" style="fill: none; stroke: green; stroke-width: 2; opacity: 0.7;"></path><path transform="translate(221.01409407417992,73.27428662914777)" d="M0,-5.773502691896256L-5,2.8867513459481287L5,2.8867513459481287Z" style="fill: none; stroke: green; stroke-width: 2; opacity: 0.7;"></path><path transform="translate(245.54807303601874,102.61384395832144)" d="M0,-5.773502691896256L-5,2.8867513459481287L5,2.8867513459481287Z" style="fill: none; stroke: green; stroke-width: 2; opacity: 0.7;"></path><path transform="translate(218.91366479601777,99.61119751166409)" d="M0,-5.773502691896256L-5,2.8867513459481287L5,2.8867513459481287Z" style="fill: none; stroke: green; stroke-width: 2; opacity: 0.7;"></path><path transform="translate(266.86893203883494,145.6773769086378)" d="M-5,-5h10v10h-10Z" style="fill: none; stroke: blue; stroke-width: 2; opacity: 0.7;"></path><path transform="translate(245.73268921095007,128.7673192934161)" d="M-5,-5h10v10h-10Z" style="fill: none; stroke: blue; stroke-width: 2; opacity: 0.7;"></path><path transform="translate(276.65934065934067,64.09807355516638)" d="M-5,-5h10v10h-10Z" style="fill: none; stroke: blue; stroke-width: 2; opacity: 0.7;"></path><path transform="translate(270.3723691311387,93.9879100006636)" d="M-5,-5h10v10h-10Z" style="fill: none; stroke: blue; stroke-width: 2; opacity: 0.7;"></path><path transform="translate(288.9582033686837,30.89285714285713)" d="M-5,-5h10v10h-10Z" style="fill: none; stroke: blue; stroke-width: 2; opacity: 0.7;"></path><path transform="translate(275.02351834430857,120.89629968826279)" d="M-5,-5h10v10h-10Z" style="fill: none; stroke: blue; stroke-width: 2; opacity: 0.7;"></path><path transform="translate(287.8743340069814,12.258420762009937)" d="M-5,-5h10v10h-10Z" style="fill: none; stroke: blue; stroke-width: 2; opacity: 0.7;"></path><path transform="translate(288.2530120481928,52.44541971381026)" d="M-5,-5h10v10h-10Z" style="fill: none; stroke: blue; stroke-width: 2; opacity: 0.7;"></path><path transform="translate(300,17.99847348631176)" d="M-5,-5h10v10h-10Z" style="fill: none; stroke: blue; stroke-width: 2; opacity: 0.7;"></path><path transform="translate(300,42.23860395686662)" d="M-5,-5h10v10h-10Z" style="fill: none; stroke: blue; stroke-width: 2; opacity: 0.7;"></path><path transform="translate(212.41806908768822,109.00808600000046)" d="M-5,-5h10v10h-10Z" style="fill: none; stroke: blue; stroke-width: 2; opacity: 0.7;"></path><path transform="translate(214.50682852807284,120.98507046816258)" d="M-5,-5h10v10h-10Z" style="fill: none; stroke: blue; stroke-width: 2; opacity: 0.7;"></path><path transform="translate(298.11838494707956,49.31680590374344)" d="M-5,-5h10v10h-10Z" style="fill: none; stroke: blue; stroke-width: 2; opacity: 0.7;"></path><path transform="translate(295.99109131403117,8.750000000000002)" d="M-5,-5h10v10h-10Z" style="fill: none; stroke: blue; stroke-width: 2; opacity: 0.7;"></path><path transform="translate(294.8170731707317,78.6015085623279)" d="M-5,-5h10v10h-10Z" style="fill: none; stroke: blue; stroke-width: 2; opacity: 0.7;"></path><path transform="translate(262.2149837133551,29.820132533922383)" d="M-5,-5h10v10h-10Z" style="fill: none; stroke: blue; stroke-width: 2; opacity: 0.7;"></path><path transform="translate(282.00297471492314,29.191176470588232)" d="M-5,-5h10v10h-10Z" style="fill: none; stroke: blue; stroke-width: 2; opacity: 0.7;"></path><path transform="translate(283.31856446610544,49.00662251655628)" d="M-5,-5h10v10h-10Z" style="fill: none; stroke: blue; stroke-width: 2; opacity: 0.7;"></path><path transform="translate(294.64740866610026,101.58048877265445)" d="M-5,-5h10v10h-10Z" style="fill: none; stroke: blue; stroke-width: 2; opacity: 0.7;"></path><path transform="translate(288.75,42.75647286994223)" d="M-5,-5h10v10h-10Z" style="fill: none; stroke: blue; stroke-width: 2; opacity: 0.7;"></path><path transform="translate(297.2087613878659,21.022258862324804)" d="M-5,-5h10v10h-10Z" style="fill: none; stroke: blue; stroke-width: 2; opacity: 0.7;"></path><path transform="translate(275.2336448598131,53.70181755629625)" d="M-5,-5h10v10h-10Z" style="fill: none; stroke: blue; stroke-width: 2; opacity: 0.7;"></path><path transform="translate(282.2550831792976,69.97946088503365)" d="M-5,-5h10v10h-10Z" style="fill: none; stroke: blue; stroke-width: 2; opacity: 0.7;"></path><path transform="translate(287.0949720670391,41.46410173125757)" d="M-5,-5h10v10h-10Z" style="fill: none; stroke: blue; stroke-width: 2; opacity: 0.7;"></path><path transform="translate(281.4454295416481,20.6896551724138)" d="M-5,-5h10v10h-10Z" style="fill: none; stroke: blue; stroke-width: 2; opacity: 0.7;"></path><path transform="translate(292.7367927126751,17.666368123257868)" d="M-5,-5h10v10h-10Z" style="fill: none; stroke: blue; stroke-width: 2; opacity: 0.7;"></path><path transform="translate(295.47230901265766,18.871848193397444)" d="M-5,-5h10v10h-10Z" style="fill: none; stroke: blue; stroke-width: 2; opacity: 0.7;"></path><path transform="translate(269.2970237240147,70.31708601874156)" d="M-5,-5h10v10h-10Z" style="fill: none; stroke: blue; stroke-width: 2; opacity: 0.7;"></path><path transform="translate(296.2406412262204,5.5003378990918)" d="M-5,-5h10v10h-10Z" style="fill: none; stroke: blue; stroke-width: 2; opacity: 0.7;"></path><path transform="translate(273.79518551450485,77.6013350684403)" d="M-5,-5h10v10h-10Z" style="fill: none; stroke: blue; stroke-width: 2; opacity: 0.7;"></path><path transform="translate(265.22766910399554,78.94624105089952)" d="M-5,-5h10v10h-10Z" style="fill: none; stroke: blue; stroke-width: 2; opacity: 0.7;"></path><path transform="translate(262.9803151463229,72.87683848671223)" d="M-5,-5h10v10h-10Z" style="fill: none; stroke: blue; stroke-width: 2; opacity: 0.7;"></path><path transform="translate(236.35895800106326,127.05099778270508)" d="M-5,-5h10v10h-10Z" style="fill: none; stroke: blue; stroke-width: 2; opacity: 0.7;"></path><path transform="translate(281.01785799923266,6.217616580310869)" d="M-5,-5h10v10h-10Z" style="fill: none; stroke: blue; stroke-width: 2; opacity: 0.7;"></path><path transform="translate(265.5163403611094,117.36641221374045)" d="M-5,-5h10v10h-10Z" style="fill: none; stroke: blue; stroke-width: 2; opacity: 0.7;"></path><path transform="translate(291.036047405837,73.60182533475404)" d="M-5,-5h10v10h-10Z" style="fill: none; stroke: blue; stroke-width: 2; opacity: 0.7;"></path><path transform="translate(286.58242660242075,13.854605100272355)" d="M-5,-5h10v10h-10Z" style="fill: none; stroke: blue; stroke-width: 2; opacity: 0.7;"></path><path transform="translate(293.2104364568015,11.426166150078442)" d="M-5,-5h10v10h-10Z" style="fill: none; stroke: blue; stroke-width: 2; opacity: 0.7;"></path><path transform="translate(287.12158953688606,23.010933557611413)" d="M-5,-5h10v10h-10Z" style="fill: none; stroke: blue; stroke-width: 2; opacity: 0.7;"></path><path transform="translate(276.8787763132192,35.546917436811206)" d="M-5,-5h10v10h-10Z" style="fill: none; stroke: blue; stroke-width: 2; opacity: 0.7;"></path><path transform="translate(291.46900103981494,57.78560997982352)" d="M-5,-5h10v10h-10Z" style="fill: none; stroke: blue; stroke-width: 2; opacity: 0.7;"></path><path transform="translate(251.55906625895568,45.55362945817129)" d="M-5,-5h10v10h-10Z" style="fill: none; stroke: blue; stroke-width: 2; opacity: 0.7;"></path><path transform="translate(272.1424980025625,88.03587873233936)" d="M-5,-5h10v10h-10Z" style="fill: none; stroke: blue; stroke-width: 2; opacity: 0.7;"></path><path transform="translate(267.86452036775944,32.21140830307904)" d="M-5,-5h10v10h-10Z" style="fill: none; stroke: blue; stroke-width: 2; opacity: 0.7;"></path><path transform="translate(273.8133525390953,78.13832709724817)" d="M-5,-5h10v10h-10Z" style="fill: none; stroke: blue; stroke-width: 2; opacity: 0.7;"></path><path transform="translate(219.38725249727992,84.23466446880849)" d="M-5,-5h10v10h-10Z" style="fill: none; stroke: blue; stroke-width: 2; opacity: 0.7;"></path><path transform="translate(265.3616040507297,39.179104477611936)" d="M-5,-5h10v10h-10Z" style="fill: none; stroke: blue; stroke-width: 2; opacity: 0.7;"></path><path transform="translate(251.35136925941384,50.42630937880632)" d="M-5,-5h10v10h-10Z" style="fill: none; stroke: blue; stroke-width: 2; opacity: 0.7;"></path><path transform="translate(263.34238815785136,36.33203952011289)" d="M-5,-5h10v10h-10Z" style="fill: none; stroke: blue; stroke-width: 2; opacity: 0.7;"></path><path transform="translate(263.2224142105831,119.65484180249281)" d="M-5,-5h10v10h-10Z" style="fill: none; stroke: blue; stroke-width: 2; opacity: 0.7;"></path><path transform="translate(249.9367099604429,57.60755508919204)" d="M-5,-5h10v10h-10Z" style="fill: none; stroke: blue; stroke-width: 2; opacity: 0.7;"></path><path transform="translate(231.7635094784178,31.441048034934504)" d="M-5,-5h10v10h-10Z" style="fill: none; stroke: blue; stroke-width: 2; opacity: 0.7;"></path><path transform="translate(281.56739756834634,22.76119402985075)" d="M-5,-5h10v10h-10Z" style="fill: none; stroke: blue; stroke-width: 2; opacity: 0.7;"></path><path transform="translate(273.6234443951357,41.802136553646065)" d="M-5,-5h10v10h-10Z" style="fill: none; stroke: blue; stroke-width: 2; opacity: 0.7;"></path><path transform="translate(229.12608192777478,95.59992635114469)" d="M-5,-5h10v10h-10Z" style="fill: none; stroke: blue; stroke-width: 2; opacity: 0.7;"></path><path transform="translate(248.44856002362644,43.38153503893215)" d="M-5,-5h10v10h-10Z" style="fill: none; stroke: blue; stroke-width: 2; opacity: 0.7;"></path><path transform="translate(218.91366479601777,99.61119751166409)" d="M-5,-5h10v10h-10Z" style="fill: none; stroke: blue; stroke-width: 2; opacity: 0.7;"></path><path transform="translate(245.54807303601874,102.61384395832144)" d="M-5,-5h10v10h-10Z" style="fill: none; stroke: blue; stroke-width: 2; opacity: 0.7;"></path><path transform="translate(270.49616495223825,27.541833375010405)" d="M-5,-5h10v10h-10Z" style="fill: none; stroke: blue; stroke-width: 2; opacity: 0.7;"></path><path transform="translate(221.01409407417992,73.27428662914777)" d="M-5,-5h10v10h-10Z" style="fill: none; stroke: blue; stroke-width: 2; opacity: 0.7;"></path></g><g class="mark-group role-legend"><g transform="translate(318,0)"><path class="background" d="M0,0h62v60h-62Z" style="pointer-events: none; fill: none;"></path><g><g class="mark-group role-legend-entry"><g transform="translate(0,16)"><path class="background" d="M0,0h0v0h0Z" style="pointer-events: none; fill: none;"></path><g><g class="mark-group role-scope"><g transform="translate(0,0)"><path class="background" d="M0,0h61.6201171875v12.5h-61.6201171875Z" style="pointer-events: none; fill: none; opacity: 1;"></path><g><g class="mark-symbol role-legend-symbol" style="pointer-events: none;"><path transform="translate(6,6)" d="M5,0A5,5,0,1,1,-5,0A5,5,0,1,1,5,0" style="fill: none; stroke: #ff0000; stroke-width: 1.5; opacity: 0.7;"></path></g><g class="mark-text role-legend-label" style="pointer-events: none;"><text text-anchor="start" transform="translate(16,9)" style="font-family: sans-serif; font-size: 10px; fill: #000; opacity: 1;">confident</text></g></g><path class="foreground" d="" style="pointer-events: none; display: none; fill: none;"></path></g><g transform="translate(0,16)"><path class="background" d="M0,0h61.6201171875v12.5h-61.6201171875Z" style="pointer-events: none; fill: none; opacity: 1;"></path><g><g class="mark-symbol role-legend-symbol" style="pointer-events: none;"><path transform="translate(6,6)" d="M-5,-5h10v10h-10Z" style="fill: none; stroke: blue; stroke-width: 1.5; opacity: 0.7;"></path></g><g class="mark-text role-legend-label" style="pointer-events: none;"><text text-anchor="start" transform="translate(16,9)" style="font-family: sans-serif; font-size: 10px; fill: #000; opacity: 1;">neutral</text></g></g><path class="foreground" d="" style="pointer-events: none; display: none; fill: none;"></path></g><g transform="translate(0,33)"><path class="background" d="M0,0h61.6201171875v11h-61.6201171875Z" style="pointer-events: none; fill: none; opacity: 1;"></path><g><g class="mark-symbol role-legend-symbol" style="pointer-events: none;"><path transform="translate(6,6)" d="M0,-5.773502691896256L-5,2.8867513459481287L5,2.8867513459481287Z" style="fill: none; stroke: green; stroke-width: 1.5; opacity: 0.7;"></path></g><g class="mark-text role-legend-label" style="pointer-events: none;"><text text-anchor="start" transform="translate(16,9)" style="font-family: sans-serif; font-size: 10px; fill: #000; opacity: 1;">prodent</text></g></g><path class="foreground" d="" style="pointer-events: none; display: none; fill: none;"></path></g></g></g><path class="foreground" d="" style="pointer-events: none; display: none; fill: none;"></path></g></g><g class="mark-text role-legend-title" style="pointer-events: none;"><text text-anchor="start" transform="translate(0,9)" style="font-family: sans-serif; font-size: 11px; font-weight: bold; fill: #000; opacity: 1;">Strategy</text></g></g><path class="foreground" d="" style="pointer-events: none; display: none; fill: none;"></path></g></g></g><path class="foreground" d="" style="display: none; fill: none;"></path></g></g></g></svg>