<svg class="marks" width="978" height="246" viewBox="0 0 978 246" version="1.1" xmlns="http://www.w3.org/2000/svg" xmlns:xlink="http://www.w3.org/1999/xlink"><rect width="978" height="246" style="fill: white;"></rect><g transform="translate(7,23)"><g class="mark-group role-frame root"><g transform="translate(0,0)"><path class="background" d="M0,0h0v200h0Z" style="fill: none;"></path><g><g class="mark-group role-scope concat_0_group"><g transform="translate(0,0)"><path class="background" d="M0.5,0.5h200v200h-200Z" style="fill: #EDE9DE; stroke: #ddd;"></path><g><g class="mark-group role-axis"><g transform="translate(0.5,200.5)"><path class="background" d="M0,0h0v0h0Z" style="pointer-events: none; fill: none;"></path><g><g class="mark-rule role-axis-grid" style="pointer-events: none;"><line transform="translate(0,0)" x2="0" y2="-200" style="fill: none; stroke: #ddd; stroke-width: 1; opacity: 1;"></line><line transform="translate(33,0)" x2="0" y2="-200" style="fill: none; stroke: #ddd; stroke-width: 1; opacity: 1;"></line><line transform="translate(67,0)" x2="0" y2="-200" style="fill: none; stroke: #ddd; stroke-width: 1; opacity: 1;"></line><line transform="translate(100,0)" x2="0" y2="-200" style="fill: none; stroke: #ddd; stroke-width: 1; opacity: 1;"></line><line transform="translate(133,0)" x2="0" y2="-200" style="fill: none; stroke: #ddd; stroke-width: 1; opacity: 1;"></line><line transform="translate(167,0)" x2="0" y2="-200" style="fill: none; stroke: #ddd; stroke-width: 1; opacity: 1;"></line><line transform="translate(200,0)" x2="0" y2="-200" style="fill: none; stroke: #ddd; stroke-width: 1; opacity: 1;"></line></g></g><path class="foreground" d="" style="pointer-events: none; display: none; fill: none;"></path></g></g><g class="mark-group role-axis"><g transform="translate(0.5,200.5)"><path class="background" d="M0,0h0v0h0Z" style="pointer-events: none; fill: none;"></path><g><g class="mark-rule role-axis-tick" style="pointer-events: none;"><line transform="translate(0,0)" x2="0" y2="5" style="fill: none; stroke: #888; stroke-width: 1; opacity: 1;"></line><line transform="translate(33,0)" x2="0" y2="5" style="fill: none; stroke: #888; stroke-width: 1; opacity: 1;"></line><line transform="translate(67,0)" x2="0" y2="5" style="fill: none; stroke: #888; stroke-width: 1; opacity: 1;"></line><line transform="translate(100,0)" x2="0" y2="5" style="fill: none; stroke: #888; stroke-width: 1; opacity: 1;"></line><line transform="translate(133,0)" x2="0" y2="5" style="fill: none; stroke: #888; stroke-width: 1; opacity: 1;"></line><line transform="translate(167,0)" x2="0" y2="5" style="fill: none; stroke: #888; stroke-width: 1; opacity: 1;"></line><line transform="translate(200,0)" x2="0" y2="5" style="fill: none; stroke: #888; stroke-width: 1; opacity: 1;"></line></g><g class="mark-text role-axis-label" style="pointer-events: none;"><text text-anchor="start" transform="translate(0,15)" style="font-family: sans-serif; font-size: 10px; fill: #000; opacity: 1;">0</text><text text-anchor="middle" transform="translate(33.33333333333333,15)" style="font-family: sans-serif; font-size: 10px; fill: #000; opacity: 1;">10</text><text text-anchor="middle" transform="translate(66.66666666666666,15)" style="font-family: sans-serif; font-size: 10px; fill: #000; opacity: 1;">20</text><text text-anchor="middle" transform="translate(100,15)" style="font-family: sans-serif; font-size: 10px; fill: #000; opacity: 1;">30</text><text text-anchor="middle" transform="translate(133.33333333333331,15)" style="font-family: sans-serif; font-size: 10px; fill: #000; opacity: 1;">40</text><text text-anchor="middle" transform="translate(166.66666666666669,15)" style="font-family: sans-serif; font-size: 10px; fill: #000; opacity: 1;">50</text><text text-anchor="end" transform="translate(200,15)" style="font-family: sans-serif; font-size: 10px; fill: #000; opacity: 1;">60</text></g><g class="mark-rule role-axis-domain" style="pointer-events: none;"><line transform="translate(0,0)" x2="200" y2="0" style="fill: none; stroke: #888; stroke-width: 1; opacity: 1;"></line></g></g><path class="foreground" d="" style="pointer-events: none; display: none; fill: none;"></path></g></g><g class="mark-rect role-mark concat_0_marks"><path d="M0,18.181818181818187h30v27.27272727272727h-30Z" style="fill: #4c78a8;"></path><path d="M30,18.181818181818187h23.333333333333336v27.27272727272727h-23.333333333333336Z" style="fill: #f58518;"></path><path d="M53.333333333333336,18.181818181818187h13.333333333333321v27.27272727272727h-13.333333333333321Z" style="fill: #e45756;"></path><path d="M66.66666666666666,18.181818181818187h3.333333333333343v27.27272727272727h-3.333333333333343Z" style="fill: #72b7b2;"></path><path d="M70,18.181818181818187h0v27.27272727272727h0Z" style="fill: #54a24b;"></path><path d="M0,63.63636363636364h40v27.27272727272727h-40Z" style="fill: #4c78a8;"></path><path d="M40,63.63636363636364h40v27.27272727272727h-40Z" style="fill: #f58518;"></path><path d="M80,63.63636363636364h36.66666666666667v27.27272727272727h-36.66666666666667Z" style="fill: #e45756;"></path><path d="M116.66666666666667,63.63636363636364h9.999999999999986v27.27272727272727h-9.999999999999986Z" style="fill: #72b7b2;"></path><path d="M126.66666666666666,63.63636363636364h10v27.27272727272727h-10Z" style="fill: #54a24b;"></path><path d="M0,109.0909090909091h40v27.27272727272727h-40Z" style="fill: #4c78a8;"></path><path d="M40,109.0909090909091h40v27.27272727272727h-40Z" style="fill: #f58518;"></path><path d="M80,109.0909090909091h40v27.27272727272727h-40Z" style="fill: #e45756;"></path><path d="M120,109.0909090909091h10v27.27272727272727h-10Z" style="fill: #72b7b2;"></path><path d="M130,109.0909090909091h10v27.27272727272727h-10Z" style="fill: #54a24b;"></path><path d="M0,154.54545454545456h40v27.27272727272727h-40Z" style="fill: #4c78a8;"></path><path d="M40,154.54545454545456h40v27.27272727272727h-40Z" style="fill: #f58518;"></path><path d="M80,154.54545454545456h40v27.27272727272727h-40Z" style="fill: #e45756;"></path><path d="M120,154.54545454545456h10v27.27272727272727h-10Z" style="fill: #72b7b2;"></path><path d="M130,154.54545454545456h36.666666666666686v27.27272727272727h-36.666666666666686Z" style="fill: #54a24b;"></path></g><g class="mark-group role-title"><g transform="translate(100,-17)"><path class="background" d="M0,0h0v0h0Z" style="pointer-events: none; fill: none;"></path><g><g class="mark-text role-title-text" style="pointer-events: none;"><text text-anchor="middle" transform="translate(0,10)" style="font-family: sans-serif; font-size: 13px; font-weight: bold; fill: #000; opacity: 1;">S</text></g></g><path class="foreground" d="" style="pointer-events: none; display: none; fill: none;"></path></g></g></g><path class="foreground" d="" style="display: none; fill: none;"></path></g></g><g class="mark-group role-scope concat_1_group"><g transform="translate(224,0)"><path class="background" d="M0.5,0.5h200v200h-200Z" style="fill: #EDE9DE; stroke: #ddd;"></path><g><g class="mark-group role-axis"><g transform="translate(0.5,200.5)"><path class="background" d="M0,0h0v0h0Z" style="pointer-events: none; fill: none;"></path><g><g class="mark-rule role-axis-grid" style="pointer-events: none;"><line transform="translate(0,0)" x2="0" y2="-200" style="fill: none; stroke: #ddd; stroke-width: 1; opacity: 1;"></line><line transform="translate(33,0)" x2="0" y2="-200" style="fill: none; stroke: #ddd; stroke-width: 1; opacity: 1;"></line><line transform="translate(67,0)" x2="0" y2="-200" style="fill: none; stroke: #ddd; stroke-width: 1; opacity: 1;"></line><line transform="translate(100,0)" x2="0" y2="-200" style="fill: none; stroke: #ddd; stroke-width: 1; opacity: 1;"></line><line transform="translate(133,0)" x2="0" y2="-200" style="fill: none; stroke: #ddd; stroke-width: 1; opacity: 1;"></line><line transform="translate(167,0)" x2="0" y2="-200" style="fill: none; stroke: #ddd; stroke-width: 1; opacity: 1;"></line><line transform="translate(200,0)" x2="0" y2="-200" style="fill: none; stroke: #ddd; stroke-width: 1; opacity: 1;"></line></g></g><path class="foreground" d="" style="pointer-events: none; display: none; fill: none;"></path></g></g><g class="mark-group role-axis"><g transform="translate(0.5,200.5)"><path class="background" d="M0,0h0v0h0Z" style="pointer-events: none; fill: none;"></path><g><g class="mark-rule role-axis-tick" style="pointer-events: none;"><line transform="translate(0,0)" x2="0" y2="5" style="fill: none; stroke: #888; stroke-width: 1; opacity: 1;"></line><line transform="translate(33,0)" x2="0" y2="5" style="fill: none; stroke: #888; stroke-width: 1; opacity: 1;"></line><line transform="translate(67,0)" x2="0" y2="5" style="fill: none; stroke: #888; stroke-width: 1; opacity: 1;"></line><line transform="translate(100,0)" x2="0" y2="5" style="fill: none; stroke: #888; stroke-width: 1; opacity: 1;"></line><line transform="translate(133,0)" x2="0" y2="5" style="fill: none; stroke: #888; stroke-width: 1; opacity: 1;"></line><line transform="translate(167,0)" x2="0" y2="5" style="fill: none; stroke: #888; stroke-width: 1; opacity: 1;"></line><line transform="translate(200,0)" x2="0" y2="5" style="fill: none; stroke: #888; stroke-width: 1; opacity: 1;"></line></g><g class="mark-text role-axis-label" style="pointer-events: none;"><text text-anchor="start" transform="translate(0,15)" style="font-family: sans-serif; font-size: 10px; fill: #000; opacity: 1;">0</text><text text-anchor="middle" transform="translate(33.33333333333333,15)" style="font-family: sans-serif; font-size: 10px; fill: #000; opacity: 1;">10</text><text text-anchor="middle" transform="translate(66.66666666666666,15)" style="font-family: sans-serif; font-size: 10px; fill: #000; opacity: 1;">20</text><text text-anchor="middle" transform="translate(100,15)" style="font-family: sans-serif; font-size: 10px; fill: #000; opacity: 1;">30</text><text text-anchor="middle" transform="translate(133.33333333333331,15)" style="font-family: sans-serif; font-size: 10px; fill: #000; opacity: 1;">40</text><text text-anchor="middle" transform="translate(166.66666666666669,15)" style="font-family: sans-serif; font-size: 10px; fill: #000; opacity: 1;">50</text><text text-anchor="end" transform="translate(200,15)" style="font-family: sans-serif; font-size: 10px; fill: #000; opacity: 1;">60</text></g><g class="mark-rule role-axis-domain" style="pointer-events: none;"><line transform="translate(0,0)" x2="200" y2="0" style="fill: none; stroke: #888; stroke-width: 1; opacity: 1;"></line></g></g><path class="foreground" d="" style="pointer-events: none; display: none; fill: none;"></path></g></g><g class="mark-rect role-mark concat_1_marks"><path d="M0,18.181818181818187h30v27.27272727272727h-30Z" style="fill: #4c78a8;"></path><path d="M30,18.181818181818187h23.333333333333336v27.27272727272727h-23.333333333333336Z" style="fill: #f58518;"></path><path d="M53.333333333333336,18.181818181818187h6.666666666666664v27.27272727272727h-6.666666666666664Z" style="fill: #e45756;"></path><path d="M60,18.181818181818187h10v27.27272727272727h-10Z" style="fill: #72b7b2;"></path><path d="M70,18.181818181818187h0v27.27272727272727h0Z" style="fill: #54a24b;"></path><path d="M0,63.63636363636364h40v27.27272727272727h-40Z" style="fill: #4c78a8;"></path><path d="M40,63.63636363636364h40v27.27272727272727h-40Z" style="fill: #f58518;"></path><path d="M80,63.63636363636364h33.33333333333333v27.27272727272727h-33.33333333333333Z" style="fill: #e45756;"></path><path d="M113.33333333333333,63.63636363636364h19.999999999999986v27.27272727272727h-19.999999999999986Z" style="fill: #72b7b2;"></path><path d="M133.33333333333331,63.63636363636364h10.000000000000028v27.27272727272727h-10.000000000000028Z" style="fill: #54a24b;"></path><path d="M0,109.0909090909091h40v27.27272727272727h-40Z" style="fill: #4c78a8;"></path><path d="M40,109.0909090909091h40v27.27272727272727h-40Z" style="fill: #f58518;"></path><path d="M80,109.0909090909091h36.66666666666667v27.27272727272727h-36.66666666666667Z" style="fill: #e45756;"></path><path d="M116.66666666666667,109.0909090909091h19.999999999999986v27.27272727272727h-19.999999999999986Z" style="fill: #72b7b2;"></path><path d="M136.66666666666666,109.0909090909091h10v27.27272727272727h-10Z" style="fill: #54a24b;"></path><path d="M0,154.54545454545456h40v27.27272727272727h-40Z" style="fill: #4c78a8;"></path><path d="M40,154.54545454545456h40v27.27272727272727h-40Z" style="fill: #f58518;"></path><path d="M80,154.54545454545456h36.66666666666667v27.27272727272727h-36.66666666666667Z" style="fill: #e45756;"></path><path d="M116.66666666666667,154.54545454545456h19.999999999999986v27.27272727272727h-19.999999999999986Z" style="fill: #72b7b2;"></path><path d="M136.66666666666666,154.54545454545456h36.666666666666686v27.27272727272727h-36.666666666666686Z" style="fill: #54a24b;"></path></g><g class="mark-group role-title"><g transform="translate(100,-17)"><path class="background" d="M0,0h0v0h0Z" style="pointer-events: none; fill: none;"></path><g><g class="mark-text role-title-text" style="pointer-events: none;"><text text-anchor="middle" transform="translate(0,10)" style="font-family: sans-serif; font-size: 13px; font-weight: bold; fill: #000; opacity: 1;">S+H</text></g></g><path class="foreground" d="" style="pointer-events: none; display: none; fill: none;"></path></g></g></g><path class="foreground" d="" style="display: none; fill: none;"></path></g></g><g class="mark-group role-scope concat_2_group"><g transform="translate(448,0)"><path class="background" d="M0.5,0.5h200v200h-200Z" style="fill: #EDE9DE; stroke: #ddd;"></path><g><g class="mark-group role-axis"><g transform="translate(0.5,200.5)"><path class="background" d="M0,0h0v0h0Z" style="pointer-events: none; fill: none;"></path><g><g class="mark-rule role-axis-grid" style="pointer-events: none;"><line transform="translate(0,0)" x2="0" y2="-200" style="fill: none; stroke: #ddd; stroke-width: 1; opacity: 1;"></line><line transform="translate(33,0)" x2="0" y2="-200" style="fill: none; stroke: #ddd; stroke-width: 1; opacity: 1;"></line><line transform="translate(67,0)" x2="0" y2="-200" style="fill: none; stroke: #ddd; stroke-width: 1; opacity: 1;"></line><line transform="translate(100,0)" x2="0" y2="-200" style="fill: none; stroke: #ddd; stroke-width: 1; opacity: 1;"></line><line transform="translate(133,0)" x2="0" y2="-200" style="fill: none; stroke: #ddd; stroke-width: 1; opacity: 1;"></line><line transform="translate(167,0)" x2="0" y2="-200" style="fill: none; stroke: #ddd; stroke-width: 1; opacity: 1;"></line><line transform="translate(200,0)" x2="0" y2="-200" style="fill: none; stroke: #ddd; stroke-width: 1; opacity: 1;"></line></g></g><path class="foreground" d="" style="pointer-events: none; display: none; fill: none;"></path></g></g><g class="mark-group role-axis"><g transform="translate(0.5,200.5)"><path class="background" d="M0,0h0v0h0Z" style="pointer-events: none; fill: none;"></path><g><g class="mark-rule role-axis-tick" style="pointer-events: none;"><line transform="translate(0,0)" x2="0" y2="5" style="fill: none; stroke: #888; stroke-width: 1; opacity: 1;"></line><line transform="translate(33,0)" x2="0" y2="5" style="fill: none; stroke: #888; stroke-width: 1; opacity: 1;"></line><line transform="translate(67,0)" x2="0" y2="5" style="fill: none; stroke: #888; stroke-width: 1; opacity: 1;"></line><line transform="translate(100,0)" x2="0" y2="5" style="fill: none; stroke: #888; stroke-width: 1; opacity: 1;"></line><line transform="translate(133,0)" x2="0" y2="5" style="fill: none; stroke: #888; stroke-width: 1; opacity: 1;"></line><line transform="translate(167,0)" x2="0" y2="5" style="fill: none; stroke: #888; stroke-width: 1; opacity: 1;"></line><line transform="translate(200,0)" x2="0" y2="5" style="fill: none; stroke: #888; stroke-width: 1; opacity: 1;"></line></g><g class="mark-text role-axis-label" style="pointer-events: none;"><text text-anchor="start" transform="translate(0,15)" style="font-family: sans-serif; font-size: 10px; fill: #000; opacity: 1;">0</text><text text-anchor="middle" transform="translate(33.33333333333333,15)" style="font-family: sans-serif; font-size: 10px; fill: #000; opacity: 1;">10</text><text text-anchor="middle" transform="translate(66.66666666666666,15)" style="font-family: sans-serif; font-size: 10px; fill: #000; opacity: 1;">20</text><text text-anchor="middle" transform="translate(100,15)" style="font-family: sans-serif; font-size: 10px; fill: #000; opacity: 1;">30</text><text text-anchor="middle" transform="translate(133.33333333333331,15)" style="font-family: sans-serif; font-size: 10px; fill: #000; opacity: 1;">40</text><text text-anchor="middle" transform="translate(166.66666666666669,15)" style="font-family: sans-serif; font-size: 10px; fill: #000; opacity: 1;">50</text><text text-anchor="end" transform="translate(200,15)" style="font-family: sans-serif; font-size: 10px; fill: #000; opacity: 1;">60</text></g><g class="mark-rule role-axis-domain" style="pointer-events: none;"><line transform="translate(0,0)" x2="200" y2="0" style="fill: none; stroke: #888; stroke-width: 1; opacity: 1;"></line></g></g><path class="foreground" d="" style="pointer-events: none; display: none; fill: none;"></path></g></g><g class="mark-rect role-mark concat_2_marks"><path d="M0,18.181818181818187h30v27.27272727272727h-30Z" style="fill: #4c78a8;"></path><path d="M30,18.181818181818187h23.333333333333336v27.27272727272727h-23.333333333333336Z" style="fill: #f58518;"></path><path d="M53.333333333333336,18.181818181818187h6.666666666666664v27.27272727272727h-6.666666666666664Z" style="fill: #e45756;"></path><path d="M60,18.181818181818187h10v27.27272727272727h-10Z" style="fill: #72b7b2;"></path><path d="M70,18.181818181818187h0v27.27272727272727h0Z" style="fill: #54a24b;"></path><path d="M0,63.63636363636364h40v27.27272727272727h-40Z" style="fill: #4c78a8;"></path><path d="M40,63.63636363636364h40v27.27272727272727h-40Z" style="fill: #f58518;"></path><path d="M80,63.63636363636364h33.33333333333333v27.27272727272727h-33.33333333333333Z" style="fill: #e45756;"></path><path d="M113.33333333333333,63.63636363636364h23.33333333333333v27.27272727272727h-23.33333333333333Z" style="fill: #72b7b2;"></path><path d="M136.66666666666666,63.63636363636364h10v27.27272727272727h-10Z" style="fill: #54a24b;"></path><path d="M0,109.0909090909091h40v27.27272727272727h-40Z" style="fill: #4c78a8;"></path><path d="M40,109.0909090909091h40v27.27272727272727h-40Z" style="fill: #f58518;"></path><path d="M80,109.0909090909091h36.66666666666667v27.27272727272727h-36.66666666666667Z" style="fill: #e45756;"></path><path d="M116.66666666666667,109.0909090909091h23.33333333333333v27.27272727272727h-23.33333333333333Z" style="fill: #72b7b2;"></path><path d="M140,109.0909090909091h10v27.27272727272727h-10Z" style="fill: #54a24b;"></path><path d="M0,154.54545454545456h40v27.27272727272727h-40Z" style="fill: #4c78a8;"></path><path d="M40,154.54545454545456h40v27.27272727272727h-40Z" style="fill: #f58518;"></path><path d="M80,154.54545454545456h36.66666666666667v27.27272727272727h-36.66666666666667Z" style="fill: #e45756;"></path><path d="M116.66666666666667,154.54545454545456h23.33333333333333v27.27272727272727h-23.33333333333333Z" style="fill: #72b7b2;"></path><path d="M140,154.54545454545456h36.66666666666666v27.27272727272727h-36.66666666666666Z" style="fill: #54a24b;"></path></g><g class="mark-group role-title"><g transform="translate(100,-17)"><path class="background" d="M0,0h0v0h0Z" style="pointer-events: none; fill: none;"></path><g><g class="mark-text role-title-text" style="pointer-events: none;"><text text-anchor="middle" transform="translate(0,10)" style="font-family: sans-serif; font-size: 13px; font-weight: bold; fill: #000; opacity: 1;">S+H+V</text></g></g><path class="foreground" d="" style="pointer-events: none; display: none; fill: none;"></path></g></g></g><path class="foreground" d="" style="display: none; fill: none;"></path></g></g><g class="mark-group role-scope concat_3_group"><g transform="translate(672,0)"><path class="background" d="M0.5,0.5h200v200h-200Z" style="fill: #EDE9DE; stroke: #ddd;"></path><g><g class="mark-group role-axis"><g transform="translate(0.5,200.5)"><path class="background" d="M0,0h0v0h0Z" style="pointer-events: none; fill: none;"></path><g><g class="mark-rule role-axis-grid" style="pointer-events: none;"><line transform="translate(0,0)" x2="0" y2="-200" style="fill: none; stroke: #ddd; stroke-width: 1; opacity: 1;"></line><line transform="translate(33,0)" x2="0" y2="-200" style="fill: none; stroke: #ddd; stroke-width: 1; opacity: 1;"></line><line transform="translate(67,0)" x2="0" y2="-200" style="fill: none; stroke: #ddd; stroke-width: 1; opacity: 1;"></line><line transform="translate(100,0)" x2="0" y2="-200" style="fill: none; stroke: #ddd; stroke-width: 1; opacity: 1;"></line><line transform="translate(133,0)" x2="0" y2="-200" style="fill: none; stroke: #ddd; stroke-width: 1; opacity: 1;"></line><line transform="translate(167,0)" x2="0" y2="-200" style="fill: none; stroke: #ddd; stroke-width: 1; opacity: 1;"></line><line transform="translate(200,0)" x2="0" y2="-200" style="fill: none; stroke: #ddd; stroke-width: 1; opacity: 1;"></line></g></g><path class="foreground" d="" style="pointer-events: none; display: none; fill: none;"></path></g></g><g class="mark-group role-axis"><g transform="translate(0.5,200.5)"><path class="background" d="M0,0h0v0h0Z" style="pointer-events: none; fill: none;"></path><g><g class="mark-rule role-axis-tick" style="pointer-events: none;"><line transform="translate(0,0)" x2="0" y2="5" style="fill: none; stroke: #888; stroke-width: 1; opacity: 1;"></line><line transform="translate(33,0)" x2="0" y2="5" style="fill: none; stroke: #888; stroke-width: 1; opacity: 1;"></line><line transform="translate(67,0)" x2="0" y2="5" style="fill: none; stroke: #888; stroke-width: 1; opacity: 1;"></line><line transform="translate(100,0)" x2="0" y2="5" style="fill: none; stroke: #888; stroke-width: 1; opacity: 1;"></line><line transform="translate(133,0)" x2="0" y2="5" style="fill: none; stroke: #888; stroke-width: 1; opacity: 1;"></line><line transform="translate(167,0)" x2="0" y2="5" style="fill: none; stroke: #888; stroke-width: 1; opacity: 1;"></line><line transform="translate(200,0)" x2="0" y2="5" style="fill: none; stroke: #888; stroke-width: 1; opacity: 1;"></line></g><g class="mark-text role-axis-label" style="pointer-events: none;"><text text-anchor="start" transform="translate(0,15)" style="font-family: sans-serif; font-size: 10px; fill: #000; opacity: 1;">0</text><text text-anchor="middle" transform="translate(33.33333333333333,15)" style="font-family: sans-serif; font-size: 10px; fill: #000; opacity: 1;">10</text><text text-anchor="middle" transform="translate(66.66666666666666,15)" style="font-family: sans-serif; font-size: 10px; fill: #000; opacity: 1;">20</text><text text-anchor="middle" transform="translate(100,15)" style="font-family: sans-serif; font-size: 10px; fill: #000; opacity: 1;">30</text><text text-anchor="middle" transform="translate(133.33333333333331,15)" style="font-family: sans-serif; font-size: 10px; fill: #000; opacity: 1;">40</text><text text-anchor="middle" transform="translate(166.66666666666669,15)" style="font-family: sans-serif; font-size: 10px; fill: #000; opacity: 1;">50</text><text text-anchor="end" transform="translate(200,15)" style="font-family: sans-serif; font-size: 10px; fill: #000; opacity: 1;">60</text></g><g class="mark-rule role-axis-domain" style="pointer-events: none;"><line transform="translate(0,0)" x2="200" y2="0" style="fill: none; stroke: #888; stroke-width: 1; opacity: 1;"></line></g></g><path class="foreground" d="" style="pointer-events: none; display: none; fill: none;"></path></g></g><g class="mark-rect role-mark concat_3_marks"><path d="M0,18.181818181818187h30v27.27272727272727h-30Z" style="fill: #4c78a8;"></path><path d="M30,18.181818181818187h23.333333333333336v27.27272727272727h-23.333333333333336Z" style="fill: #f58518;"></path><path d="M53.333333333333336,18.181818181818187h6.666666666666664v27.27272727272727h-6.666666666666664Z" style="fill: #e45756;"></path><path d="M60,18.181818181818187h10v27.27272727272727h-10Z" style="fill: #72b7b2;"></path><path d="M70,18.181818181818187h0v27.27272727272727h0Z" style="fill: #54a24b;"></path><path d="M0,63.63636363636364h40v27.27272727272727h-40Z" style="fill: #4c78a8;"></path><path d="M40,63.63636363636364h40v27.27272727272727h-40Z" style="fill: #f58518;"></path><path d="M80,63.63636363636364h33.33333333333333v27.27272727272727h-33.33333333333333Z" style="fill: #e45756;"></path><path d="M113.33333333333333,63.63636363636364h33.33333333333333v27.27272727272727h-33.33333333333333Z" style="fill: #72b7b2;"></path><path d="M146.66666666666666,63.63636363636364h20.00000000000003v27.27272727272727h-20.00000000000003Z" style="fill: #54a24b;"></path><path d="M0,109.0909090909091h40v27.27272727272727h-40Z" style="fill: #4c78a8;"></path><path d="M40,109.0909090909091h40v27.27272727272727h-40Z" style="fill: #f58518;"></path><path d="M80,109.0909090909091h36.66666666666667v27.27272727272727h-36.66666666666667Z" style="fill: #e45756;"></path><path d="M116.66666666666667,109.0909090909091h33.33333333333333v27.27272727272727h-33.33333333333333Z" style="fill: #72b7b2;"></path><path d="M150,109.0909090909091h20v27.27272727272727h-20Z" style="fill: #54a24b;"></path><path d="M0,154.54545454545456h40v27.27272727272727h-40Z" style="fill: #4c78a8;"></path><path d="M40,154.54545454545456h40v27.27272727272727h-40Z" style="fill: #f58518;"></path><path d="M80,154.54545454545456h36.66666666666667v27.27272727272727h-36.66666666666667Z" style="fill: #e45756;"></path><path d="M116.66666666666667,154.54545454545456h36.66666666666667v27.27272727272727h-36.66666666666667Z" style="fill: #72b7b2;"></path><path d="M153.33333333333334,154.54545454545456h36.66666666666666v27.27272727272727h-36.66666666666666Z" style="fill: #54a24b;"></path></g><g class="mark-group role-title"><g transform="translate(100,-17)"><path class="background" d="M0,0h0v0h0Z" style="pointer-events: none; fill: none;"></path><g><g class="mark-text role-title-text" style="pointer-events: none;"><text text-anchor="middle" transform="translate(0,10)" style="font-family: sans-serif; font-size: 13px; font-weight: bold; fill: #000; opacity: 1;">S+H+V+R</text></g></g><path class="foreground" d="" style="pointer-events: none; display: none; fill: none;"></path></g></g></g><path class="foreground" d="" style="display: none; fill: none;"></path></g></g><g class="mark-group role-legend"><g transform="translate(892,0)"><path class="background" d="M0,0h74v79h-74Z" style="pointer-events: none; fill: none;"></path><g><g class="mark-group role-legend-entry"><g transform="translate(0,16)"><path class="background" d="M0,0h0v0h0Z" style="pointer-events: none; fill: none;"></path><g><g class="mark-group role-scope"><g transform="translate(0,0)"><path class="background" d="M0,0h23.6171875v11h-23.6171875Z" style="pointer-events: none; fill: none; opacity: 1;"></path><g><g class="mark-symbol role-legend-symbol" style="pointer-events: none;"><path transform="translate(6,6)" d="M-5,-5h10v10h-10Z" style="fill: #4c78a8; stroke-width: 1.5; opacity: 1;"></path></g><g class="mark-text role-legend-label" style="pointer-events: none;"><text text-anchor="start" transform="translate(16,9)" style="font-family: sans-serif; font-size: 10px; fill: #000; opacity: 1;">A</text></g></g><path class="foreground" d="" style="pointer-events: none; display: none; fill: none;"></path></g><g transform="translate(0,13)"><path class="background" d="M0,0h23.6171875v11h-23.6171875Z" style="pointer-events: none; fill: none; opacity: 1;"></path><g><g class="mark-symbol role-legend-symbol" style="pointer-events: none;"><path transform="translate(6,6)" d="M-5,-5h10v10h-10Z" style="fill: #f58518; stroke-width: 1.5; opacity: 1;"></path></g><g class="mark-text role-legend-label" style="pointer-events: none;"><text text-anchor="start" transform="translate(16,9)" style="font-family: sans-serif; font-size: 10px; fill: #000; opacity: 1;">B</text></g></g><path class="foreground" d="" style="pointer-events: none; display: none; fill: none;"></path></g><g transform="translate(0,26)"><path class="background" d="M0,0h23.6171875v11h-23.6171875Z" style="pointer-events: none; fill: none; opacity: 1;"></path><g><g class="mark-symbol role-legend-symbol" style="pointer-events: none;"><path transform="translate(6,6)" d="M-5,-5h10v10h-10Z" style="fill: #e45756; stroke-width: 1.5; opacity: 1;"></path></g><g class="mark-text role-legend-label" style="pointer-events: none;"><text text-anchor="start" transform="translate(16,9)" style="font-family: sans-serif; font-size: 10px; fill: #000; opacity: 1;">C</text></g></g><path class="foreground" d="" style="pointer-events: none; display: none; fill: none;"></path></g><g transform="translate(0,39)"><path class="background" d="M0,0h23.6171875v11h-23.6171875Z" style="pointer-events: none; fill: none; opacity: 1;"></path><g><g class="mark-symbol role-legend-symbol" style="pointer-events: none;"><path transform="translate(6,6)" d="M-5,-5h10v10h-10Z" style="fill: #72b7b2; stroke-width: 1.5; opacity: 1;"></path></g><g class="mark-text role-legend-label" style="pointer-events: none;"><text text-anchor="start" transform="translate(16,9)" style="font-family: sans-serif; font-size: 10px; fill: #000; opacity: 1;">D</text></g></g><path class="foreground" d="" style="pointer-events: none; display: none; fill: none;"></path></g><g transform="translate(0,52)"><path class="background" d="M0,0h23.6171875v11h-23.6171875Z" style="pointer-events: none; fill: none; opacity: 1;"></path><g><g class="mark-symbol role-legend-symbol" style="pointer-events: none;"><path transform="translate(6,6)" d="M-5,-5h10v10h-10Z" style="fill: #54a24b; stroke-width: 1.5; opacity: 1;"></path></g><g class="mark-text role-legend-label" style="pointer-events: none;"><text text-anchor="start" transform="translate(16,9)" style="font-family: sans-serif; font-size: 10px; fill: #000; opacity: 1;">E</text></g></g><path class="foreground" d="" style="pointer-events: none; display: none; fill: none;"></path></g></g></g><path class="foreground" d="" style="pointer-events: none; display: none; fill: none;"></path></g></g><g class="mark-text role-legend-title" style="pointer-events: none;"><text text-anchor="start" transform="translate(0,9)" style="font-family: sans-serif; font-size: 11px; font-weight: bold; fill: #000; opacity: 1;">Problem Sets</text></g></g><path class="foreground" d="" style="pointer-events: none; display: none; fill: none;"></path></g></g></g><path class="foreground" d="" style="display: none; fill: none;"></path></g></g></g></svg>