<svg class="marks" width="853" height="101" viewBox="0 0 853 101" version="1.1" xmlns="http://www.w3.org/2000/svg" xmlns:xlink="http://www.w3.org/1999/xlink"><rect width="853" height="101" style="fill: white;"></rect><defs><linearGradient id="gradient_0" x1="0" x2="0" y1="1" y2="0"><stop offset="0" stop-color="rgb(140, 13, 37)"></stop><stop offset="0.04999999999999999" stop-color="rgb(166, 34, 48)"></stop><stop offset="0.09999999999999998" stop-color="rgb(191, 54, 58)"></stop><stop offset="0.15000000000000002" stop-color="rgb(207, 85, 76)"></stop><stop offset="0.2" stop-color="rgb(223, 116, 94)"></stop><stop offset="0.25" stop-color="rgb(234, 145, 120)"></stop><stop offset="0.3" stop-color="rgb(244, 174, 145)"></stop><stop offset="0.35" stop-color="rgb(248, 197, 173)"></stop><stop offset="0.4" stop-color="rgb(251, 219, 201)"></stop><stop offset="0.45" stop-color="rgb(247, 229, 220)"></stop><stop offset="0.5" stop-color="rgb(242, 239, 238)"></stop><stop offset="0.55" stop-color="rgb(226, 234, 239)"></stop><stop offset="0.6" stop-color="rgb(210, 229, 239)"></stop><stop offset="0.65" stop-color="rgb(184, 216, 232)"></stop><stop offset="0.7" stop-color="rgb(157, 202, 225)"></stop><stop offset="0.75" stop-color="rgb(125, 182, 214)"></stop><stop offset="0.8" stop-color="rgb(93, 162, 203)"></stop><stop offset="0.85" stop-color="rgb(70, 141, 191)"></stop><stop offset="0.9" stop-color="rgb(47, 120, 179)"></stop><stop offset="0.95" stop-color="rgb(33, 98, 156)"></stop><stop offset="1" stop-color="rgb(19, 75, 133)"></stop></linearGradient></defs><g transform="translate(86,15)"><g class="mark-group role-frame root"><g transform="translate(0,0)"><path class="background" d="M0.5,0.5h600v40h-600Z" style="fill: none; stroke: #ddd;"></path><g><g class="mark-group role-axis"><g transform="translate(0.5,40.5)"><path class="background" d="M0,0h0v0h0Z" style="pointer-events: none; fill: none;"></path><g><g class="mark-rule role-axis-tick" style="pointer-events: none;"><line transform="translate(5,0)" x2="0" y2="5" style="fill: none; stroke: #888; stroke-width: 1; opacity: 1;"></line><line transform="translate(15,0)" x2="0" y2="5" style="fill: none; stroke: #888; stroke-width: 1; opacity: 1;"></line><line transform="translate(25,0)" x2="0" y2="5" style="fill: none; stroke: #888; stroke-width: 1; opacity: 1;"></line><line transform="translate(35,0)" x2="0" y2="5" style="fill: none; stroke: #888; stroke-width: 1; opacity: 1;"></line><line transform="translate(45,0)" x2="0" y2="5" style="fill: none; stroke: #888; stroke-width: 1; opacity: 1;"></line><line transform="translate(55,0)" x2="0" y2="5" style="fill: none; stroke: #888; stroke-width: 1; opacity: 1;"></line><line transform="translate(65,0)" x2="0" y2="5" style="fill: none; stroke: #888; stroke-width: 1; opacity: 1;"></line><line transform="translate(75,0)" x2="0" y2="5" style="fill: none; stroke: #888; stroke-width: 1; opacity: 1;"></line><line transform="translate(85,0)" x2="0" y2="5" style="fill: none; stroke: #888; stroke-width: 1; opacity: 1;"></line><line transform="translate(95,0)" x2="0" y2="5" style="fill: none; stroke: #888; stroke-width: 1; opacity: 1;"></line><line transform="translate(105,0)" x2="0" y2="5" style="fill: none; stroke: #888; stroke-width: 1; opacity: 1;"></line><line transform="translate(115,0)" x2="0" y2="5" style="fill: none; stroke: #888; stroke-width: 1; opacity: 1;"></line><line transform="translate(125,0)" x2="0" y2="5" style="fill: none; stroke: #888; stroke-width: 1; opacity: 1;"></line><line transform="translate(135,0)" x2="0" y2="5" style="fill: none; stroke: #888; stroke-width: 1; opacity: 1;"></line><line transform="translate(145,0)" x2="0" y2="5" style="fill: none; stroke: #888; stroke-width: 1; opacity: 1;"></line><line transform="translate(155,0)" x2="0" y2="5" style="fill: none; stroke: #888; stroke-width: 1; opacity: 1;"></line><line transform="translate(165,0)" x2="0" y2="5" style="fill: none; stroke: #888; stroke-width: 1; opacity: 1;"></line><line transform="translate(175,0)" x2="0" y2="5" style="fill: none; stroke: #888; stroke-width: 1; opacity: 1;"></line><line transform="translate(185,0)" x2="0" y2="5" style="fill: none; stroke: #888; stroke-width: 1; opacity: 1;"></line><line transform="translate(195,0)" x2="0" y2="5" style="fill: none; stroke: #888; stroke-width: 1; opacity: 1;"></line><line transform="translate(205,0)" x2="0" y2="5" style="fill: none; stroke: #888; stroke-width: 1; opacity: 1;"></line><line transform="translate(215,0)" x2="0" y2="5" style="fill: none; stroke: #888; stroke-width: 1; opacity: 1;"></line><line transform="translate(225,0)" x2="0" y2="5" style="fill: none; stroke: #888; stroke-width: 1; opacity: 1;"></line><line transform="translate(235,0)" x2="0" y2="5" style="fill: none; stroke: #888; stroke-width: 1; opacity: 1;"></line><line transform="translate(245,0)" x2="0" y2="5" style="fill: none; stroke: #888; stroke-width: 1; opacity: 1;"></line><line transform="translate(255,0)" x2="0" y2="5" style="fill: none; stroke: #888; stroke-width: 1; opacity: 1;"></line><line transform="translate(265,0)" x2="0" y2="5" style="fill: none; stroke: #888; stroke-width: 1; opacity: 1;"></line><line transform="translate(275,0)" x2="0" y2="5" style="fill: none; stroke: #888; stroke-width: 1; opacity: 1;"></line><line transform="translate(285,0)" x2="0" y2="5" style="fill: none; stroke: #888; stroke-width: 1; opacity: 1;"></line><line transform="translate(295,0)" x2="0" y2="5" style="fill: none; stroke: #888; stroke-width: 1; opacity: 1;"></line><line transform="translate(305,0)" x2="0" y2="5" style="fill: none; stroke: #888; stroke-width: 1; opacity: 1;"></line><line transform="translate(315,0)" x2="0" y2="5" style="fill: none; stroke: #888; stroke-width: 1; opacity: 1;"></line><line transform="translate(325,0)" x2="0" y2="5" style="fill: none; stroke: #888; stroke-width: 1; opacity: 1;"></line><line transform="translate(335,0)" x2="0" y2="5" style="fill: none; stroke: #888; stroke-width: 1; opacity: 1;"></line><line transform="translate(345,0)" x2="0" y2="5" style="fill: none; stroke: #888; stroke-width: 1; opacity: 1;"></line><line transform="translate(355,0)" x2="0" y2="5" style="fill: none; stroke: #888; stroke-width: 1; opacity: 1;"></line><line transform="translate(365,0)" x2="0" y2="5" style="fill: none; stroke: #888; stroke-width: 1; opacity: 1;"></line><line transform="translate(375,0)" x2="0" y2="5" style="fill: none; stroke: #888; stroke-width: 1; opacity: 1;"></line><line transform="translate(385,0)" x2="0" y2="5" style="fill: none; stroke: #888; stroke-width: 1; opacity: 1;"></line><line transform="translate(395,0)" x2="0" y2="5" style="fill: none; stroke: #888; stroke-width: 1; opacity: 1;"></line><line transform="translate(405,0)" x2="0" y2="5" style="fill: none; stroke: #888; stroke-width: 1; opacity: 1;"></line><line transform="translate(415,0)" x2="0" y2="5" style="fill: none; stroke: #888; stroke-width: 1; opacity: 1;"></line><line transform="translate(425,0)" x2="0" y2="5" style="fill: none; stroke: #888; stroke-width: 1; opacity: 1;"></line><line transform="translate(435,0)" x2="0" y2="5" style="fill: none; stroke: #888; stroke-width: 1; opacity: 1;"></line><line transform="translate(445,0)" x2="0" y2="5" style="fill: none; stroke: #888; stroke-width: 1; opacity: 1;"></line><line transform="translate(455,0)" x2="0" y2="5" style="fill: none; stroke: #888; stroke-width: 1; opacity: 1;"></line><line transform="translate(465,0)" x2="0" y2="5" style="fill: none; stroke: #888; stroke-width: 1; opacity: 1;"></line><line transform="translate(475,0)" x2="0" y2="5" style="fill: none; stroke: #888; stroke-width: 1; opacity: 1;"></line><line transform="translate(485,0)" x2="0" y2="5" style="fill: none; stroke: #888; stroke-width: 1; opacity: 1;"></line><line transform="translate(495,0)" x2="0" y2="5" style="fill: none; stroke: #888; stroke-width: 1; opacity: 1;"></line><line transform="translate(505,0)" x2="0" y2="5" style="fill: none; stroke: #888; stroke-width: 1; opacity: 1;"></line><line transform="translate(515,0)" x2="0" y2="5" style="fill: none; stroke: #888; stroke-width: 1; opacity: 1;"></line><line transform="translate(525,0)" x2="0" y2="5" style="fill: none; stroke: #888; stroke-width: 1; opacity: 1;"></line><line transform="translate(535,0)" x2="0" y2="5" style="fill: none; stroke: #888; stroke-width: 1; opacity: 1;"></line><line transform="translate(545,0)" x2="0" y2="5" style="fill: none; stroke: #888; stroke-width: 1; opacity: 1;"></line><line transform="translate(555,0)" x2="0" y2="5" style="fill: none; stroke: #888; stroke-width: 1; opacity: 1;"></line><line transform="translate(565,0)" x2="0" y2="5" style="fill: none; stroke: #888; stroke-width: 1; opacity: 1;"></line><line transform="translate(575,0)" x2="0" y2="5" style="fill: none; stroke: #888; stroke-width: 1; opacity: 1;"></line><line transform="translate(585,0)" x2="0" y2="5" style="fill: none; stroke: #888; stroke-width: 1; opacity: 1;"></line><line transform="translate(595,0)" x2="0" y2="5" style="fill: none; stroke: #888; stroke-width: 1; opacity: 1;"></line></g><g class="mark-text role-axis-label" style="pointer-events: none;"><text text-anchor="end" transform="translate(5,7) rotate(270) translate(0,3)" style="font-family: sans-serif; font-size: 10px; fill: #000; opacity: 1;">a1</text><text text-anchor="end" transform="translate(15,7) rotate(270) translate(0,3)" style="font-family: sans-serif; font-size: 10px; fill: #000; opacity: 1;">a2</text><text text-anchor="end" transform="translate(25,7) rotate(270) translate(0,3)" style="font-family: sans-serif; font-size: 10px; fill: #000; opacity: 1;">a3</text><text text-anchor="end" transform="translate(35,7) rotate(270) translate(0,3)" style="font-family: sans-serif; font-size: 10px; fill: #000; opacity: 1;">a4</text><text text-anchor="end" transform="translate(45,7) rotate(270) translate(0,3)" style="font-family: sans-serif; font-size: 10px; fill: #000; opacity: 1;">a5</text><text text-anchor="end" transform="translate(55,7) rotate(270) translate(0,3)" style="font-family: sans-serif; font-size: 10px; fill: #000; opacity: 1;">a6</text><text text-anchor="end" transform="translate(65,7) rotate(270) translate(0,3)" style="font-family: sans-serif; font-size: 10px; fill: #000; opacity: 1;">a7</text><text text-anchor="end" transform="translate(75,7) rotate(270) translate(0,3)" style="font-family: sans-serif; font-size: 10px; fill: #000; opacity: 1;">a8</text><text text-anchor="end" transform="translate(85,7) rotate(270) translate(0,3)" style="font-family: sans-serif; font-size: 10px; fill: #000; opacity: 1;">a9</text><text text-anchor="end" transform="translate(95,7) rotate(270) translate(0,3)" style="font-family: sans-serif; font-size: 10px; fill: #000; opacity: 1;">a10</text><text text-anchor="end" transform="translate(105,7) rotate(270) translate(0,3)" style="font-family: sans-serif; font-size: 10px; fill: #000; opacity: 1;">a11</text><text text-anchor="end" transform="translate(115,7) rotate(270) translate(0,3)" style="font-family: sans-serif; font-size: 10px; fill: #000; opacity: 1;">a12</text><text text-anchor="end" transform="translate(125,7) rotate(270) translate(0,3)" style="font-family: sans-serif; font-size: 10px; fill: #000; opacity: 1;">b1</text><text text-anchor="end" transform="translate(135,7) rotate(270) translate(0,3)" style="font-family: sans-serif; font-size: 10px; fill: #000; opacity: 1;">b2</text><text text-anchor="end" transform="translate(145,7) rotate(270) translate(0,3)" style="font-family: sans-serif; font-size: 10px; fill: #000; opacity: 1;">b3</text><text text-anchor="end" transform="translate(155,7) rotate(270) translate(0,3)" style="font-family: sans-serif; font-size: 10px; fill: #000; opacity: 1;">b4</text><text text-anchor="end" transform="translate(165,7) rotate(270) translate(0,3)" style="font-family: sans-serif; font-size: 10px; fill: #000; opacity: 1;">b5</text><text text-anchor="end" transform="translate(175,7) rotate(270) translate(0,3)" style="font-family: sans-serif; font-size: 10px; fill: #000; opacity: 1;">b6</text><text text-anchor="end" transform="translate(185,7) rotate(270) translate(0,3)" style="font-family: sans-serif; font-size: 10px; fill: #000; opacity: 1;">b7</text><text text-anchor="end" transform="translate(195,7) rotate(270) translate(0,3)" style="font-family: sans-serif; font-size: 10px; fill: #000; opacity: 1;">b8</text><text text-anchor="end" transform="translate(205,7) rotate(270) translate(0,3)" style="font-family: sans-serif; font-size: 10px; fill: #000; opacity: 1;">b9</text><text text-anchor="end" transform="translate(215,7) rotate(270) translate(0,3)" style="font-family: sans-serif; font-size: 10px; fill: #000; opacity: 1;">b10</text><text text-anchor="end" transform="translate(225,7) rotate(270) translate(0,3)" style="font-family: sans-serif; font-size: 10px; fill: #000; opacity: 1;">b11</text><text text-anchor="end" transform="translate(235,7) rotate(270) translate(0,3)" style="font-family: sans-serif; font-size: 10px; fill: #000; opacity: 1;">b12</text><text text-anchor="end" transform="translate(245,7) rotate(270) translate(0,3)" style="font-family: sans-serif; font-size: 10px; fill: #000; opacity: 1;">c1</text><text text-anchor="end" transform="translate(255,7) rotate(270) translate(0,3)" style="font-family: sans-serif; font-size: 10px; fill: #000; opacity: 1;">c2</text><text text-anchor="end" transform="translate(265,7) rotate(270) translate(0,3)" style="font-family: sans-serif; font-size: 10px; fill: #000; opacity: 1;">c3</text><text text-anchor="end" transform="translate(275,7) rotate(270) translate(0,3)" style="font-family: sans-serif; font-size: 10px; fill: #000; opacity: 1;">c4</text><text text-anchor="end" transform="translate(285,7) rotate(270) translate(0,3)" style="font-family: sans-serif; font-size: 10px; fill: #000; opacity: 1;">c5</text><text text-anchor="end" transform="translate(295,7) rotate(270) translate(0,3)" style="font-family: sans-serif; font-size: 10px; fill: #000; opacity: 1;">c6</text><text text-anchor="end" transform="translate(305,7) rotate(270) translate(0,3)" style="font-family: sans-serif; font-size: 10px; fill: #000; opacity: 1;">c7</text><text text-anchor="end" transform="translate(315,7) rotate(270) translate(0,3)" style="font-family: sans-serif; font-size: 10px; fill: #000; opacity: 1;">c8</text><text text-anchor="end" transform="translate(325,7) rotate(270) translate(0,3)" style="font-family: sans-serif; font-size: 10px; fill: #000; opacity: 1;">c9</text><text text-anchor="end" transform="translate(335,7) rotate(270) translate(0,3)" style="font-family: sans-serif; font-size: 10px; fill: #000; opacity: 1;">c10</text><text text-anchor="end" transform="translate(345,7) rotate(270) translate(0,3)" style="font-family: sans-serif; font-size: 10px; fill: #000; opacity: 1;">c11</text><text text-anchor="end" transform="translate(355,7) rotate(270) translate(0,3)" style="font-family: sans-serif; font-size: 10px; fill: #000; opacity: 1;">c12</text><text text-anchor="end" transform="translate(365,7) rotate(270) translate(0,3)" style="font-family: sans-serif; font-size: 10px; fill: #000; opacity: 1;">d1</text><text text-anchor="end" transform="translate(375,7) rotate(270) translate(0,3)" style="font-family: sans-serif; font-size: 10px; fill: #000; opacity: 1;">d2</text><text text-anchor="end" transform="translate(385,7) rotate(270) translate(0,3)" style="font-family: sans-serif; font-size: 10px; fill: #000; opacity: 1;">d3</text><text text-anchor="end" transform="translate(395,7) rotate(270) translate(0,3)" style="font-family: sans-serif; font-size: 10px; fill: #000; opacity: 1;">d4</text><text text-anchor="end" transform="translate(405,7) rotate(270) translate(0,3)" style="font-family: sans-serif; font-size: 10px; fill: #000; opacity: 1;">d5</text><text text-anchor="end" transform="translate(415,7) rotate(270) translate(0,3)" style="font-family: sans-serif; font-size: 10px; fill: #000; opacity: 1;">d6</text><text text-anchor="end" transform="translate(425,7) rotate(270) translate(0,3)" style="font-family: sans-serif; font-size: 10px; fill: #000; opacity: 1;">d7</text><text text-anchor="end" transform="translate(435,7) rotate(270) translate(0,3)" style="font-family: sans-serif; font-size: 10px; fill: #000; opacity: 1;">d8</text><text text-anchor="end" transform="translate(445,7) rotate(270) translate(0,3)" style="font-family: sans-serif; font-size: 10px; fill: #000; opacity: 1;">d9</text><text text-anchor="end" transform="translate(455,7) rotate(270) translate(0,3)" style="font-family: sans-serif; font-size: 10px; fill: #000; opacity: 1;">d10</text><text text-anchor="end" transform="translate(465,7) rotate(270) translate(0,3)" style="font-family: sans-serif; font-size: 10px; fill: #000; opacity: 1;">d11</text><text text-anchor="end" transform="translate(475,7) rotate(270) translate(0,3)" style="font-family: sans-serif; font-size: 10px; fill: #000; opacity: 1;">d12</text><text text-anchor="end" transform="translate(485,7) rotate(270) translate(0,3)" style="font-family: sans-serif; font-size: 10px; fill: #000; opacity: 1;">e1</text><text text-anchor="end" transform="translate(495,7) rotate(270) translate(0,3)" style="font-family: sans-serif; font-size: 10px; fill: #000; opacity: 1;">e2</text><text text-anchor="end" transform="translate(505,7) rotate(270) translate(0,3)" style="font-family: sans-serif; font-size: 10px; fill: #000; opacity: 1;">e3</text><text text-anchor="end" transform="translate(515,7) rotate(270) translate(0,3)" style="font-family: sans-serif; font-size: 10px; fill: #000; opacity: 1;">e4</text><text text-anchor="end" transform="translate(525,7) rotate(270) translate(0,3)" style="font-family: sans-serif; font-size: 10px; fill: #000; opacity: 1;">e5</text><text text-anchor="end" transform="translate(535,7) rotate(270) translate(0,3)" style="font-family: sans-serif; font-size: 10px; fill: #000; opacity: 1;">e6</text><text text-anchor="end" transform="translate(545,7) rotate(270) translate(0,3)" style="font-family: sans-serif; font-size: 10px; fill: #000; opacity: 1;">e7</text><text text-anchor="end" transform="translate(555,7) rotate(270) translate(0,3)" style="font-family: sans-serif; font-size: 10px; fill: #000; opacity: 1;">e8</text><text text-anchor="end" transform="translate(565,7) rotate(270) translate(0,3)" style="font-family: sans-serif; font-size: 10px; fill: #000; opacity: 1;">e9</text><text text-anchor="end" transform="translate(575,7) rotate(270) translate(0,3)" style="font-family: sans-serif; font-size: 10px; fill: #000; opacity: 1;">e10</text><text text-anchor="end" transform="translate(585,7) rotate(270) translate(0,3)" style="font-family: sans-serif; font-size: 10px; fill: #000; opacity: 1;">e11</text><text text-anchor="end" transform="translate(595,7) rotate(270) translate(0,3)" style="font-family: sans-serif; font-size: 10px; fill: #000; opacity: 1;">e12</text></g><g class="mark-rule role-axis-domain" style="pointer-events: none;"><line transform="translate(0,0)" x2="600" y2="0" style="fill: none; stroke: #888; stroke-width: 1; opacity: 1;"></line></g><g class="mark-text role-axis-title" style="pointer-events: none;"><text text-anchor="middle" transform="translate(300,38.125)" style="font-family: sans-serif; font-size: 11px; font-weight: bold; fill: #000; opacity: 1;">Problems</text></g></g><path class="foreground" d="" style="pointer-events: none; display: none; fill: none;"></path></g></g><g class="mark-group role-axis"><g transform="translate(0.5,0.5)"><path class="background" d="M0,0h0v0h0Z" style="pointer-events: none; fill: none;"></path><g><g class="mark-rule role-axis-tick" style="pointer-events: none;"><line transform="translate(0,7)" x2="-5" y2="0" style="fill: none; stroke: #888; stroke-width: 1; opacity: 1;"></line><line transform="translate(0,20)" x2="-5" y2="0" style="fill: none; stroke: #888; stroke-width: 1; opacity: 1;"></line><line transform="translate(0,33)" x2="-5" y2="0" style="fill: none; stroke: #888; stroke-width: 1; opacity: 1;"></line></g><g class="mark-text role-axis-label" style="pointer-events: none;"><text text-anchor="end" transform="translate(-7,9.666666666666666)" style="font-family: sans-serif; font-size: 10px; fill: #000; opacity: 1;">O-confident</text><text text-anchor="end" transform="translate(-7,23)" style="font-family: sans-serif; font-size: 10px; fill: #000; opacity: 1;">O-neutral</text><text text-anchor="end" transform="translate(-7,36.333333333333336)" style="font-family: sans-serif; font-size: 10px; fill: #000; opacity: 1;">O-prudent</text></g><g class="mark-rule role-axis-domain" style="pointer-events: none;"><line transform="translate(0,0)" x2="0" y2="40" style="fill: none; stroke: #888; stroke-width: 1; opacity: 1;"></line></g><g class="mark-text role-axis-title" style="pointer-events: none;"><text text-anchor="middle" transform="translate(-69.095703125,20) rotate(-90) translate(0,-2)" style="font-family: sans-serif; font-size: 11px; font-weight: bold; fill: #000; opacity: 1;">Strategy</text></g></g><path class="foreground" d="" style="pointer-events: none; display: none; fill: none;"></path></g></g><g class="mark-symbol role-mark marks"><path transform="translate(15,6.666666666666666)" d="M3.6519790010325406,0A3.6519790010325406,3.6519790010325406,0,1,1,-3.6519790010325406,0A3.6519790010325406,3.6519790010325406,0,1,1,3.6519790010325406,0" style="fill: rgb(131, 186, 216); stroke-width: 2; opacity: 0.7;"></path><path transform="translate(5,6.666666666666666)" d="M3.947470616970399,0A3.947470616970399,3.947470616970399,0,1,1,-3.947470616970399,0A3.947470616970399,3.947470616970399,0,1,1,3.947470616970399,0" style="fill: rgb(120, 179, 212); stroke-width: 2; opacity: 0.7;"></path><path transform="translate(25,6.666666666666666)" d="M4.393322551577708,0A4.393322551577708,4.393322551577708,0,1,1,-4.393322551577708,0A4.393322551577708,4.393322551577708,0,1,1,4.393322551577708,0" style="fill: rgb(92, 161, 202); stroke-width: 2; opacity: 0.7;"></path><path transform="translate(35,6.666666666666666)" d="M4.292265343165883,0A4.292265343165883,4.292265343165883,0,1,1,-4.292265343165883,0A4.292265343165883,4.292265343165883,0,1,1,4.292265343165883,0" style="fill: rgb(89, 158, 201); stroke-width: 2; opacity: 0.7;"></path><path transform="translate(45,6.666666666666666)" d="M4.08286693953009,0A4.08286693953009,4.08286693953009,0,1,1,-4.08286693953009,0A4.08286693953009,4.08286693953009,0,1,1,4.08286693953009,0" style="fill: rgb(94, 163, 203); stroke-width: 2; opacity: 0.7;"></path><path transform="translate(55,6.666666666666666)" d="M4.375782261296569,0A4.375782261296569,4.375782261296569,0,1,1,-4.375782261296569,0A4.375782261296569,4.375782261296569,0,1,1,4.375782261296569,0" style="fill: rgb(53, 125, 182); stroke-width: 2; opacity: 0.7;"></path><path transform="translate(75,6.666666666666666)" d="M4.317438521538359,0A4.317438521538359,4.317438521538359,0,1,1,-4.317438521538359,0A4.317438521538359,4.317438521538359,0,1,1,4.317438521538359,0" style="fill: rgb(46, 119, 178); stroke-width: 2; opacity: 0.7;"></path><path transform="translate(65,6.666666666666666)" d="M4.402436064154603,0A4.402436064154603,4.402436064154603,0,1,1,-4.402436064154603,0A4.402436064154603,4.402436064154603,0,1,1,4.402436064154603,0" style="fill: rgb(68, 139, 190); stroke-width: 2; opacity: 0.7;"></path><path transform="translate(95,6.666666666666666)" d="M4.47213595499958,0A4.47213595499958,4.47213595499958,0,1,1,-4.47213595499958,0A4.47213595499958,4.47213595499958,0,1,1,4.47213595499958,0" style="fill: rgb(39, 107, 166); stroke-width: 2; opacity: 0.7;"></path><path transform="translate(115,6.666666666666666)" d="M2.9327308895310717,0A2.9327308895310717,2.9327308895310717,0,1,1,-2.9327308895310717,0A2.9327308895310717,2.9327308895310717,0,1,1,2.9327308895310717,0" style="fill: rgb(94, 163, 203); stroke-width: 2; opacity: 0.7;"></path><path transform="translate(105,6.666666666666666)" d="M3.667885828946052,0A3.667885828946052,3.667885828946052,0,1,1,-3.667885828946052,0A3.667885828946052,3.667885828946052,0,1,1,3.667885828946052,0" style="fill: rgb(124, 181, 214); stroke-width: 2; opacity: 0.7;"></path><path transform="translate(125,6.666666666666666)" d="M4.449287400164992,0A4.449287400164992,4.449287400164992,0,1,1,-4.449287400164992,0A4.449287400164992,4.449287400164992,0,1,1,4.449287400164992,0" style="fill: rgb(80, 150, 196); stroke-width: 2; opacity: 0.7;"></path><path transform="translate(135,6.666666666666666)" d="M4.394194248031246,0A4.394194248031246,4.394194248031246,0,1,1,-4.394194248031246,0A4.394194248031246,4.394194248031246,0,1,1,4.394194248031246,0" style="fill: rgb(61, 133, 186); stroke-width: 2; opacity: 0.7;"></path><path transform="translate(145,6.666666666666666)" d="M4.452900872493965,0A4.452900872493965,4.452900872493965,0,1,1,-4.452900872493965,0A4.452900872493965,4.452900872493965,0,1,1,4.452900872493965,0" style="fill: rgb(78, 148, 195); stroke-width: 2; opacity: 0.7;"></path><path transform="translate(85,6.666666666666666)" d="M4.47213595499958,0A4.47213595499958,4.47213595499958,0,1,1,-4.47213595499958,0A4.47213595499958,4.47213595499958,0,1,1,4.47213595499958,0" style="fill: rgb(27, 89, 147); stroke-width: 2; opacity: 0.7;"></path><path transform="translate(155,6.666666666666666)" d="M4.1952826637375,0A4.1952826637375,4.1952826637375,0,1,1,-4.1952826637375,0A4.1952826637375,4.1952826637375,0,1,1,4.1952826637375,0" style="fill: rgb(33, 97, 155); stroke-width: 2; opacity: 0.7;"></path><path transform="translate(165,6.666666666666666)" d="M3.8680741756651127,0A3.8680741756651127,3.8680741756651127,0,1,1,-3.8680741756651127,0A3.8680741756651127,3.8680741756651127,0,1,1,3.8680741756651127,0" style="fill: rgb(33, 97, 156); stroke-width: 2; opacity: 0.7;"></path><path transform="translate(175,6.666666666666666)" d="M4.216136690796532,0A4.216136690796532,4.216136690796532,0,1,1,-4.216136690796532,0A4.216136690796532,4.216136690796532,0,1,1,4.216136690796532,0" style="fill: rgb(42, 112, 171); stroke-width: 2; opacity: 0.7;"></path><path transform="translate(185,6.666666666666666)" d="M4.430331234988581,0A4.430331234988581,4.430331234988581,0,1,1,-4.430331234988581,0A4.430331234988581,4.430331234988581,0,1,1,4.430331234988581,0" style="fill: rgb(29, 91, 149); stroke-width: 2; opacity: 0.7;"></path><path transform="translate(205,6.666666666666666)" d="M4.391619422887192,0A4.391619422887192,4.391619422887192,0,1,1,-4.391619422887192,0A4.391619422887192,4.391619422887192,0,1,1,4.391619422887192,0" style="fill: rgb(79, 149, 196); stroke-width: 2; opacity: 0.7;"></path><path transform="translate(195,6.666666666666666)" d="M4.301162633521313,0A4.301162633521313,4.301162633521313,0,1,1,-4.301162633521313,0A4.301162633521313,4.301162633521313,0,1,1,4.301162633521313,0" style="fill: rgb(39, 107, 166); stroke-width: 2; opacity: 0.7;"></path><path transform="translate(215,6.666666666666666)" d="M4.0862965279873835,0A4.0862965279873835,4.0862965279873835,0,1,1,-4.0862965279873835,0A4.0862965279873835,4.0862965279873835,0,1,1,4.0862965279873835,0" style="fill: rgb(44, 115, 174); stroke-width: 2; opacity: 0.7;"></path><path transform="translate(245,6.666666666666666)" d="M4.2800564525823885,0A4.2800564525823885,4.2800564525823885,0,1,1,-4.2800564525823885,0A4.2800564525823885,4.2800564525823885,0,1,1,4.2800564525823885,0" style="fill: rgb(113, 175, 210); stroke-width: 2; opacity: 0.7;"></path><path transform="translate(235,6.666666666666666)" d="M4.299546824689047,0A4.299546824689047,4.299546824689047,0,1,1,-4.299546824689047,0A4.299546824689047,4.299546824689047,0,1,1,4.299546824689047,0" style="fill: rgb(43, 113, 172); stroke-width: 2; opacity: 0.7;"></path><path transform="translate(255,6.666666666666666)" d="M4.186413413916469,0A4.186413413916469,4.186413413916469,0,1,1,-4.186413413916469,0A4.186413413916469,4.186413413916469,0,1,1,4.186413413916469,0" style="fill: rgb(158, 27, 44); stroke-width: 2; opacity: 0.7;"></path><path transform="translate(295,6.666666666666666)" d="M4.42021315280734,0A4.42021315280734,4.42021315280734,0,1,1,-4.42021315280734,0A4.42021315280734,4.42021315280734,0,1,1,4.42021315280734,0" style="fill: rgb(28, 90, 148); stroke-width: 2; opacity: 0.7;"></path><path transform="translate(265,6.666666666666666)" d="M4.404123961510887,0A4.404123961510887,4.404123961510887,0,1,1,-4.404123961510887,0A4.404123961510887,4.404123961510887,0,1,1,4.404123961510887,0" style="fill: rgb(28, 89, 147); stroke-width: 2; opacity: 0.7;"></path><path transform="translate(225,6.666666666666666)" d="M4.199286974067504,0A4.199286974067504,4.199286974067504,0,1,1,-4.199286974067504,0A4.199286974067504,4.199286974067504,0,1,1,4.199286974067504,0" style="fill: rgb(55, 127, 183); stroke-width: 2; opacity: 0.7;"></path><path transform="translate(275,6.666666666666666)" d="M4.103977424970477,0A4.103977424970477,4.103977424970477,0,1,1,-4.103977424970477,0A4.103977424970477,4.103977424970477,0,1,1,4.103977424970477,0" style="fill: rgb(77, 148, 195); stroke-width: 2; opacity: 0.7;"></path><path transform="translate(285,6.666666666666666)" d="M4.401022075152032,0A4.401022075152032,4.401022075152032,0,1,1,-4.401022075152032,0A4.401022075152032,4.401022075152032,0,1,1,4.401022075152032,0" style="fill: rgb(53, 126, 182); stroke-width: 2; opacity: 0.7;"></path><path transform="translate(305,6.666666666666666)" d="M4.179598991916691,0A4.179598991916691,4.179598991916691,0,1,1,-4.179598991916691,0A4.179598991916691,4.179598991916691,0,1,1,4.179598991916691,0" style="fill: rgb(22, 80, 138); stroke-width: 2; opacity: 0.7;"></path><path transform="translate(315,6.666666666666666)" d="M3.9196542212121304,0A3.9196542212121304,3.9196542212121304,0,1,1,-3.9196542212121304,0A3.9196542212121304,3.9196542212121304,0,1,1,3.9196542212121304,0" style="fill: rgb(62, 133, 187); stroke-width: 2; opacity: 0.7;"></path><path transform="translate(325,6.666666666666666)" d="M3.393306312945399,0A3.393306312945399,3.393306312945399,0,1,1,-3.393306312945399,0A3.393306312945399,3.393306312945399,0,1,1,3.393306312945399,0" style="fill: rgb(101, 167, 206); stroke-width: 2; opacity: 0.7;"></path><path transform="translate(345,6.666666666666666)" d="M4.336450889930412,0A4.336450889930412,4.336450889930412,0,1,1,-4.336450889930412,0A4.336450889930412,4.336450889930412,0,1,1,4.336450889930412,0" style="fill: rgb(57, 130, 184); stroke-width: 2; opacity: 0.7;"></path><path transform="translate(355,6.666666666666666)" d="M3.8812423293978586,0A3.8812423293978586,3.8812423293978586,0,1,1,-3.8812423293978586,0A3.8812423293978586,3.8812423293978586,0,1,1,3.8812423293978586,0" style="fill: rgb(57, 129, 184); stroke-width: 2; opacity: 0.7;"></path><path transform="translate(335,6.666666666666666)" d="M3.9245609582238106,0A3.9245609582238106,3.9245609582238106,0,1,1,-3.9245609582238106,0A3.9245609582238106,3.9245609582238106,0,1,1,3.9245609582238106,0" style="fill: rgb(91, 160, 202); stroke-width: 2; opacity: 0.7;"></path><path transform="translate(375,6.666666666666666)" d="M4.384345455509483,0A4.384345455509483,4.384345455509483,0,1,1,-4.384345455509483,0A4.384345455509483,4.384345455509483,0,1,1,4.384345455509483,0" style="fill: rgb(130, 185, 216); stroke-width: 2; opacity: 0.7;"></path><path transform="translate(385,6.666666666666666)" d="M4.3069283998201655,0A4.3069283998201655,4.3069283998201655,0,1,1,-4.3069283998201655,0A4.3069283998201655,4.3069283998201655,0,1,1,4.3069283998201655,0" style="fill: rgb(92, 162, 203); stroke-width: 2; opacity: 0.7;"></path><path transform="translate(395,6.666666666666666)" d="M4.343944221452064,0A4.343944221452064,4.343944221452064,0,1,1,-4.343944221452064,0A4.343944221452064,4.343944221452064,0,1,1,4.343944221452064,0" style="fill: rgb(49, 122, 180); stroke-width: 2; opacity: 0.7;"></path><path transform="translate(365,6.666666666666666)" d="M4.374625857870678,0A4.374625857870678,4.374625857870678,0,1,1,-4.374625857870678,0A4.374625857870678,4.374625857870678,0,1,1,4.374625857870678,0" style="fill: rgb(86, 156, 200); stroke-width: 2; opacity: 0.7;"></path><path transform="translate(405,6.666666666666666)" d="M4.131622770480023,0A4.131622770480023,4.131622770480023,0,1,1,-4.131622770480023,0A4.131622770480023,4.131622770480023,0,1,1,4.131622770480023,0" style="fill: rgb(42, 113, 171); stroke-width: 2; opacity: 0.7;"></path><path transform="translate(415,6.666666666666666)" d="M3.761234299138471,0A3.761234299138471,3.761234299138471,0,1,1,-3.761234299138471,0A3.761234299138471,3.761234299138471,0,1,1,3.761234299138471,0" style="fill: rgb(50, 123, 181); stroke-width: 2; opacity: 0.7;"></path><path transform="translate(425,6.666666666666666)" d="M4.015516910242917,0A4.015516910242917,4.015516910242917,0,1,1,-4.015516910242917,0A4.015516910242917,4.015516910242917,0,1,1,4.015516910242917,0" style="fill: rgb(51, 124, 181); stroke-width: 2; opacity: 0.7;"></path><path transform="translate(455,6.666666666666666)" d="M3.887456549087957,0A3.887456549087957,3.887456549087957,0,1,1,-3.887456549087957,0A3.887456549087957,3.887456549087957,0,1,1,3.887456549087957,0" style="fill: rgb(36, 102, 161); stroke-width: 2; opacity: 0.7;"></path><path transform="translate(435,6.666666666666666)" d="M4.03555032186958,0A4.03555032186958,4.03555032186958,0,1,1,-4.03555032186958,0A4.03555032186958,4.03555032186958,0,1,1,4.03555032186958,0" style="fill: rgb(68, 140, 190); stroke-width: 2; opacity: 0.7;"></path><path transform="translate(445,6.666666666666666)" d="M4.063058823745075,0A4.063058823745075,4.063058823745075,0,1,1,-4.063058823745075,0A4.063058823745075,4.063058823745075,0,1,1,4.063058823745075,0" style="fill: rgb(61, 133, 186); stroke-width: 2; opacity: 0.7;"></path><path transform="translate(465,6.666666666666666)" d="M3.708606609235196,0A3.708606609235196,3.708606609235196,0,1,1,-3.708606609235196,0A3.708606609235196,3.708606609235196,0,1,1,3.708606609235196,0" style="fill: rgb(57, 130, 184); stroke-width: 2; opacity: 0.7;"></path><path transform="translate(475,6.666666666666666)" d="M3.1544673920016715,0A3.1544673920016715,3.1544673920016715,0,1,1,-3.1544673920016715,0A3.1544673920016715,3.1544673920016715,0,1,1,3.1544673920016715,0" style="fill: rgb(236, 153, 127); stroke-width: 2; opacity: 0.7;"></path><path transform="translate(485,6.666666666666666)" d="M3.921931565793054,0A3.921931565793054,3.921931565793054,0,1,1,-3.921931565793054,0A3.921931565793054,3.921931565793054,0,1,1,3.921931565793054,0" style="fill: rgb(37, 104, 163); stroke-width: 2; opacity: 0.7;"></path><path transform="translate(495,6.666666666666666)" d="M4.059941615263874,0A4.059941615263874,4.059941615263874,0,1,1,-4.059941615263874,0A4.059941615263874,4.059941615263874,0,1,1,4.059941615263874,0" style="fill: rgb(39, 106, 165); stroke-width: 2; opacity: 0.7;"></path><path transform="translate(505,6.666666666666666)" d="M4.18835524708441,0A4.18835524708441,4.18835524708441,0,1,1,-4.18835524708441,0A4.18835524708441,4.18835524708441,0,1,1,4.18835524708441,0" style="fill: rgb(30, 92, 150); stroke-width: 2; opacity: 0.7;"></path><path transform="translate(525,6.666666666666666)" d="M3.406078653440647,0A3.406078653440647,3.406078653440647,0,1,1,-3.406078653440647,0A3.406078653440647,3.406078653440647,0,1,1,3.406078653440647,0" style="fill: rgb(240, 164, 136); stroke-width: 2; opacity: 0.7;"></path><path transform="translate(535,6.666666666666666)" d="M3.9217363417708695,0A3.9217363417708695,3.9217363417708695,0,1,1,-3.9217363417708695,0A3.9217363417708695,3.9217363417708695,0,1,1,3.9217363417708695,0" style="fill: rgb(112, 174, 209); stroke-width: 2; opacity: 0.7;"></path><path transform="translate(515,6.666666666666666)" d="M3.8853985503091466,0A3.8853985503091466,3.8853985503091466,0,1,1,-3.8853985503091466,0A3.8853985503091466,3.8853985503091466,0,1,1,3.8853985503091466,0" style="fill: rgb(93, 162, 203); stroke-width: 2; opacity: 0.7;"></path><path transform="translate(545,6.666666666666666)" d="M3.2480985602405354,0A3.2480985602405354,3.2480985602405354,0,1,1,-3.2480985602405354,0A3.2480985602405354,3.2480985602405354,0,1,1,3.2480985602405354,0" style="fill: rgb(74, 145, 193); stroke-width: 2; opacity: 0.7;"></path><path transform="translate(565,6.666666666666666)" d="M4.008260885591793,0A4.008260885591793,4.008260885591793,0,1,1,-4.008260885591793,0A4.008260885591793,4.008260885591793,0,1,1,4.008260885591793,0" style="fill: rgb(32, 96, 154); stroke-width: 2; opacity: 0.7;"></path><path transform="translate(555,6.666666666666666)" d="M3.623047704601315,0A3.623047704601315,3.623047704601315,0,1,1,-3.623047704601315,0A3.623047704601315,3.623047704601315,0,1,1,3.623047704601315,0" style="fill: rgb(39, 108, 166); stroke-width: 2; opacity: 0.7;"></path><path transform="translate(575,6.666666666666666)" d="M3.398356975163269,0A3.398356975163269,3.398356975163269,0,1,1,-3.398356975163269,0A3.398356975163269,3.398356975163269,0,1,1,3.398356975163269,0" style="fill: rgb(240, 163, 135); stroke-width: 2; opacity: 0.7;"></path><path transform="translate(585,6.666666666666666)" d="M3.569277668026006,0A3.569277668026006,3.569277668026006,0,1,1,-3.569277668026006,0A3.569277668026006,3.569277668026006,0,1,1,3.569277668026006,0" style="fill: rgb(80, 150, 196); stroke-width: 2; opacity: 0.7;"></path><path transform="translate(595,6.666666666666666)" d="M3.077100238301853,0A3.077100238301853,3.077100238301853,0,1,1,-3.077100238301853,0A3.077100238301853,3.077100238301853,0,1,1,3.077100238301853,0" style="fill: rgb(198, 68, 66); stroke-width: 2; opacity: 0.7;"></path><path transform="translate(15,33.333333333333336)" d="M2.6505818195638566,0A2.6505818195638566,2.6505818195638566,0,1,1,-2.6505818195638566,0A2.6505818195638566,2.6505818195638566,0,1,1,2.6505818195638566,0" style="fill: rgb(64, 135, 188); stroke-width: 2; opacity: 0.7;"></path><path transform="translate(5,33.333333333333336)" d="MNaN,0" style="fill: rgb(140, 13, 37); stroke-width: 2; opacity: 0.7;"></path><path transform="translate(45,33.333333333333336)" d="M2.763082165887355,0A2.763082165887355,2.763082165887355,0,1,1,-2.763082165887355,0A2.763082165887355,2.763082165887355,0,1,1,2.763082165887355,0" style="fill: rgb(87, 156, 200); stroke-width: 2; opacity: 0.7;"></path><path transform="translate(25,33.333333333333336)" d="M4.171239032845993,0A4.171239032845993,4.171239032845993,0,1,1,-4.171239032845993,0A4.171239032845993,4.171239032845993,0,1,1,4.171239032845993,0" style="fill: rgb(46, 118, 177); stroke-width: 2; opacity: 0.7;"></path><path transform="translate(55,33.333333333333336)" d="M4.176895736083835,0A4.176895736083835,4.176895736083835,0,1,1,-4.176895736083835,0A4.176895736083835,4.176895736083835,0,1,1,4.176895736083835,0" style="fill: rgb(28, 89, 148); stroke-width: 2; opacity: 0.7;"></path><path transform="translate(65,33.333333333333336)" d="M4.1513718800661445,0A4.1513718800661445,4.1513718800661445,0,1,1,-4.1513718800661445,0A4.1513718800661445,4.1513718800661445,0,1,1,4.1513718800661445,0" style="fill: rgb(25, 84, 142); stroke-width: 2; opacity: 0.7;"></path><path transform="translate(35,33.333333333333336)" d="M4.055939848645749,0A4.055939848645749,4.055939848645749,0,1,1,-4.055939848645749,0A4.055939848645749,4.055939848645749,0,1,1,4.055939848645749,0" style="fill: rgb(39, 107, 166); stroke-width: 2; opacity: 0.7;"></path><path transform="translate(75,33.333333333333336)" d="M0.36837085807453945,0A0.36837085807453945,0.36837085807453945,0,1,1,-0.36837085807453945,0A0.36837085807453945,0.36837085807453945,0,1,1,0.36837085807453945,0" style="fill: rgb(154, 24, 43); stroke-width: 2; opacity: 0.7;"></path><path transform="translate(95,33.333333333333336)" d="M4.320031255491164,0A4.320031255491164,4.320031255491164,0,1,1,-4.320031255491164,0A4.320031255491164,4.320031255491164,0,1,1,4.320031255491164,0" style="fill: rgb(34, 100, 158); stroke-width: 2; opacity: 0.7;"></path><path transform="translate(85,33.333333333333336)" d="M4.375290778783406,0A4.375290778783406,4.375290778783406,0,1,1,-4.375290778783406,0A4.375290778783406,4.375290778783406,0,1,1,4.375290778783406,0" style="fill: rgb(27, 87, 145); stroke-width: 2; opacity: 0.7;"></path><path transform="translate(115,33.333333333333336)" d="MNaN,0" style="fill: rgb(210, 91, 79); stroke-width: 2; opacity: 0.7;"></path><path transform="translate(105,33.333333333333336)" d="M2.8848586120799338,0A2.8848586120799338,2.8848586120799338,0,1,1,-2.8848586120799338,0A2.8848586120799338,2.8848586120799338,0,1,1,2.8848586120799338,0" style="fill: rgb(85, 154, 199); stroke-width: 2; opacity: 0.7;"></path><path transform="translate(125,33.333333333333336)" d="M4.421324534003636,0A4.421324534003636,4.421324534003636,0,1,1,-4.421324534003636,0A4.421324534003636,4.421324534003636,0,1,1,4.421324534003636,0" style="fill: rgb(20, 77, 135); stroke-width: 2; opacity: 0.7;"></path><path transform="translate(135,33.333333333333336)" d="M4.283416121299547,0A4.283416121299547,4.283416121299547,0,1,1,-4.283416121299547,0A4.283416121299547,4.283416121299547,0,1,1,4.283416121299547,0" style="fill: rgb(30, 92, 150); stroke-width: 2; opacity: 0.7;"></path><path transform="translate(145,33.333333333333336)" d="MNaN,0" style="fill: rgb(143, 15, 38); stroke-width: 2; opacity: 0.7;"></path><path transform="translate(155,33.333333333333336)" d="MNaN,0" style="fill: rgb(150, 21, 41); stroke-width: 2; opacity: 0.7;"></path><path transform="translate(175,33.333333333333336)" d="MNaN,0" style="fill: rgb(151, 22, 41); stroke-width: 2; opacity: 0.7;"></path><path transform="translate(165,33.333333333333336)" d="MNaN,0" style="fill: rgb(164, 32, 47); stroke-width: 2; opacity: 0.7;"></path><path transform="translate(185,33.333333333333336)" d="MNaN,0" style="fill: rgb(143, 15, 38); stroke-width: 2; opacity: 0.7;"></path><path transform="translate(235,33.333333333333336)" d="MNaN,0" style="fill: rgb(167, 35, 48); stroke-width: 2; opacity: 0.7;"></path><path transform="translate(215,33.333333333333336)" d="MNaN,0" style="fill: rgb(168, 35, 48); stroke-width: 2; opacity: 0.7;"></path><path transform="translate(205,33.333333333333336)" d="MNaN,0" style="fill: rgb(147, 19, 40); stroke-width: 2; opacity: 0.7;"></path><path transform="translate(195,33.333333333333336)" d="MNaN,0" style="fill: rgb(153, 24, 43); stroke-width: 2; opacity: 0.7;"></path><path transform="translate(225,33.333333333333336)" d="MNaN,0" style="fill: rgb(159, 28, 45); stroke-width: 2; opacity: 0.7;"></path><path transform="translate(245,33.333333333333336)" d="MNaN,0" style="fill: rgb(162, 31, 46); stroke-width: 2; opacity: 0.7;"></path><path transform="translate(265,33.333333333333336)" d="M2.0976915388523003,0A2.0976915388523003,2.0976915388523003,0,1,1,-2.0976915388523003,0A2.0976915388523003,2.0976915388523003,0,1,1,2.0976915388523003,0" style="fill: rgb(142, 15, 38); stroke-width: 2; opacity: 0.7;"></path><path transform="translate(275,33.333333333333336)" d="M1.3558362397698656,0A1.3558362397698656,1.3558362397698656,0,1,1,-1.3558362397698656,0A1.3558362397698656,1.3558362397698656,0,1,1,1.3558362397698656,0" style="fill: rgb(153, 24, 43); stroke-width: 2; opacity: 0.7;"></path><path transform="translate(255,33.333333333333336)" d="MNaN,0" style="fill: rgb(150, 21, 41); stroke-width: 2; opacity: 0.7;"></path><path transform="translate(295,33.333333333333336)" d="M2.721679579100421,0A2.721679579100421,2.721679579100421,0,1,1,-2.721679579100421,0A2.721679579100421,2.721679579100421,0,1,1,2.721679579100421,0" style="fill: rgb(143, 15, 38); stroke-width: 2; opacity: 0.7;"></path><path transform="translate(305,33.333333333333336)" d="M2.463864778478824,0A2.463864778478824,2.463864778478824,0,1,1,-2.463864778478824,0A2.463864778478824,2.463864778478824,0,1,1,2.463864778478824,0" style="fill: rgb(142, 15, 38); stroke-width: 2; opacity: 0.7;"></path><path transform="translate(315,33.333333333333336)" d="MNaN,0" style="fill: rgb(178, 44, 53); stroke-width: 2; opacity: 0.7;"></path><path transform="translate(325,33.333333333333336)" d="MNaN,0" style="fill: rgb(163, 31, 46); stroke-width: 2; opacity: 0.7;"></path><path transform="translate(345,33.333333333333336)" d="M1.8958136586927983,0A1.8958136586927983,1.8958136586927983,0,1,1,-1.8958136586927983,0A1.8958136586927983,1.8958136586927983,0,1,1,1.8958136586927983,0" style="fill: rgb(173, 39, 50); stroke-width: 2; opacity: 0.7;"></path><path transform="translate(335,33.333333333333336)" d="MNaN,0" style="fill: rgb(176, 42, 52); stroke-width: 2; opacity: 0.7;"></path><path transform="translate(355,33.333333333333336)" d="M0.33749682858847907,0A0.33749682858847907,0.33749682858847907,0,1,1,-0.33749682858847907,0A0.33749682858847907,0.33749682858847907,0,1,1,0.33749682858847907,0" style="fill: rgb(166, 34, 48); stroke-width: 2; opacity: 0.7;"></path><path transform="translate(365,33.333333333333336)" d="M3.3072663697216504,0A3.3072663697216504,3.3072663697216504,0,1,1,-3.3072663697216504,0A3.3072663697216504,3.3072663697216504,0,1,1,3.3072663697216504,0" style="fill: rgb(23, 82, 140); stroke-width: 2; opacity: 0.7;"></path><path transform="translate(375,33.333333333333336)" d="MNaN,0" style="fill: rgb(143, 15, 38); stroke-width: 2; opacity: 0.7;"></path><path transform="translate(285,33.333333333333336)" d="M3.241427413217632,0A3.241427413217632,3.241427413217632,0,1,1,-3.241427413217632,0A3.241427413217632,3.241427413217632,0,1,1,3.241427413217632,0" style="fill: rgb(143, 15, 38); stroke-width: 2; opacity: 0.7;"></path><path transform="translate(405,33.333333333333336)" d="MNaN,0" style="fill: rgb(153, 24, 42); stroke-width: 2; opacity: 0.7;"></path><path transform="translate(385,33.333333333333336)" d="MNaN,0" style="fill: rgb(147, 19, 40); stroke-width: 2; opacity: 0.7;"></path><path transform="translate(395,33.333333333333336)" d="MNaN,0" style="fill: rgb(149, 20, 41); stroke-width: 2; opacity: 0.7;"></path><path transform="translate(415,33.333333333333336)" d="MNaN,0" style="fill: rgb(158, 28, 45); stroke-width: 2; opacity: 0.7;"></path><path transform="translate(445,33.333333333333336)" d="M0.5542182998147704,0A0.5542182998147704,0.5542182998147704,0,1,1,-0.5542182998147704,0A0.5542182998147704,0.5542182998147704,0,1,1,0.5542182998147704,0" style="fill: rgb(147, 19, 40); stroke-width: 2; opacity: 0.7;"></path><path transform="translate(435,33.333333333333336)" d="MNaN,0" style="fill: rgb(144, 16, 39); stroke-width: 2; opacity: 0.7;"></path><path transform="translate(425,33.333333333333336)" d="M0.8370782030844295,0A0.8370782030844295,0.8370782030844295,0,1,1,-0.8370782030844295,0A0.8370782030844295,0.8370782030844295,0,1,1,0.8370782030844295,0" style="fill: rgb(162, 30, 46); stroke-width: 2; opacity: 0.7;"></path><path transform="translate(495,33.333333333333336)" d="MNaN,0" style="fill: rgb(167, 35, 48); stroke-width: 2; opacity: 0.7;"></path><path transform="translate(475,33.333333333333336)" d="M2.8888954607613178,0A2.8888954607613178,2.8888954607613178,0,1,1,-2.8888954607613178,0A2.8888954607613178,2.8888954607613178,0,1,1,2.8888954607613178,0" style="fill: rgb(204, 79, 73); stroke-width: 2; opacity: 0.7;"></path><path transform="translate(455,33.333333333333336)" d="MNaN,0" style="fill: rgb(152, 23, 42); stroke-width: 2; opacity: 0.7;"></path><path transform="translate(465,33.333333333333336)" d="M1.8015052226173842,0A1.8015052226173842,1.8015052226173842,0,1,1,-1.8015052226173842,0A1.8015052226173842,1.8015052226173842,0,1,1,1.8015052226173842,0" style="fill: rgb(157, 27, 44); stroke-width: 2; opacity: 0.7;"></path><path transform="translate(485,33.333333333333336)" d="MNaN,0" style="fill: rgb(151, 22, 42); stroke-width: 2; opacity: 0.7;"></path><path transform="translate(515,33.333333333333336)" d="MNaN,0" style="fill: rgb(140, 13, 37); stroke-width: 2; opacity: 0.7;"></path><path transform="translate(505,33.333333333333336)" d="M1.453397527174541,0A1.453397527174541,1.453397527174541,0,1,1,-1.453397527174541,0A1.453397527174541,1.453397527174541,0,1,1,1.453397527174541,0" style="fill: rgb(155, 25, 43); stroke-width: 2; opacity: 0.7;"></path><path transform="translate(585,33.333333333333336)" d="MNaN,0" style="fill: rgb(166, 34, 48); stroke-width: 2; opacity: 0.7;"></path><path transform="translate(525,33.333333333333336)" d="MNaN,0" style="fill: rgb(158, 28, 45); stroke-width: 2; opacity: 0.7;"></path><path transform="translate(545,33.333333333333336)" d="MNaN,0" style="fill: rgb(172, 39, 50); stroke-width: 2; opacity: 0.7;"></path><path transform="translate(535,33.333333333333336)" d="MNaN,0" style="fill: rgb(183, 48, 55); stroke-width: 2; opacity: 0.7;"></path><path transform="translate(575,33.333333333333336)" d="MNaN,0" style="fill: rgb(165, 33, 47); stroke-width: 2; opacity: 0.7;"></path><path transform="translate(555,33.333333333333336)" d="M2.058023577792199,0A2.058023577792199,2.058023577792199,0,1,1,-2.058023577792199,0A2.058023577792199,2.058023577792199,0,1,1,2.058023577792199,0" style="fill: rgb(173, 39, 50); stroke-width: 2; opacity: 0.7;"></path><path transform="translate(565,33.333333333333336)" d="M3.5833556321733497,0A3.5833556321733497,3.5833556321733497,0,1,1,-3.5833556321733497,0A3.5833556321733497,3.5833556321733497,0,1,1,3.5833556321733497,0" style="fill: rgb(30, 92, 151); stroke-width: 2; opacity: 0.7;"></path><path transform="translate(595,33.333333333333336)" d="M3.077100238301853,0A3.077100238301853,3.077100238301853,0,1,1,-3.077100238301853,0A3.077100238301853,3.077100238301853,0,1,1,3.077100238301853,0" style="fill: rgb(198, 68, 66); stroke-width: 2; opacity: 0.7;"></path><path transform="translate(5,20)" d="M2.311650460728614,0A2.311650460728614,2.311650460728614,0,1,1,-2.311650460728614,0A2.311650460728614,2.311650460728614,0,1,1,2.311650460728614,0" style="fill: rgb(105, 170, 207); stroke-width: 2; opacity: 0.7;"></path><path transform="translate(15,20)" d="M3.5727242492893305,0A3.5727242492893305,3.5727242492893305,0,1,1,-3.5727242492893305,0A3.5727242492893305,3.5727242492893305,0,1,1,3.5727242492893305,0" style="fill: rgb(102, 168, 206); stroke-width: 2; opacity: 0.7;"></path><path transform="translate(45,20)" d="M2.763082165887355,0A2.763082165887355,2.763082165887355,0,1,1,-2.763082165887355,0A2.763082165887355,2.763082165887355,0,1,1,2.763082165887355,0" style="fill: rgb(87, 156, 200); stroke-width: 2; opacity: 0.7;"></path><path transform="translate(25,20)" d="M4.109490490062252,0A4.109490490062252,4.109490490062252,0,1,1,-4.109490490062252,0A4.109490490062252,4.109490490062252,0,1,1,4.109490490062252,0" style="fill: rgb(50, 123, 181); stroke-width: 2; opacity: 0.7;"></path><path transform="translate(35,20)" d="M4.006201345100513,0A4.006201345100513,4.006201345100513,0,1,1,-4.006201345100513,0A4.006201345100513,4.006201345100513,0,1,1,4.006201345100513,0" style="fill: rgb(73, 144, 193); stroke-width: 2; opacity: 0.7;"></path><path transform="translate(65,20)" d="M4.28756860403005,0A4.28756860403005,4.28756860403005,0,1,1,-4.28756860403005,0A4.28756860403005,4.28756860403005,0,1,1,4.28756860403005,0" style="fill: rgb(25, 84, 142); stroke-width: 2; opacity: 0.7;"></path><path transform="translate(75,20)" d="M4.293452566380469,0A4.293452566380469,4.293452566380469,0,1,1,-4.293452566380469,0A4.293452566380469,4.293452566380469,0,1,1,4.293452566380469,0" style="fill: rgb(43, 114, 173); stroke-width: 2; opacity: 0.7;"></path><path transform="translate(55,20)" d="M4.30438851048065,0A4.30438851048065,4.30438851048065,0,1,1,-4.30438851048065,0A4.30438851048065,4.30438851048065,0,1,1,4.30438851048065,0" style="fill: rgb(33, 98, 157); stroke-width: 2; opacity: 0.7;"></path><path transform="translate(85,20)" d="M4.47213595499958,0A4.47213595499958,4.47213595499958,0,1,1,-4.47213595499958,0A4.47213595499958,4.47213595499958,0,1,1,4.47213595499958,0" style="fill: rgb(27, 88, 147); stroke-width: 2; opacity: 0.7;"></path><path transform="translate(105,20)" d="M2.8848586120799338,0A2.8848586120799338,2.8848586120799338,0,1,1,-2.8848586120799338,0A2.8848586120799338,2.8848586120799338,0,1,1,2.8848586120799338,0" style="fill: rgb(85, 154, 199); stroke-width: 2; opacity: 0.7;"></path><path transform="translate(115,20)" d="M2.9327308895310717,0A2.9327308895310717,2.9327308895310717,0,1,1,-2.9327308895310717,0A2.9327308895310717,2.9327308895310717,0,1,1,2.9327308895310717,0" style="fill: rgb(94, 163, 203); stroke-width: 2; opacity: 0.7;"></path><path transform="translate(125,20)" d="M4.443997974003132,0A4.443997974003132,4.443997974003132,0,1,1,-4.443997974003132,0A4.443997974003132,4.443997974003132,0,1,1,4.443997974003132,0" style="fill: rgb(42, 112, 171); stroke-width: 2; opacity: 0.7;"></path><path transform="translate(145,20)" d="M4.358183875922293,0A4.358183875922293,4.358183875922293,0,1,1,-4.358183875922293,0A4.358183875922293,4.358183875922293,0,1,1,4.358183875922293,0" style="fill: rgb(23, 81, 140); stroke-width: 2; opacity: 0.7;"></path><path transform="translate(135,20)" d="M4.394194248031246,0A4.394194248031246,4.394194248031246,0,1,1,-4.394194248031246,0A4.394194248031246,4.394194248031246,0,1,1,4.394194248031246,0" style="fill: rgb(61, 133, 186); stroke-width: 2; opacity: 0.7;"></path><path transform="translate(95,20)" d="M4.47213595499958,0A4.47213595499958,4.47213595499958,0,1,1,-4.47213595499958,0A4.47213595499958,4.47213595499958,0,1,1,4.47213595499958,0" style="fill: rgb(39, 107, 165); stroke-width: 2; opacity: 0.7;"></path><path transform="translate(185,20)" d="M2.7202012880634507,0A2.7202012880634507,2.7202012880634507,0,1,1,-2.7202012880634507,0A2.7202012880634507,2.7202012880634507,0,1,1,2.7202012880634507,0" style="fill: rgb(143, 15, 38); stroke-width: 2; opacity: 0.7;"></path><path transform="translate(155,20)" d="M4.100636881540645,0A4.100636881540645,4.100636881540645,0,1,1,-4.100636881540645,0A4.100636881540645,4.100636881540645,0,1,1,4.100636881540645,0" style="fill: rgb(30, 93, 151); stroke-width: 2; opacity: 0.7;"></path><path transform="translate(165,20)" d="M3.8680741756651127,0A3.8680741756651127,3.8680741756651127,0,1,1,-3.8680741756651127,0A3.8680741756651127,3.8680741756651127,0,1,1,3.8680741756651127,0" style="fill: rgb(33, 97, 156); stroke-width: 2; opacity: 0.7;"></path><path transform="translate(175,20)" d="M4.216136690796532,0A4.216136690796532,4.216136690796532,0,1,1,-4.216136690796532,0A4.216136690796532,4.216136690796532,0,1,1,4.216136690796532,0" style="fill: rgb(42, 112, 171); stroke-width: 2; opacity: 0.7;"></path><path transform="translate(195,20)" d="M4.301162633521313,0A4.301162633521313,4.301162633521313,0,1,1,-4.301162633521313,0A4.301162633521313,4.301162633521313,0,1,1,4.301162633521313,0" style="fill: rgb(39, 107, 166); stroke-width: 2; opacity: 0.7;"></path><path transform="translate(205,20)" d="M4.391619422887192,0A4.391619422887192,4.391619422887192,0,1,1,-4.391619422887192,0A4.391619422887192,4.391619422887192,0,1,1,4.391619422887192,0" style="fill: rgb(79, 149, 196); stroke-width: 2; opacity: 0.7;"></path><path transform="translate(215,20)" d="M4.0862965279873835,0A4.0862965279873835,4.0862965279873835,0,1,1,-4.0862965279873835,0A4.0862965279873835,4.0862965279873835,0,1,1,4.0862965279873835,0" style="fill: rgb(44, 115, 174); stroke-width: 2; opacity: 0.7;"></path><path transform="translate(225,20)" d="M4.199286974067504,0A4.199286974067504,4.199286974067504,0,1,1,-4.199286974067504,0A4.199286974067504,4.199286974067504,0,1,1,4.199286974067504,0" style="fill: rgb(55, 127, 183); stroke-width: 2; opacity: 0.7;"></path><path transform="translate(235,20)" d="M4.2754332656397,0A4.2754332656397,4.2754332656397,0,1,1,-4.2754332656397,0A4.2754332656397,4.2754332656397,0,1,1,4.2754332656397,0" style="fill: rgb(38, 106, 165); stroke-width: 2; opacity: 0.7;"></path><path transform="translate(245,20)" d="MNaN,0" style="fill: rgb(168, 35, 48); stroke-width: 2; opacity: 0.7;"></path><path transform="translate(255,20)" d="M2.8593980375844112,0A2.8593980375844112,2.8593980375844112,0,1,1,-2.8593980375844112,0A2.8593980375844112,2.8593980375844112,0,1,1,2.8593980375844112,0" style="fill: rgb(150, 21, 41); stroke-width: 2; opacity: 0.7;"></path><path transform="translate(265,20)" d="M2.0976915388523003,0A2.0976915388523003,2.0976915388523003,0,1,1,-2.0976915388523003,0A2.0976915388523003,2.0976915388523003,0,1,1,2.0976915388523003,0" style="fill: rgb(142, 15, 38); stroke-width: 2; opacity: 0.7;"></path><path transform="translate(295,20)" d="M2.626246589144565,0A2.626246589144565,2.626246589144565,0,1,1,-2.626246589144565,0A2.626246589144565,2.626246589144565,0,1,1,2.626246589144565,0" style="fill: rgb(143, 15, 38); stroke-width: 2; opacity: 0.7;"></path><path transform="translate(285,20)" d="M3.241427413217632,0A3.241427413217632,3.241427413217632,0,1,1,-3.241427413217632,0A3.241427413217632,3.241427413217632,0,1,1,3.241427413217632,0" style="fill: rgb(143, 15, 38); stroke-width: 2; opacity: 0.7;"></path><path transform="translate(275,20)" d="M0.941073855025398,0A0.941073855025398,0.941073855025398,0,1,1,-0.941073855025398,0A0.941073855025398,0.941073855025398,0,1,1,0.941073855025398,0" style="fill: rgb(161, 30, 45); stroke-width: 2; opacity: 0.7;"></path><path transform="translate(305,20)" d="M2.576570691928491,0A2.576570691928491,2.576570691928491,0,1,1,-2.576570691928491,0A2.576570691928491,2.576570691928491,0,1,1,2.576570691928491,0" style="fill: rgb(142, 15, 38); stroke-width: 2; opacity: 0.7;"></path><path transform="translate(315,20)" d="MNaN,0" style="fill: rgb(178, 44, 53); stroke-width: 2; opacity: 0.7;"></path><path transform="translate(325,20)" d="M0.8686612001418632,0A0.8686612001418632,0.8686612001418632,0,1,1,-0.8686612001418632,0A0.8686612001418632,0.8686612001418632,0,1,1,0.8686612001418632,0" style="fill: rgb(192, 55, 59); stroke-width: 2; opacity: 0.7;"></path><path transform="translate(345,20)" d="M3.902357643465216,0A3.902357643465216,3.902357643465216,0,1,1,-3.902357643465216,0A3.902357643465216,3.902357643465216,0,1,1,3.902357643465216,0" style="fill: rgb(40, 109, 168); stroke-width: 2; opacity: 0.7;"></path><path transform="translate(335,20)" d="MNaN,0" style="fill: rgb(197, 66, 65); stroke-width: 2; opacity: 0.7;"></path><path transform="translate(355,20)" d="MNaN,0" style="fill: rgb(171, 38, 50); stroke-width: 2; opacity: 0.7;"></path><path transform="translate(385,20)" d="MNaN,0" style="fill: rgb(151, 22, 42); stroke-width: 2; opacity: 0.7;"></path><path transform="translate(395,20)" d="M2.6976073457976355,0A2.6976073457976355,2.6976073457976355,0,1,1,-2.6976073457976355,0A2.6976073457976355,2.6976073457976355,0,1,1,2.6976073457976355,0" style="fill: rgb(149, 20, 41); stroke-width: 2; opacity: 0.7;"></path><path transform="translate(365,20)" d="M4.267433680053633,0A4.267433680053633,4.267433680053633,0,1,1,-4.267433680053633,0A4.267433680053633,4.267433680053633,0,1,1,4.267433680053633,0" style="fill: rgb(25, 85, 144); stroke-width: 2; opacity: 0.7;"></path><path transform="translate(405,20)" d="M0.28263784168507244,0A0.28263784168507244,0.28263784168507244,0,1,1,-0.28263784168507244,0A0.28263784168507244,0.28263784168507244,0,1,1,0.28263784168507244,0" style="fill: rgb(159, 28, 45); stroke-width: 2; opacity: 0.7;"></path><path transform="translate(375,20)" d="M4.363768001248859,0A4.363768001248859,4.363768001248859,0,1,1,-4.363768001248859,0A4.363768001248859,4.363768001248859,0,1,1,4.363768001248859,0" style="fill: rgb(24, 84, 142); stroke-width: 2; opacity: 0.7;"></path><path transform="translate(415,20)" d="M2.773306100204583,0A2.773306100204583,2.773306100204583,0,1,1,-2.773306100204583,0A2.773306100204583,2.773306100204583,0,1,1,2.773306100204583,0" style="fill: rgb(166, 34, 48); stroke-width: 2; opacity: 0.7;"></path><path transform="translate(435,20)" d="MNaN,0" style="fill: rgb(148, 20, 40); stroke-width: 2; opacity: 0.7;"></path><path transform="translate(445,20)" d="M0.9928453222615113,0A0.9928453222615113,0.9928453222615113,0,1,1,-0.9928453222615113,0A0.9928453222615113,0.9928453222615113,0,1,1,0.9928453222615113,0" style="fill: rgb(161, 30, 45); stroke-width: 2; opacity: 0.7;"></path><path transform="translate(465,20)" d="M1.3747308255895105,0A1.3747308255895105,1.3747308255895105,0,1,1,-1.3747308255895105,0A1.3747308255895105,1.3747308255895105,0,1,1,1.3747308255895105,0" style="fill: rgb(174, 40, 51); stroke-width: 2; opacity: 0.7;"></path><path transform="translate(425,20)" d="M3.9642489051985526,0A3.9642489051985526,3.9642489051985526,0,1,1,-3.9642489051985526,0A3.9642489051985526,3.9642489051985526,0,1,1,3.9642489051985526,0" style="fill: rgb(34, 99, 158); stroke-width: 2; opacity: 0.7;"></path><path transform="translate(475,20)" d="M2.8888954607613178,0A2.8888954607613178,2.8888954607613178,0,1,1,-2.8888954607613178,0A2.8888954607613178,2.8888954607613178,0,1,1,2.8888954607613178,0" style="fill: rgb(204, 79, 73); stroke-width: 2; opacity: 0.7;"></path><path transform="translate(485,20)" d="M1.4774156952248463,0A1.4774156952248463,1.4774156952248463,0,1,1,-1.4774156952248463,0A1.4774156952248463,1.4774156952248463,0,1,1,1.4774156952248463,0" style="fill: rgb(153, 23, 42); stroke-width: 2; opacity: 0.7;"></path><path transform="translate(495,20)" d="M2.8405483265771716,0A2.8405483265771716,2.8405483265771716,0,1,1,-2.8405483265771716,0A2.8405483265771716,2.8405483265771716,0,1,1,2.8405483265771716,0" style="fill: rgb(172, 39, 50); stroke-width: 2; opacity: 0.7;"></path><path transform="translate(455,20)" d="M3.887456549087957,0A3.887456549087957,3.887456549087957,0,1,1,-3.887456549087957,0A3.887456549087957,3.887456549087957,0,1,1,3.887456549087957,0" style="fill: rgb(36, 102, 161); stroke-width: 2; opacity: 0.7;"></path><path transform="translate(505,20)" d="M3.701426262080356,0A3.701426262080356,3.701426262080356,0,1,1,-3.701426262080356,0A3.701426262080356,3.701426262080356,0,1,1,3.701426262080356,0" style="fill: rgb(159, 28, 45); stroke-width: 2; opacity: 0.7;"></path><path transform="translate(535,20)" d="M3.4346691460458194,0A3.4346691460458194,3.4346691460458194,0,1,1,-3.4346691460458194,0A3.4346691460458194,3.4346691460458194,0,1,1,3.4346691460458194,0" style="fill: rgb(43, 114, 173); stroke-width: 2; opacity: 0.7;"></path><path transform="translate(545,20)" d="M1.7780095301610233,0A1.7780095301610233,1.7780095301610233,0,1,1,-1.7780095301610233,0A1.7780095301610233,1.7780095301610233,0,1,1,1.7780095301610233,0" style="fill: rgb(193, 57, 60); stroke-width: 2; opacity: 0.7;"></path><path transform="translate(555,20)" d="M2.058023577792199,0A2.058023577792199,2.058023577792199,0,1,1,-2.058023577792199,0A2.058023577792199,2.058023577792199,0,1,1,2.058023577792199,0" style="fill: rgb(173, 39, 50); stroke-width: 2; opacity: 0.7;"></path><path transform="translate(515,20)" d="M2.7263799757044183,0A2.7263799757044183,2.7263799757044183,0,1,1,-2.7263799757044183,0A2.7263799757044183,2.7263799757044183,0,1,1,2.7263799757044183,0" style="fill: rgb(156, 26, 44); stroke-width: 2; opacity: 0.7;"></path><path transform="translate(565,20)" d="M3.5833556321733497,0A3.5833556321733497,3.5833556321733497,0,1,1,-3.5833556321733497,0A3.5833556321733497,3.5833556321733497,0,1,1,3.5833556321733497,0" style="fill: rgb(30, 92, 151); stroke-width: 2; opacity: 0.7;"></path><path transform="translate(525,20)" d="M3.3017875861098394,0A3.3017875861098394,3.3017875861098394,0,1,1,-3.3017875861098394,0A3.3017875861098394,3.3017875861098394,0,1,1,3.3017875861098394,0" style="fill: rgb(34, 99, 157); stroke-width: 2; opacity: 0.7;"></path><path transform="translate(575,20)" d="MNaN,0" style="fill: rgb(180, 45, 53); stroke-width: 2; opacity: 0.7;"></path><path transform="translate(585,20)" d="M1.6127276978956524,0A1.6127276978956524,1.6127276978956524,0,1,1,-1.6127276978956524,0A1.6127276978956524,1.6127276978956524,0,1,1,1.6127276978956524,0" style="fill: rgb(166, 34, 48); stroke-width: 2; opacity: 0.7;"></path><path transform="translate(595,20)" d="M3.077100238301853,0A3.077100238301853,3.077100238301853,0,1,1,-3.077100238301853,0A3.077100238301853,3.077100238301853,0,1,1,3.077100238301853,0" style="fill: rgb(198, 68, 66); stroke-width: 2; opacity: 0.7;"></path></g><g class="mark-group role-legend"><g transform="translate(680,-10)"><path class="background" d="M0,0h82v80h-82Z" style="pointer-events: none; fill: none;"></path><g><g class="mark-group role-legend-entry"><g transform="translate(0,16)"><path class="background" d="M0,0h0v0h0Z" style="pointer-events: none; fill: none;"></path><g><g class="mark-rect role-legend-gradient" style="pointer-events: none;"><path d="M0,0h16v64h-16Z" style="fill: url(#gradient_0); stroke: #ddd; stroke-width: 0; opacity: 0.7;"></path></g><g class="mark-text role-legend-label" style="pointer-events: none;"><text text-anchor="start" transform="translate(18,62)" style="font-family: sans-serif; font-size: 10px; fill: #000; opacity: 1;">-1</text><text text-anchor="start" transform="translate(18,35)" style="font-family: sans-serif; font-size: 10px; fill: #000; opacity: 1;">0</text><text text-anchor="start" transform="translate(18,8)" style="font-family: sans-serif; font-size: 10px; fill: #000; opacity: 1;">1</text></g></g><path class="foreground" d="" style="pointer-events: none; display: none; fill: none;"></path></g></g><g class="mark-text role-legend-title" style="pointer-events: none;"><text text-anchor="start" transform="translate(0,9)" style="font-family: sans-serif; font-size: 11px; font-weight: bold; fill: #000; opacity: 1;">signed O score</text></g></g><path class="foreground" d="" style="pointer-events: none; display: none; fill: none;"></path></g></g><g class="mark-group role-legend"><g transform="translate(610,-10)"><path class="background" d="M0,0h60v79h-60Z" style="pointer-events: none; fill: none;"></path><g><g class="mark-group role-legend-entry"><g transform="translate(0,16)"><path class="background" d="M0,0h0v0h0Z" style="pointer-events: none; fill: none;"></path><g><g class="mark-group role-scope"><g transform="translate(0,0)"><path class="background" d="M0,0h29.1357421875v10h-29.1357421875Z" style="pointer-events: none; fill: none; opacity: 1;"></path><g><g class="mark-symbol role-legend-symbol" style="pointer-events: none;"><path transform="translate(5.5,5)" d="M1.9999999999999998,0A1.9999999999999998,1.9999999999999998,0,1,1,-1.9999999999999998,0A1.9999999999999998,1.9999999999999998,0,1,1,1.9999999999999998,0" style="fill: black; fill-opacity: 0.7; stroke: none; stroke-width: 1.5; opacity: 0.7;"></path></g><g class="mark-text role-legend-label" style="pointer-events: none;"><text text-anchor="start" transform="translate(15,8)" style="font-family: sans-serif; font-size: 10px; fill: #000; opacity: 1;">0.6</text></g></g><path class="foreground" d="" style="pointer-events: none; display: none; fill: none;"></path></g><g transform="translate(0,12)"><path class="background" d="M0,0h29.1357421875v10h-29.1357421875Z" style="pointer-events: none; fill: none; opacity: 1;"></path><g><g class="mark-symbol role-legend-symbol" style="pointer-events: none;"><path transform="translate(5.5,5)" d="M2.82842712474619,0A2.82842712474619,2.82842712474619,0,1,1,-2.82842712474619,0A2.82842712474619,2.82842712474619,0,1,1,2.82842712474619,0" style="fill: black; fill-opacity: 0.7; stroke: none; stroke-width: 1.5; opacity: 0.7;"></path></g><g class="mark-text role-legend-label" style="pointer-events: none;"><text text-anchor="start" transform="translate(15,8)" style="font-family: sans-serif; font-size: 10px; fill: #000; opacity: 1;">0.7</text></g></g><path class="foreground" d="" style="pointer-events: none; display: none; fill: none;"></path></g><g transform="translate(0,24)"><path class="background" d="M0,0h29.1357421875v10h-29.1357421875Z" style="pointer-events: none; fill: none; opacity: 1;"></path><g><g class="mark-symbol role-legend-symbol" style="pointer-events: none;"><path transform="translate(5.5,5)" d="M3.464101615137755,0A3.464101615137755,3.464101615137755,0,1,1,-3.464101615137755,0A3.464101615137755,3.464101615137755,0,1,1,3.464101615137755,0" style="fill: black; fill-opacity: 0.7; stroke: none; stroke-width: 1.5; opacity: 0.7;"></path></g><g class="mark-text role-legend-label" style="pointer-events: none;"><text text-anchor="start" transform="translate(15,8)" style="font-family: sans-serif; font-size: 10px; fill: #000; opacity: 1;">0.8</text></g></g><path class="foreground" d="" style="pointer-events: none; display: none; fill: none;"></path></g><g transform="translate(0,37)"><path class="background" d="M0,0h29.1357421875v10.5h-29.1357421875Z" style="pointer-events: none; fill: none; opacity: 1;"></path><g><g class="mark-symbol role-legend-symbol" style="pointer-events: none;"><path transform="translate(5.5,5)" d="M4,0A4,4,0,1,1,-4,0A4,4,0,1,1,4,0" style="fill: black; fill-opacity: 0.7; stroke: none; stroke-width: 1.5; opacity: 0.7;"></path></g><g class="mark-text role-legend-label" style="pointer-events: none;"><text text-anchor="start" transform="translate(15,8)" style="font-family: sans-serif; font-size: 10px; fill: #000; opacity: 1;">0.9</text></g></g><path class="foreground" d="" style="pointer-events: none; display: none; fill: none;"></path></g><g transform="translate(0,51)"><path class="background" d="M0,0h29.1357421875v11.47213595499958h-29.1357421875Z" style="pointer-events: none; fill: none; opacity: 1;"></path><g><g class="mark-symbol role-legend-symbol" style="pointer-events: none;"><path transform="translate(5.5,5.5)" d="M4.47213595499958,0A4.47213595499958,4.47213595499958,0,1,1,-4.47213595499958,0A4.47213595499958,4.47213595499958,0,1,1,4.47213595499958,0" style="fill: black; fill-opacity: 0.7; stroke: none; stroke-width: 1.5; opacity: 0.7;"></path></g><g class="mark-text role-legend-label" style="pointer-events: none;"><text text-anchor="start" transform="translate(15,8.5)" style="font-family: sans-serif; font-size: 10px; fill: #000; opacity: 1;">1.0</text></g></g><path class="foreground" d="" style="pointer-events: none; display: none; fill: none;"></path></g></g></g><path class="foreground" d="" style="pointer-events: none; display: none; fill: none;"></path></g></g><g class="mark-text role-legend-title" style="pointer-events: none;"><text text-anchor="start" transform="translate(0,9)" style="font-family: sans-serif; font-size: 11px; font-weight: bold; fill: #000; opacity: 1;">MAT score</text></g></g><path class="foreground" d="" style="pointer-events: none; display: none; fill: none;"></path></g></g></g><path class="foreground" d="" style="display: none; fill: none;"></path></g></g></g></svg>